<?xml version="1.0" encoding="UTF-8" standalone="no"?>
<!-- Created with Inkscape (http://www.inkscape.org/) -->

<svg
   xmlns:dc="http://purl.org/dc/elements/1.1/"
   xmlns:cc="http://creativecommons.org/ns#"
   xmlns:rdf="http://www.w3.org/1999/02/22-rdf-syntax-ns#"
   xmlns:svg="http://www.w3.org/2000/svg"
   xmlns="http://www.w3.org/2000/svg"
   xmlns:sodipodi="http://sodipodi.sourceforge.net/DTD/sodipodi-0.dtd"
   xmlns:inkscape="http://www.inkscape.org/namespaces/inkscape"
   width="179.20911"
   height="89.687531"
   id="svg4886"
   version="1.1"
   inkscape:version="0.48.3.1 r9886"
   sodipodi:docname="Documento nuevo 4">
  <defs
     id="defs4888">
    <clipPath
       clipPathUnits="userSpaceOnUse"
       id="clipPath3199">
      <path
         inkscape:connector-curvature="0"
         d="m 488.243,693.24 -354.068,0 0,-495.75 354.068,0 0,495.75 z"
         id="path3201" />
    </clipPath>
  </defs>
  <sodipodi:namedview
     id="base"
     pagecolor="#ffffff"
     bordercolor="#666666"
     borderopacity="1.0"
     inkscape:pageopacity="0.0"
     inkscape:pageshadow="2"
     inkscape:zoom="5.6"
     inkscape:cx="115.88465"
     inkscape:cy="18.166036"
     inkscape:document-units="px"
     inkscape:current-layer="layer1"
     showgrid="false"
     fit-margin-top="0"
     fit-margin-left="0"
     fit-margin-right="0"
     fit-margin-bottom="0"
     inkscape:window-width="1920"
     inkscape:window-height="1021"
     inkscape:window-x="0"
     inkscape:window-y="27"
     inkscape:window-maximized="1" />
  <metadata
     id="metadata4891">
    <rdf:RDF>
      <cc:Work
         rdf:about="">
        <dc:format>image/svg+xml</dc:format>
        <dc:type
           rdf:resource="http://purl.org/dc/dcmitype/StillImage" />
        <dc:title></dc:title>
      </cc:Work>
    </rdf:RDF>
  </metadata>
  <g
     inkscape:label="Capa 1"
     inkscape:groupmode="layer"
     id="layer1"
     transform="translate(-260.39545,-487.5184)">
    <g
       id="g3115"
       transform="matrix(1.25,0,0,-1.25,439.45795,545.01843)">
      <path
         inkscape:connector-curvature="0"
         d="m 0,0 -143.25,0 0,0.5 L 0,0.5"
         style="fill:#231f20;fill-opacity:1;fill-rule:nonzero;stroke:none"
         id="path3117" />
    </g>
    <text
       style="font-size:15px"
       y="515.01471"
       x="395.00983"
       id="text3129">
      <tspan
         style="font-size:10px;font-style:italic;font-variant:normal;writing-mode:lr-tb;fill:#231f20;fill-opacity:1;fill-rule:nonzero;stroke:none;font-family:Times New Roman;-inkscape-font-specification:TimesTen-Italic"
         x="395.00983"
         y="515.01471"
         id="tspan3131">x</tspan>
    </text>
    <text
       style="font-size:15px"
       y="515.01471"
       x="400.00983"
       id="text3133">
      <tspan
         style="font-size:10px;font-variant:normal;font-weight:normal;writing-mode:lr-tb;fill:#231f20;fill-opacity:1;fill-rule:nonzero;stroke:none;font-family:Times New Roman;-inkscape-font-specification:TimesTen-Roman"
         x="400.00983"
         y="515.01471"
         id="tspan3135">[</tspan>
    </text>
    <text
       style="font-size:15px"
       y="515.01471"
       x="403.33981"
       id="text3137">
      <tspan
         style="font-size:10px;font-style:italic;font-variant:normal;writing-mode:lr-tb;fill:#231f20;fill-opacity:1;fill-rule:nonzero;stroke:none;font-family:Times New Roman;-inkscape-font-specification:TimesTen-Italic"
         x="403.33981"
         y="515.01471"
         id="tspan3139">n</tspan>
    </text>
    <text
       style="font-size:15px"
       y="515.01471"
       x="408.89981"
       id="text3141">
      <tspan
         style="font-size:10px;font-variant:normal;font-weight:normal;writing-mode:lr-tb;fill:#231f20;fill-opacity:1;fill-rule:nonzero;stroke:none;font-family:Times New Roman;-inkscape-font-specification:TimesTen-Roman"
         x="408.89981"
         y="515.01471"
         id="tspan3143">]</tspan>
    </text>
    <text
       style="font-size:15px"
       y="555.43469"
       x="435.00983"
       id="text3145">
      <tspan
         style="font-size:10px;font-style:italic;font-variant:normal;writing-mode:lr-tb;fill:#231f20;fill-opacity:1;fill-rule:nonzero;stroke:none;font-family:Times New Roman;-inkscape-font-specification:TimesTen-Italic"
         x="435.00983"
         y="555.43469"
         id="tspan3147">n</tspan>
    </text>
    <path
       inkscape:connector-curvature="0"
       d="m 394.2467,575.01844 -1.25,0 0,-30.16625 1.25,0 0,30.16625 z m -45.68625,-85.3125 1.25,0 0,55.14625 -1.25,0 0,-55.14625 z m -29.62375,11.875 1.25,0 0,43.27125 -1.25,0 0,-43.27125 z"
       style="fill:#231f20;fill-opacity:1;fill-rule:nonzero;stroke:none"
       id="path3149" />
    <g
       id="g3151"
       transform="matrix(1.25,0,0,-1.25,423.24795,546.58093)">
      <path
         inkscape:connector-curvature="0"
         d="M 0,0 C 0.829,0 1.5,0.671 1.5,1.5 1.5,2.329 0.829,3 0,3 -0.828,3 -1.5,2.329 -1.5,1.5 -1.5,0.671 -0.828,0 0,0"
         style="fill:#231f20;fill-opacity:1;fill-rule:nonzero;stroke:none"
         id="path3153" />
    </g>
    <g
       id="g3155"
       transform="matrix(1.25,0,0,-1.25,423.24795,546.58093)">
      <path
         inkscape:connector-curvature="0"
         d="M 0,0 0,0.25 C 0.691,0.251 1.249,0.809 1.25,1.5 1.249,2.191 0.691,2.749 0,2.75 -0.69,2.749 -1.249,2.191 -1.25,1.5 -1.249,0.809 -0.69,0.251 0,0.25 L 0,0 0,-0.25 c -0.966,0 -1.75,0.783 -1.75,1.75 0,0.967 0.784,1.75 1.75,1.75 C 0.967,3.25 1.75,2.467 1.75,1.5 1.75,0.533 0.967,-0.25 0,-0.25 L 0,0 z"
         style="fill:#231f20;fill-opacity:1;fill-rule:nonzero;stroke:none"
         id="path3157" />
    </g>
    <g
       id="g3159"
       transform="matrix(1.25,0,0,-1.25,408.43544,546.58093)">
      <path
         inkscape:connector-curvature="0"
         d="M 0,0 C 0.828,0 1.5,0.671 1.5,1.5 1.5,2.329 0.828,3 0,3 -0.829,3 -1.5,2.329 -1.5,1.5 -1.5,0.671 -0.829,0 0,0"
         style="fill:#231f20;fill-opacity:1;fill-rule:nonzero;stroke:none"
         id="path3161" />
    </g>
    <g
       id="g3163"
       transform="matrix(1.25,0,0,-1.25,408.43544,546.58093)">
      <path
         inkscape:connector-curvature="0"
         d="M 0,0 0,0.25 C 0.69,0.251 1.249,0.809 1.25,1.5 1.249,2.191 0.69,2.749 0,2.75 -0.691,2.749 -1.249,2.191 -1.25,1.5 -1.249,0.809 -0.691,0.251 0,0.25 L 0,0 0,-0.25 c -0.967,0 -1.75,0.783 -1.75,1.75 0,0.967 0.783,1.75 1.75,1.75 C 0.966,3.25 1.75,2.467 1.75,1.5 1.75,0.533 0.966,-0.25 0,-0.25 L 0,0 z"
         style="fill:#231f20;fill-opacity:1;fill-rule:nonzero;stroke:none"
         id="path3165" />
    </g>
    <g
       id="g3167"
       transform="matrix(1.25,0,0,-1.25,393.6217,576.89343)">
      <path
         inkscape:connector-curvature="0"
         d="M 0,0 C 0.828,0 1.5,0.671 1.5,1.5 1.5,2.329 0.828,3 0,3 -0.829,3 -1.5,2.329 -1.5,1.5 -1.5,0.671 -0.829,0 0,0"
         style="fill:#231f20;fill-opacity:1;fill-rule:nonzero;stroke:none"
         id="path3169" />
    </g>
    <g
       id="g3171"
       transform="matrix(1.25,0,0,-1.25,393.6217,576.89343)">
      <path
         inkscape:connector-curvature="0"
         d="M 0,0 0,0.25 C 0.69,0.251 1.249,0.809 1.25,1.5 1.249,2.191 0.69,2.749 0,2.75 -0.691,2.749 -1.249,2.191 -1.25,1.5 -1.249,0.809 -0.691,0.251 0,0.25 L 0,0 0,-0.25 c -0.967,0 -1.75,0.783 -1.75,1.75 0,0.967 0.783,1.75 1.75,1.75 C 0.966,3.25 1.75,2.467 1.75,1.5 1.75,0.533 0.966,-0.25 0,-0.25 L 0,0 z"
         style="fill:#231f20;fill-opacity:1;fill-rule:nonzero;stroke:none"
         id="path3173" />
    </g>
    <g
       id="g3175"
       transform="matrix(1.25,0,0,-1.25,378.81045,546.58093)">
      <path
         inkscape:connector-curvature="0"
         d="M 0,0 C 0.828,0 1.5,0.671 1.5,1.5 1.5,2.329 0.828,3 0,3 -0.829,3 -1.5,2.329 -1.5,1.5 -1.5,0.671 -0.829,0 0,0"
         style="fill:#231f20;fill-opacity:1;fill-rule:nonzero;stroke:none"
         id="path3177" />
    </g>
    <g
       id="g3179"
       transform="matrix(1.25,0,0,-1.25,378.81045,546.58093)">
      <path
         inkscape:connector-curvature="0"
         d="M 0,0 0,0.25 C 0.69,0.251 1.249,0.809 1.25,1.5 1.249,2.191 0.69,2.749 0,2.75 -0.691,2.749 -1.249,2.191 -1.25,1.5 -1.249,0.809 -0.691,0.251 0,0.25 L 0,0 0,-0.25 c -0.967,0 -1.75,0.783 -1.75,1.75 0,0.967 0.783,1.75 1.75,1.75 C 0.966,3.25 1.75,2.467 1.75,1.5 1.75,0.533 0.966,-0.25 0,-0.25 L 0,0 z"
         style="fill:#231f20;fill-opacity:1;fill-rule:nonzero;stroke:none"
         id="path3181" />
    </g>
    <g
       id="g3183"
       transform="matrix(1.25,0,0,-1.25,363.9967,546.58093)">
      <path
         inkscape:connector-curvature="0"
         d="M 0,0 C 0.829,0 1.5,0.671 1.5,1.5 1.5,2.329 0.829,3 0,3 -0.828,3 -1.5,2.329 -1.5,1.5 -1.5,0.671 -0.828,0 0,0"
         style="fill:#231f20;fill-opacity:1;fill-rule:nonzero;stroke:none"
         id="path3185" />
    </g>
    <g
       id="g3187"
       transform="matrix(1.25,0,0,-1.25,363.9967,546.58093)">
      <path
         inkscape:connector-curvature="0"
         d="M 0,0 0,0.25 C 0.691,0.251 1.249,0.809 1.25,1.5 1.249,2.191 0.691,2.749 0,2.75 -0.69,2.749 -1.249,2.191 -1.25,1.5 -1.249,0.809 -0.69,0.251 0,0.25 L 0,0 0,-0.25 c -0.966,0 -1.75,0.783 -1.75,1.75 0,0.967 0.784,1.75 1.75,1.75 C 0.967,3.25 1.75,2.467 1.75,1.5 1.75,0.533 0.967,-0.25 0,-0.25 L 0,0 z"
         style="fill:#231f20;fill-opacity:1;fill-rule:nonzero;stroke:none"
         id="path3189" />
    </g>
    <g
       id="g3191"
       transform="matrix(1.25,0,0,-1.25,349.18545,491.58093)">
      <path
         inkscape:connector-curvature="0"
         d="M 0,0 C 0.829,0 1.5,0.671 1.5,1.5 1.5,2.329 0.829,3 0,3 -0.828,3 -1.5,2.329 -1.5,1.5 -1.5,0.671 -0.828,0 0,0"
         style="fill:#231f20;fill-opacity:1;fill-rule:nonzero;stroke:none"
         id="path3193" />
    </g>
    <g
       transform="matrix(1.25,0,0,-1.25,92.676704,1354.0684)"
       id="g3195">
      <g
         id="g3197"
         clip-path="url(#clipPath3199)">
        <g
           id="g3203"
           transform="translate(205.207,689.99001)">
          <path
             inkscape:connector-curvature="0"
             d="M 0,0 0,0.25 C 0.691,0.251 1.249,0.809 1.25,1.5 1.249,2.191 0.691,2.749 0,2.75 -0.69,2.749 -1.249,2.191 -1.25,1.5 -1.249,0.809 -0.69,0.251 0,0.25 L 0,0 0,-0.25 c -0.966,0 -1.75,0.783 -1.75,1.75 0,0.967 0.784,1.75 1.75,1.75 C 0.967,3.25 1.75,2.467 1.75,1.5 1.75,0.533 0.967,-0.25 0,-0.25 L 0,0 z"
             style="fill:#231f20;fill-opacity:1;fill-rule:nonzero;stroke:none"
             id="path3205" />
        </g>
      </g>
    </g>
    <g
       id="g3207"
       transform="matrix(1.25,0,0,-1.25,334.37294,546.58093)">
      <path
         inkscape:connector-curvature="0"
         d="M 0,0 C 0.828,0 1.5,0.671 1.5,1.5 1.5,2.329 0.828,3 0,3 -0.829,3 -1.5,2.329 -1.5,1.5 -1.5,0.671 -0.829,0 0,0"
         style="fill:#231f20;fill-opacity:1;fill-rule:nonzero;stroke:none"
         id="path3209" />
    </g>
    <g
       id="g3211"
       transform="matrix(1.25,0,0,-1.25,334.37294,546.58093)">
      <path
         inkscape:connector-curvature="0"
         d="M 0,0 0,0.25 C 0.69,0.251 1.249,0.809 1.25,1.5 1.249,2.191 0.69,2.749 0,2.75 -0.691,2.749 -1.249,2.191 -1.25,1.5 -1.249,0.809 -0.691,0.251 0,0.25 L 0,0 0,-0.25 c -0.967,0 -1.75,0.783 -1.75,1.75 0,0.967 0.783,1.75 1.75,1.75 C 0.966,3.25 1.75,2.467 1.75,1.5 1.75,0.533 0.966,-0.25 0,-0.25 L 0,0 z"
         style="fill:#231f20;fill-opacity:1;fill-rule:nonzero;stroke:none"
         id="path3213" />
    </g>
    <g
       id="g3215"
       transform="matrix(1.25,0,0,-1.25,319.5617,503.45593)">
      <path
         inkscape:connector-curvature="0"
         d="M 0,0 C 0.828,0 1.5,0.671 1.5,1.5 1.5,2.329 0.828,3 0,3 -0.829,3 -1.5,2.329 -1.5,1.5 -1.5,0.671 -0.829,0 0,0"
         style="fill:#231f20;fill-opacity:1;fill-rule:nonzero;stroke:none"
         id="path3217" />
    </g>
    <g
       id="g3219"
       transform="matrix(1.25,0,0,-1.25,319.5617,503.45593)">
      <path
         inkscape:connector-curvature="0"
         d="M 0,0 0,0.25 C 0.69,0.251 1.249,0.809 1.25,1.5 1.249,2.191 0.69,2.749 0,2.75 -0.691,2.749 -1.249,2.191 -1.25,1.5 -1.249,0.809 -0.691,0.251 0,0.25 L 0,0 0,-0.25 c -0.967,0 -1.75,0.783 -1.75,1.75 0,0.967 0.783,1.75 1.75,1.75 C 0.966,3.25 1.75,2.467 1.75,1.5 1.75,0.533 0.966,-0.25 0,-0.25 L 0,0 z"
         style="fill:#231f20;fill-opacity:1;fill-rule:nonzero;stroke:none"
         id="path3221" />
    </g>
    <g
       id="g3223"
       transform="matrix(1.25,0,0,-1.25,304.74795,546.58093)">
      <path
         inkscape:connector-curvature="0"
         d="M 0,0 C 0.828,0 1.5,0.671 1.5,1.5 1.5,2.329 0.828,3 0,3 -0.829,3 -1.5,2.329 -1.5,1.5 -1.5,0.671 -0.829,0 0,0"
         style="fill:#231f20;fill-opacity:1;fill-rule:nonzero;stroke:none"
         id="path3225" />
    </g>
    <g
       id="g3227"
       transform="matrix(1.25,0,0,-1.25,304.74795,546.58093)">
      <path
         inkscape:connector-curvature="0"
         d="M 0,0 0,0.25 C 0.69,0.251 1.249,0.809 1.25,1.5 1.249,2.191 0.69,2.749 0,2.75 -0.691,2.749 -1.249,2.191 -1.25,1.5 -1.249,0.809 -0.691,0.251 0,0.25 L 0,0 0,-0.25 c -0.967,0 -1.75,0.783 -1.75,1.75 0,0.967 0.783,1.75 1.75,1.75 C 0.966,3.25 1.75,2.467 1.75,1.5 1.75,0.533 0.966,-0.25 0,-0.25 L 0,0 z"
         style="fill:#231f20;fill-opacity:1;fill-rule:nonzero;stroke:none"
         id="path3229" />
    </g>
    <g
       id="g3231"
       transform="matrix(1.25,0,0,-1.25,289.9367,546.58093)">
      <path
         inkscape:connector-curvature="0"
         d="M 0,0 C 0.828,0 1.5,0.671 1.5,1.5 1.5,2.329 0.828,3 0,3 -0.828,3 -1.5,2.329 -1.5,1.5 -1.5,0.671 -0.828,0 0,0"
         style="fill:#231f20;fill-opacity:1;fill-rule:nonzero;stroke:none"
         id="path3233" />
    </g>
    <g
       id="g3235"
       transform="matrix(1.25,0,0,-1.25,289.9367,546.58093)">
      <path
         inkscape:connector-curvature="0"
         d="M 0,0 0,0.25 C 0.69,0.251 1.249,0.809 1.25,1.5 1.249,2.191 0.69,2.749 0,2.75 -0.69,2.749 -1.249,2.191 -1.25,1.5 -1.249,0.809 -0.69,0.251 0,0.25 L 0,0 0,-0.25 c -0.966,0 -1.75,0.783 -1.75,1.75 0,0.967 0.784,1.75 1.75,1.75 C 0.966,3.25 1.75,2.467 1.75,1.5 1.75,0.533 0.966,-0.25 0,-0.25 L 0,0 z"
         style="fill:#231f20;fill-opacity:1;fill-rule:nonzero;stroke:none"
         id="path3237" />
    </g>
    <g
       id="g3239"
       transform="matrix(1.25,0,0,-1.25,275.12295,546.58093)">
      <path
         inkscape:connector-curvature="0"
         d="M 0,0 C 0.829,0 1.5,0.671 1.5,1.5 1.5,2.329 0.829,3 0,3 -0.828,3 -1.5,2.329 -1.5,1.5 -1.5,0.671 -0.828,0 0,0"
         style="fill:#231f20;fill-opacity:1;fill-rule:nonzero;stroke:none"
         id="path3241" />
    </g>
  </g>
</svg>
