<?xml version="1.0" encoding="UTF-8" standalone="no"?>
<!-- Created with Inkscape (http://www.inkscape.org/) -->

<svg
   xmlns:dc="http://purl.org/dc/elements/1.1/"
   xmlns:cc="http://creativecommons.org/ns#"
   xmlns:rdf="http://www.w3.org/1999/02/22-rdf-syntax-ns#"
   xmlns:svg="http://www.w3.org/2000/svg"
   xmlns="http://www.w3.org/2000/svg"
   xmlns:sodipodi="http://sodipodi.sourceforge.net/DTD/sodipodi-0.dtd"
   xmlns:inkscape="http://www.inkscape.org/namespaces/inkscape"
   width="289.59473"
   height="72.893066"
   id="svg4198"
   version="1.1"
   inkscape:version="0.48.3.1 r9886"
   sodipodi:docname="01-01-escalon-unidad.svg">
  <defs
     id="defs4200">
    <clipPath
       clipPathUnits="userSpaceOnUse"
       id="clipPath3203">
      <path
         inkscape:connector-curvature="0"
         d="m 334.735,693.215 -232,0 0,-357.725 232,0 0,357.725 z"
         id="path3205" />
    </clipPath>
    <clipPath
       clipPathUnits="userSpaceOnUse"
       id="clipPath3161">
      <path
         inkscape:connector-curvature="0"
         d="m 334.735,693.215 -232,0 0,-357.725 232,0 0,357.725 z"
         id="path3163" />
    </clipPath>
  </defs>
  <sodipodi:namedview
     id="base"
     pagecolor="#ffffff"
     bordercolor="#666666"
     borderopacity="1.0"
     inkscape:pageopacity="0.0"
     inkscape:pageshadow="2"
     inkscape:zoom="1.979899"
     inkscape:cx="227.7301"
     inkscape:cy="58.67478"
     inkscape:document-units="px"
     inkscape:current-layer="layer1"
     showgrid="false"
     inkscape:window-width="1920"
     inkscape:window-height="1021"
     inkscape:window-x="0"
     inkscape:window-y="27"
     inkscape:window-maximized="1"
     fit-margin-top="0"
     fit-margin-left="0"
     fit-margin-right="0"
     fit-margin-bottom="0" />
  <metadata
     id="metadata4203">
    <rdf:RDF>
      <cc:Work
         rdf:about="">
        <dc:format>image/svg+xml</dc:format>
        <dc:type
           rdf:resource="http://purl.org/dc/dcmitype/StillImage" />
        <dc:title></dc:title>
      </cc:Work>
    </rdf:RDF>
  </metadata>
  <g
     inkscape:label="Capa 1"
     inkscape:groupmode="layer"
     id="layer1"
     transform="translate(-111.27631,-342.2381)">
    <path
       id="path3167"
       style="fill:#231f20;fill-opacity:1;fill-rule:nonzero;stroke:none"
       d="m 400.86006,404.07646 -289.58375,0 0,-0.625 289.58375,0 z"
       inkscape:connector-curvature="0"
       sodipodi:nodetypes="ccccc" />
    <text
       style="font-size:15px"
       y="362.93146"
       x="237.8513"
       id="text3169">
      <tspan
         style="font-size:10px;font-variant:normal;font-weight:normal;writing-mode:lr-tb;fill:#231f20;fill-opacity:1;fill-rule:nonzero;stroke:none;font-family:Times New Roman;-inkscape-font-specification:Times-Roman"
         x="237.8513"
         y="362.93146"
         id="tspan3171">1</tspan>
      <tspan
         style="font-size:10px;font-variant:normal;font-weight:normal;writing-mode:lr-tb;fill:#231f20;fill-opacity:1;fill-rule:nonzero;stroke:none;font-family:Times New Roman;-inkscape-font-specification:Times-Roman"
         x="301.84131 307.95132 311.84131 316.28131 320.72131 323.50131 328.50131 333.50131"
         y="349.18146"
         sodipodi:role="line"
         id="tspan3173">Escalón</tspan>
    </text>
    <text
       style="font-size:15px"
       y="349.18146"
       x="336.00131"
       id="text3175">
      <tspan
         style="font-size:10px;font-variant:normal;font-weight:normal;writing-mode:lr-tb;fill:#231f20;fill-opacity:1;fill-rule:nonzero;stroke:none;font-family:Times New Roman;-inkscape-font-specification:Times-Roman"
         x="336.00131"
         y="349.18146"
         id="tspan3177">u</tspan>
    </text>
    <text
       style="font-size:15px"
       y="349.18146"
       x="341.00131"
       id="text3179">
      <tspan
         style="font-size:10px;font-variant:normal;font-weight:normal;writing-mode:lr-tb;fill:#231f20;fill-opacity:1;fill-rule:nonzero;stroke:none;font-family:Times New Roman;-inkscape-font-specification:Times-Roman"
         x="341.00131 346.00131 348.78131 353.78131 358.22131"
         y="349.18146"
         sodipodi:role="line"
         id="tspan3181">nidad</tspan>
      <tspan
         style="font-size:10px;font-variant:normal;font-weight:normal;writing-mode:lr-tb;fill:#231f20;fill-opacity:1;fill-rule:nonzero;stroke:none;font-family:Times New Roman;-inkscape-font-specification:Times-Roman"
         x="245.03131"
         y="415.01147"
         id="tspan3183">0</tspan>
      <tspan
         style="font-size:10px;font-variant:normal;font-weight:normal;writing-mode:lr-tb;fill:#231f20;fill-opacity:1;fill-rule:nonzero;stroke:none;font-family:Times New Roman;-inkscape-font-specification:Times-Roman"
         x="341.00131"
         y="-nan"
         sodipodi:role="line"
         id="tspan3185" />
    </text>
    <text
       style="font-size:15px"
       y="380.44522"
       x="366.58881"
       id="text3187">
      <tspan
         style="font-size:12.5px;font-variant:normal;font-weight:normal;writing-mode:lr-tb;fill:#231f20;fill-opacity:1;fill-rule:nonzero;stroke:none;font-family:Times New Roman;-inkscape-font-specification:Times-Roman"
         x="366.58881 369.71381 372.83881"
         y="380.44522"
         sodipodi:role="line"
         id="tspan3189">...</tspan>
      <tspan
         style="font-size:12.5px;font-variant:normal;font-weight:normal;writing-mode:lr-tb;fill:#231f20;fill-opacity:1;fill-rule:nonzero;stroke:none;font-family:Times New Roman;-inkscape-font-specification:Times-Roman"
         x="366.58881"
         y="0"
         sodipodi:role="line"
         id="tspan3191" />
      <tspan
         style="font-size:12.5px;font-variant:normal;font-weight:normal;writing-mode:lr-tb;fill:#231f20;fill-opacity:1;fill-rule:nonzero;stroke:none;font-family:Times New Roman;-inkscape-font-specification:Times-Roman"
         x="126.80131 129.9263 133.0513"
         y="380.88272"
         sodipodi:role="line"
         id="tspan3193">...</tspan>
    </text>
    <text
       style="font-size:15px"
       y="415.01398"
       x="396.27631"
       id="text3195">
      <tspan
         style="font-size:10px;font-style:italic;font-variant:normal;writing-mode:lr-tb;fill:#231f20;fill-opacity:1;fill-rule:nonzero;stroke:none;font-family:Times New Roman;-inkscape-font-specification:Times-Italic"
         x="396.27631"
         y="415.01398"
         id="tspan3197">n</tspan>
    </text>
    <path
       inkscape:connector-curvature="0"
       d="m 343.37756,360.43145 1.25,0 0,43.48 -1.25,0 0,-43.48 z m -10.7525,0 1.25,0 0,43.48 -1.25,0 0,-43.48 z m -10.75125,0 1.25,0 0,43.48 -1.25,0 0,-43.48 z m -10.7525,0 1.25,0 0,43.48 -1.25,0 0,-43.48 z m -10.75375,0 1.25,0 0,43.48 -1.25,0 0,-43.48 z m -10.75375,0 1.25,0 0,43.48 -1.25,0 0,-43.48 z m -10.74875,0 1.25,0 0,43.48 -1.25,0 0,-43.48 z m -10.75375,0 1.25,0 0,43.48 -1.25,0 0,-43.48 z m -10.7525,0 1.25,0 0,43.48 -1.25,0 0,-43.48 z m -10.75375,0 1.25,0 0,43.48 -1.25,0 0,-43.48 z"
       style="fill:#231f20;fill-opacity:1;fill-rule:nonzero;stroke:none"
       id="path3207" />
    <g
       id="g3323"
       transform="matrix(1.25,0,0,-1.25,193.46381,405.66521)">
      <path
         inkscape:connector-curvature="0"
         d="M 0,0 C 0.828,0 1.5,0.671 1.5,1.5 1.5,2.328 0.828,3 0,3 -0.829,3 -1.5,2.328 -1.5,1.5 -1.5,0.671 -0.829,0 0,0"
         style="fill:#231f20;fill-opacity:1;fill-rule:nonzero;stroke:none"
         id="path3325" />
    </g>
    <g
       id="g3327"
       transform="matrix(1.25,0,0,-1.25,193.46381,405.66521)">
      <path
         inkscape:connector-curvature="0"
         d="M 0,0 0,0.25 C 0.69,0.251 1.249,0.809 1.25,1.5 1.249,2.19 0.69,2.749 0,2.75 -0.691,2.749 -1.249,2.19 -1.25,1.5 -1.249,0.809 -0.691,0.251 0,0.25 L 0,0 0,-0.25 c -0.967,0 -1.75,0.783 -1.75,1.75 0,0.966 0.783,1.75 1.75,1.75 C 0.966,3.25 1.75,2.466 1.75,1.5 1.75,0.533 0.966,-0.25 0,-0.25 L 0,0 z"
         style="fill:#231f20;fill-opacity:1;fill-rule:nonzero;stroke:none"
         id="path3329" />
    </g>
    <g
       id="g3331"
       transform="matrix(1.25,0,0,-1.25,182.7138,405.66521)">
      <path
         inkscape:connector-curvature="0"
         d="M 0,0 C 0.828,0 1.5,0.671 1.5,1.5 1.5,2.328 0.828,3 0,3 -0.829,3 -1.5,2.328 -1.5,1.5 -1.5,0.671 -0.829,0 0,0"
         style="fill:#231f20;fill-opacity:1;fill-rule:nonzero;stroke:none"
         id="path3333" />
    </g>
    <g
       id="g3335"
       transform="matrix(1.25,0,0,-1.25,182.7138,405.66521)">
      <path
         inkscape:connector-curvature="0"
         d="M 0,0 0,0.25 C 0.69,0.251 1.249,0.809 1.25,1.5 1.249,2.19 0.69,2.749 0,2.75 -0.691,2.749 -1.249,2.19 -1.25,1.5 -1.249,0.809 -0.691,0.251 0,0.25 L 0,0 0,-0.25 c -0.967,0 -1.75,0.783 -1.75,1.75 0,0.966 0.783,1.75 1.75,1.75 C 0.966,3.25 1.75,2.466 1.75,1.5 1.75,0.533 0.966,-0.25 0,-0.25 L 0,0 z"
         style="fill:#231f20;fill-opacity:1;fill-rule:nonzero;stroke:none"
         id="path3337" />
    </g>
    <g
       id="g3339"
       transform="matrix(1.25,0,0,-1.25,171.96381,405.66521)">
      <path
         inkscape:connector-curvature="0"
         d="M 0,0 C 0.828,0 1.5,0.671 1.5,1.5 1.5,2.328 0.828,3 0,3 -0.829,3 -1.5,2.328 -1.5,1.5 -1.5,0.671 -0.829,0 0,0"
         style="fill:#231f20;fill-opacity:1;fill-rule:nonzero;stroke:none"
         id="path3341" />
    </g>
    <g
       id="g3343"
       transform="matrix(1.25,0,0,-1.25,171.96381,405.66521)">
      <path
         inkscape:connector-curvature="0"
         d="M 0,0 0,0.25 C 0.69,0.251 1.249,0.809 1.25,1.5 1.249,2.19 0.69,2.749 0,2.75 -0.691,2.749 -1.249,2.19 -1.25,1.5 -1.249,0.809 -0.691,0.251 0,0.25 L 0,0 0,-0.25 c -0.967,0 -1.75,0.783 -1.75,1.75 0,0.966 0.783,1.75 1.75,1.75 C 0.966,3.25 1.75,2.466 1.75,1.5 1.75,0.533 0.966,-0.25 0,-0.25 L 0,0 z"
         style="fill:#231f20;fill-opacity:1;fill-rule:nonzero;stroke:none"
         id="path3345" />
    </g>
    <g
       id="g3347"
       transform="matrix(1.25,0,0,-1.25,161.21007,405.66521)">
      <path
         inkscape:connector-curvature="0"
         d="M 0,0 C 0.828,0 1.5,0.671 1.5,1.5 1.5,2.328 0.828,3 0,3 -0.828,3 -1.5,2.328 -1.5,1.5 -1.5,0.671 -0.828,0 0,0"
         style="fill:#231f20;fill-opacity:1;fill-rule:nonzero;stroke:none"
         id="path3349" />
    </g>
    <g
       id="g3351"
       transform="matrix(1.25,0,0,-1.25,161.21007,405.66521)">
      <path
         inkscape:connector-curvature="0"
         d="M 0,0 0,0.25 C 0.69,0.251 1.249,0.809 1.25,1.5 1.249,2.19 0.69,2.749 0,2.75 -0.69,2.749 -1.249,2.19 -1.25,1.5 -1.249,0.809 -0.69,0.251 0,0.25 L 0,0 0,-0.25 c -0.966,0 -1.75,0.783 -1.75,1.75 0,0.966 0.784,1.75 1.75,1.75 C 0.966,3.25 1.75,2.466 1.75,1.5 1.75,0.533 0.966,-0.25 0,-0.25 L 0,0 z"
         style="fill:#231f20;fill-opacity:1;fill-rule:nonzero;stroke:none"
         id="path3353" />
    </g>
    <g
       id="g3355"
       transform="matrix(1.25,0,0,-1.25,150.45756,405.66521)">
      <path
         inkscape:connector-curvature="0"
         d="M 0,0 C 0.828,0 1.5,0.671 1.5,1.5 1.5,2.328 0.828,3 0,3 -0.829,3 -1.5,2.328 -1.5,1.5 -1.5,0.671 -0.829,0 0,0"
         style="fill:#231f20;fill-opacity:1;fill-rule:nonzero;stroke:none"
         id="path3357" />
    </g>
    <g
       id="g3359"
       transform="matrix(1.25,0,0,-1.25,150.45756,405.66521)">
      <path
         inkscape:connector-curvature="0"
         d="M 0,0 0,0.25 C 0.69,0.251 1.249,0.809 1.25,1.5 1.249,2.19 0.69,2.749 0,2.75 -0.691,2.749 -1.249,2.19 -1.25,1.5 -1.249,0.809 -0.691,0.251 0,0.25 L 0,0 0,-0.25 c -0.967,0 -1.75,0.783 -1.75,1.75 0,0.966 0.783,1.75 1.75,1.75 C 0.966,3.25 1.75,2.466 1.75,1.5 1.75,0.533 0.966,-0.25 0,-0.25 L 0,0 z"
         style="fill:#231f20;fill-opacity:1;fill-rule:nonzero;stroke:none"
         id="path3361" />
    </g>
    <g
       id="g3363"
       transform="matrix(1.25,0,0,-1.25,247.22631,362.30646)">
      <path
         inkscape:connector-curvature="0"
         d="M 0,0 C 0.828,0 1.5,0.672 1.5,1.5 1.5,2.329 0.828,3 0,3 -0.828,3 -1.5,2.329 -1.5,1.5 -1.5,0.672 -0.828,0 0,0"
         style="fill:#231f20;fill-opacity:1;fill-rule:nonzero;stroke:none"
         id="path3365" />
    </g>
    <g
       id="g3367"
       transform="matrix(1.25,0,0,-1.25,247.22631,362.30646)">
      <path
         inkscape:connector-curvature="0"
         d="M 0,0 0,0.25 C 0.69,0.251 1.249,0.81 1.25,1.5 1.249,2.191 0.69,2.749 0,2.75 -0.69,2.749 -1.249,2.191 -1.25,1.5 -1.249,0.81 -0.69,0.251 0,0.25 L 0,0 0,-0.25 c -0.966,0 -1.75,0.784 -1.75,1.75 0,0.967 0.784,1.75 1.75,1.75 C 0.966,3.25 1.75,2.467 1.75,1.5 1.75,0.534 0.966,-0.25 0,-0.25 L 0,0 z"
         style="fill:#231f20;fill-opacity:1;fill-rule:nonzero;stroke:none"
         id="path3369" />
    </g>
    <g
       id="g3371"
       transform="matrix(1.25,0,0,-1.25,236.47631,405.66521)">
      <path
         inkscape:connector-curvature="0"
         d="M 0,0 C 0.829,0 1.5,0.671 1.5,1.5 1.5,2.328 0.829,3 0,3 -0.828,3 -1.5,2.328 -1.5,1.5 -1.5,0.671 -0.828,0 0,0"
         style="fill:#231f20;fill-opacity:1;fill-rule:nonzero;stroke:none"
         id="path3373" />
    </g>
    <g
       id="g3375"
       transform="matrix(1.25,0,0,-1.25,236.47631,405.66521)">
      <path
         inkscape:connector-curvature="0"
         d="M 0,0 0,0.25 C 0.691,0.251 1.249,0.809 1.25,1.5 1.249,2.19 0.691,2.749 0,2.75 -0.69,2.749 -1.249,2.19 -1.25,1.5 -1.249,0.809 -0.69,0.251 0,0.25 L 0,0 0,-0.25 c -0.966,0 -1.75,0.783 -1.75,1.75 0,0.966 0.784,1.75 1.75,1.75 C 0.967,3.25 1.75,2.466 1.75,1.5 1.75,0.533 0.967,-0.25 0,-0.25 L 0,0 z"
         style="fill:#231f20;fill-opacity:1;fill-rule:nonzero;stroke:none"
         id="path3377" />
    </g>
    <g
       id="g3379"
       transform="matrix(1.25,0,0,-1.25,225.72631,405.66521)">
      <path
         inkscape:connector-curvature="0"
         d="M 0,0 C 0.829,0 1.5,0.671 1.5,1.5 1.5,2.328 0.829,3 0,3 -0.828,3 -1.5,2.328 -1.5,1.5 -1.5,0.671 -0.828,0 0,0"
         style="fill:#231f20;fill-opacity:1;fill-rule:nonzero;stroke:none"
         id="path3381" />
    </g>
    <g
       id="g3383"
       transform="matrix(1.25,0,0,-1.25,225.72631,405.66521)">
      <path
         inkscape:connector-curvature="0"
         d="M 0,0 0,0.25 C 0.691,0.251 1.249,0.809 1.25,1.5 1.249,2.19 0.691,2.749 0,2.75 -0.69,2.749 -1.249,2.19 -1.25,1.5 -1.249,0.809 -0.69,0.251 0,0.25 L 0,0 0,-0.25 c -0.966,0 -1.75,0.783 -1.75,1.75 0,0.966 0.784,1.75 1.75,1.75 C 0.967,3.25 1.75,2.466 1.75,1.5 1.75,0.533 0.967,-0.25 0,-0.25 L 0,0 z"
         style="fill:#231f20;fill-opacity:1;fill-rule:nonzero;stroke:none"
         id="path3385" />
    </g>
    <g
       id="g3387"
       transform="matrix(1.25,0,0,-1.25,214.9738,405.66521)">
      <path
         inkscape:connector-curvature="0"
         d="M 0,0 C 0.828,0 1.5,0.671 1.5,1.5 1.5,2.328 0.828,3 0,3 -0.829,3 -1.5,2.328 -1.5,1.5 -1.5,0.671 -0.829,0 0,0"
         style="fill:#231f20;fill-opacity:1;fill-rule:nonzero;stroke:none"
         id="path3389" />
    </g>
    <g
       id="g3391"
       transform="matrix(1.25,0,0,-1.25,214.9738,405.66521)">
      <path
         inkscape:connector-curvature="0"
         d="M 0,0 0,0.25 C 0.69,0.251 1.249,0.809 1.25,1.5 1.249,2.19 0.69,2.749 0,2.75 -0.691,2.749 -1.249,2.19 -1.25,1.5 -1.249,0.809 -0.691,0.251 0,0.25 L 0,0 0,-0.25 c -0.967,0 -1.75,0.783 -1.75,1.75 0,0.966 0.783,1.75 1.75,1.75 C 0.966,3.25 1.75,2.466 1.75,1.5 1.75,0.533 0.966,-0.25 0,-0.25 L 0,0 z"
         style="fill:#231f20;fill-opacity:1;fill-rule:nonzero;stroke:none"
         id="path3393" />
    </g>
    <g
       id="g3395"
       transform="matrix(1.25,0,0,-1.25,204.22006,405.66521)">
      <path
         inkscape:connector-curvature="0"
         d="M 0,0 C 0.829,0 1.5,0.671 1.5,1.5 1.5,2.328 0.829,3 0,3 -0.829,3 -1.5,2.328 -1.5,1.5 -1.5,0.671 -0.829,0 0,0"
         style="fill:#231f20;fill-opacity:1;fill-rule:nonzero;stroke:none"
         id="path3397" />
    </g>
    <g
       id="g3399"
       transform="matrix(1.25,0,0,-1.25,204.22006,405.66521)">
      <path
         inkscape:connector-curvature="0"
         d="M 0,0 0,0.25 C 0.691,0.251 1.249,0.809 1.25,1.5 1.249,2.19 0.691,2.749 0,2.75 -0.691,2.749 -1.249,2.19 -1.25,1.5 -1.249,0.809 -0.691,0.251 0,0.25 L 0,0 0,-0.25 c -0.967,0 -1.75,0.783 -1.75,1.75 0,0.966 0.783,1.75 1.75,1.75 C 0.967,3.25 1.75,2.466 1.75,1.5 1.75,0.533 0.967,-0.25 0,-0.25 L 0,0 z"
         style="fill:#231f20;fill-opacity:1;fill-rule:nonzero;stroke:none"
         id="path3401" />
    </g>
    <g
       id="g3563"
       transform="matrix(1.25,0,0,-1.25,300.98881,362.30646)">
      <path
         inkscape:connector-curvature="0"
         d="M 0,0 C 0.829,0 1.5,0.672 1.5,1.5 1.5,2.329 0.829,3 0,3 -0.827,3 -1.5,2.329 -1.5,1.5 -1.5,0.672 -0.827,0 0,0"
         style="fill:#231f20;fill-opacity:1;fill-rule:nonzero;stroke:none"
         id="path3565" />
    </g>
    <g
       id="g3567"
       transform="matrix(1.25,0,0,-1.25,300.98881,362.30646)">
      <path
         inkscape:connector-curvature="0"
         d="M 0,0 0,0.25 C 0.691,0.251 1.249,0.81 1.25,1.5 1.249,2.191 0.691,2.749 0,2.75 -0.689,2.749 -1.249,2.19 -1.25,1.5 -1.249,0.81 -0.689,0.251 0,0.25 L 0,0 0,-0.25 c -0.965,0 -1.75,0.783 -1.75,1.75 0,0.967 0.785,1.75 1.75,1.75 C 0.967,3.25 1.75,2.467 1.75,1.5 1.75,0.534 0.967,-0.25 0,-0.25 L 0,0 z"
         style="fill:#231f20;fill-opacity:1;fill-rule:nonzero;stroke:none"
         id="path3569" />
    </g>
    <g
       id="g3571"
       transform="matrix(1.25,0,0,-1.25,290.23881,362.30646)">
      <path
         inkscape:connector-curvature="0"
         d="M 0,0 C 0.829,0 1.5,0.672 1.5,1.5 1.5,2.329 0.829,3 0,3 -0.828,3 -1.5,2.329 -1.5,1.5 -1.5,0.672 -0.828,0 0,0"
         style="fill:#231f20;fill-opacity:1;fill-rule:nonzero;stroke:none"
         id="path3573" />
    </g>
    <g
       id="g3575"
       transform="matrix(1.25,0,0,-1.25,290.23881,362.30646)">
      <path
         inkscape:connector-curvature="0"
         d="M 0,0 0,0.25 C 0.691,0.251 1.249,0.81 1.25,1.5 1.249,2.191 0.691,2.749 0,2.75 -0.69,2.749 -1.249,2.191 -1.25,1.5 -1.249,0.81 -0.69,0.251 0,0.25 L 0,0 0,-0.25 c -0.966,0 -1.75,0.784 -1.75,1.75 0,0.967 0.784,1.75 1.75,1.75 C 0.967,3.25 1.75,2.467 1.75,1.5 1.75,0.534 0.967,-0.25 0,-0.25 L 0,0 z"
         style="fill:#231f20;fill-opacity:1;fill-rule:nonzero;stroke:none"
         id="path3577" />
    </g>
    <g
       id="g3579"
       transform="matrix(1.25,0,0,-1.25,279.49006,362.30646)">
      <path
         inkscape:connector-curvature="0"
         d="M 0,0 C 0.828,0 1.5,0.672 1.5,1.5 1.5,2.329 0.828,3 0,3 -0.829,3 -1.5,2.329 -1.5,1.5 -1.5,0.672 -0.829,0 0,0"
         style="fill:#231f20;fill-opacity:1;fill-rule:nonzero;stroke:none"
         id="path3581" />
    </g>
    <g
       id="g3583"
       transform="matrix(1.25,0,0,-1.25,279.49006,362.30646)">
      <path
         inkscape:connector-curvature="0"
         d="M 0,0 0,0.25 C 0.69,0.251 1.249,0.81 1.25,1.5 1.249,2.191 0.69,2.749 0,2.75 -0.691,2.749 -1.249,2.191 -1.25,1.5 -1.249,0.81 -0.691,0.251 0,0.25 L 0,0 0,-0.25 c -0.967,0 -1.75,0.784 -1.75,1.75 0,0.967 0.783,1.75 1.75,1.75 C 0.966,3.25 1.75,2.467 1.75,1.5 1.75,0.534 0.966,-0.25 0,-0.25 L 0,0 z"
         style="fill:#231f20;fill-opacity:1;fill-rule:nonzero;stroke:none"
         id="path3585" />
    </g>
    <g
       id="g3587"
       transform="matrix(1.25,0,0,-1.25,268.73631,362.30646)">
      <path
         inkscape:connector-curvature="0"
         d="M 0,0 C 0.828,0 1.5,0.672 1.5,1.5 1.5,2.329 0.828,3 0,3 -0.828,3 -1.5,2.329 -1.5,1.5 -1.5,0.672 -0.828,0 0,0"
         style="fill:#231f20;fill-opacity:1;fill-rule:nonzero;stroke:none"
         id="path3589" />
    </g>
    <g
       id="g3591"
       transform="matrix(1.25,0,0,-1.25,268.73631,362.30646)">
      <path
         inkscape:connector-curvature="0"
         d="M 0,0 0,0.25 C 0.69,0.251 1.249,0.81 1.25,1.5 1.249,2.191 0.69,2.749 0,2.75 -0.69,2.749 -1.249,2.191 -1.25,1.5 -1.249,0.81 -0.69,0.251 0,0.25 L 0,0 0,-0.25 c -0.966,0 -1.75,0.784 -1.75,1.75 0,0.967 0.784,1.75 1.75,1.75 C 0.966,3.25 1.75,2.467 1.75,1.5 1.75,0.534 0.966,-0.25 0,-0.25 L 0,0 z"
         style="fill:#231f20;fill-opacity:1;fill-rule:nonzero;stroke:none"
         id="path3593" />
    </g>
    <g
       id="g3595"
       transform="matrix(1.25,0,0,-1.25,257.98381,362.30646)">
      <path
         inkscape:connector-curvature="0"
         d="M 0,0 C 0.828,0 1.5,0.672 1.5,1.5 1.5,2.329 0.828,3 0,3 -0.829,3 -1.5,2.329 -1.5,1.5 -1.5,0.672 -0.829,0 0,0"
         style="fill:#231f20;fill-opacity:1;fill-rule:nonzero;stroke:none"
         id="path3597" />
    </g>
    <g
       id="g3599"
       transform="matrix(1.25,0,0,-1.25,257.98381,362.30646)">
      <path
         inkscape:connector-curvature="0"
         d="M 0,0 0,0.25 C 0.69,0.251 1.249,0.81 1.25,1.5 1.249,2.191 0.69,2.749 0,2.75 -0.691,2.749 -1.249,2.191 -1.25,1.5 -1.249,0.81 -0.691,0.251 0,0.25 L 0,0 0,-0.25 c -0.967,0 -1.75,0.784 -1.75,1.75 0,0.967 0.783,1.75 1.75,1.75 C 0.966,3.25 1.75,2.467 1.75,1.5 1.75,0.534 0.966,-0.25 0,-0.25 L 0,0 z"
         style="fill:#231f20;fill-opacity:1;fill-rule:nonzero;stroke:none"
         id="path3601" />
    </g>
    <g
       id="g3603"
       transform="matrix(1.25,0,0,-1.25,344.00256,362.30646)">
      <path
         inkscape:connector-curvature="0"
         d="M 0,0 C 0.828,0 1.5,0.672 1.5,1.5 1.5,2.329 0.828,3 0,3 -0.828,3 -1.5,2.329 -1.5,1.5 -1.5,0.672 -0.828,0 0,0"
         style="fill:#231f20;fill-opacity:1;fill-rule:nonzero;stroke:none"
         id="path3605" />
    </g>
    <g
       id="g3607"
       transform="matrix(1.25,0,0,-1.25,344.00256,362.30646)">
      <path
         inkscape:connector-curvature="0"
         d="M 0,0 0,0.25 C 0.69,0.251 1.249,0.81 1.25,1.5 1.249,2.191 0.69,2.749 0,2.75 -0.69,2.749 -1.249,2.191 -1.25,1.5 -1.249,0.81 -0.69,0.251 0,0.25 L 0,0 0,-0.25 c -0.966,0 -1.75,0.784 -1.75,1.75 0,0.967 0.784,1.75 1.75,1.75 C 0.966,3.25 1.75,2.467 1.75,1.5 1.75,0.534 0.966,-0.25 0,-0.25 L 0,0 z"
         style="fill:#231f20;fill-opacity:1;fill-rule:nonzero;stroke:none"
         id="path3609" />
    </g>
    <g
       id="g3611"
       transform="matrix(1.25,0,0,-1.25,333.25381,362.30646)">
      <path
         inkscape:connector-curvature="0"
         d="M 0,0 C 0.828,0 1.5,0.672 1.5,1.5 1.5,2.329 0.828,3 0,3 -0.83,3 -1.5,2.329 -1.5,1.5 -1.5,0.672 -0.83,0 0,0"
         style="fill:#231f20;fill-opacity:1;fill-rule:nonzero;stroke:none"
         id="path3613" />
    </g>
    <g
       id="g3615"
       transform="matrix(1.25,0,0,-1.25,333.25381,362.30646)">
      <path
         inkscape:connector-curvature="0"
         d="M 0,0 0,0.25 C 0.69,0.251 1.249,0.81 1.25,1.5 1.249,2.191 0.69,2.749 0,2.75 -0.692,2.75 -1.25,2.191 -1.25,1.5 -1.25,0.81 -0.692,0.251 0,0.25 L 0,0 0,-0.25 c -0.968,0 -1.75,0.784 -1.75,1.75 C -1.748,2.467 -0.968,3.248 0,3.25 0.966,3.25 1.75,2.467 1.75,1.5 1.75,0.534 0.966,-0.25 0,-0.25 L 0,0 z"
         style="fill:#231f20;fill-opacity:1;fill-rule:nonzero;stroke:none"
         id="path3617" />
    </g>
    <g
       id="g3619"
       transform="matrix(1.25,0,0,-1.25,322.49881,362.30646)">
      <path
         inkscape:connector-curvature="0"
         d="M 0,0 C 0.829,0 1.5,0.672 1.5,1.5 1.5,2.329 0.829,3 0,3 -0.828,3 -1.5,2.329 -1.5,1.5 -1.5,0.672 -0.828,0 0,0"
         style="fill:#231f20;fill-opacity:1;fill-rule:nonzero;stroke:none"
         id="path3621" />
    </g>
    <g
       id="g3623"
       transform="matrix(1.25,0,0,-1.25,322.49881,362.30646)">
      <path
         inkscape:connector-curvature="0"
         d="M 0,0 0,0.25 C 0.691,0.251 1.249,0.81 1.25,1.5 1.249,2.191 0.691,2.749 0,2.75 -0.69,2.749 -1.249,2.191 -1.25,1.5 -1.249,0.81 -0.69,0.251 0,0.25 L 0,0 0,-0.25 c -0.966,0 -1.75,0.784 -1.75,1.75 0,0.967 0.784,1.75 1.75,1.75 C 0.967,3.25 1.75,2.467 1.75,1.5 1.75,0.534 0.967,-0.25 0,-0.25 L 0,0 z"
         style="fill:#231f20;fill-opacity:1;fill-rule:nonzero;stroke:none"
         id="path3625" />
    </g>
    <g
       id="g3627"
       transform="matrix(1.25,0,0,-1.25,311.7463,362.30646)">
      <path
         inkscape:connector-curvature="0"
         d="M 0,0 C 0.828,0 1.5,0.672 1.5,1.5 1.5,2.329 0.828,3 0,3 -0.829,3 -1.5,2.329 -1.5,1.5 -1.5,0.672 -0.829,0 0,0"
         style="fill:#231f20;fill-opacity:1;fill-rule:nonzero;stroke:none"
         id="path3629" />
    </g>
  </g>
</svg>
