<?xml version="1.0" encoding="UTF-8" standalone="no"?>
<!-- Created with Inkscape (http://www.inkscape.org/) -->

<svg
   xmlns:dc="http://purl.org/dc/elements/1.1/"
   xmlns:cc="http://creativecommons.org/ns#"
   xmlns:rdf="http://www.w3.org/1999/02/22-rdf-syntax-ns#"
   xmlns:svg="http://www.w3.org/2000/svg"
   xmlns="http://www.w3.org/2000/svg"
   xmlns:sodipodi="http://sodipodi.sourceforge.net/DTD/sodipodi-0.dtd"
   xmlns:inkscape="http://www.inkscape.org/namespaces/inkscape"
   width="441.7709"
   height="119.0625"
   id="svg8494"
   version="1.1"
   inkscape:version="0.48.3.1 r9886"
   sodipodi:docname="Documento nuevo 24">
  <defs
     id="defs8496">
    <clipPath
       clipPathUnits="userSpaceOnUse"
       id="clipPath4387">
      <path
         inkscape:connector-curvature="0"
         d="m 488.243,693.24 -354.068,0 0,-495.75 354.068,0 0,495.75 z"
         id="path4389" />
    </clipPath>
    <clipPath
       clipPathUnits="userSpaceOnUse"
       id="clipPath4539">
      <path
         inkscape:connector-curvature="0"
         d="m 488.243,693.24 -354.068,0 0,-495.75 354.068,0 0,495.75 z"
         id="path4541" />
    </clipPath>
    <clipPath
       clipPathUnits="userSpaceOnUse"
       id="clipPath4509">
      <path
         inkscape:connector-curvature="0"
         d="m 488.243,693.24 -354.068,0 0,-495.75 354.068,0 0,495.75 z"
         id="path4511" />
    </clipPath>
  </defs>
  <sodipodi:namedview
     id="base"
     pagecolor="#ffffff"
     bordercolor="#666666"
     borderopacity="1.0"
     inkscape:pageopacity="0.0"
     inkscape:pageshadow="2"
     inkscape:zoom="1.4"
     inkscape:cx="214.75569"
     inkscape:cy="30.353726"
     inkscape:document-units="px"
     inkscape:current-layer="layer1"
     showgrid="false"
     fit-margin-top="0"
     fit-margin-left="0"
     fit-margin-right="0"
     fit-margin-bottom="0"
     inkscape:window-width="1920"
     inkscape:window-height="1021"
     inkscape:window-x="0"
     inkscape:window-y="27"
     inkscape:window-maximized="1" />
  <metadata
     id="metadata8499">
    <rdf:RDF>
      <cc:Work
         rdf:about="">
        <dc:format>image/svg+xml</dc:format>
        <dc:type
           rdf:resource="http://purl.org/dc/dcmitype/StillImage" />
        <dc:title></dc:title>
      </cc:Work>
    </rdf:RDF>
  </metadata>
  <g
     inkscape:label="Capa 1"
     inkscape:groupmode="layer"
     id="layer1"
     transform="translate(-324.82883,-338.07647)">
    <text
       style="font-size:15px"
       y="352.24387"
       x="648.28381"
       id="text3519">
      <tspan
         style="font-size:10px;font-style:italic;font-variant:normal;writing-mode:lr-tb;fill:#231f20;fill-opacity:1;fill-rule:nonzero;stroke:none;font-family:Times New Roman;-inkscape-font-specification:TimesTen-Italic"
         x="648.28381"
         y="352.24387"
         id="tspan3521">y</tspan>
    </text>
    <text
       style="font-size:15px"
       y="352.24387"
       x="653.28381"
       id="text3523">
      <tspan
         style="font-size:10px;font-variant:normal;font-weight:normal;writing-mode:lr-tb;fill:#231f20;fill-opacity:1;fill-rule:nonzero;stroke:none;font-family:Times New Roman;-inkscape-font-specification:TimesTen-Roman"
         x="653.28381"
         y="352.24387"
         id="tspan3525">[</tspan>
    </text>
    <text
       style="font-size:15px"
       y="352.24387"
       x="656.61383"
       id="text3527">
      <tspan
         style="font-size:10px;font-style:italic;font-variant:normal;writing-mode:lr-tb;fill:#231f20;fill-opacity:1;fill-rule:nonzero;stroke:none;font-family:Times New Roman;-inkscape-font-specification:TimesTen-Italic"
         x="656.61383"
         y="352.24387"
         id="tspan3529">n</tspan>
    </text>
    <text
       style="font-size:15px"
       y="352.24387"
       x="662.17383"
       id="text3531">
      <tspan
         style="font-size:10px;font-variant:normal;font-weight:normal;writing-mode:lr-tb;fill:#231f20;fill-opacity:1;fill-rule:nonzero;stroke:none;font-family:Times New Roman;-inkscape-font-specification:TimesTen-Roman"
         x="662.17383 665.50385 668.00385 674.00385"
         y="352.24387"
         sodipodi:role="line"
         id="tspan3533">] =</tspan>
    </text>
    <text
       style="font-size:15px"
       y="352.24387"
       x="676.50385"
       id="text3535">
      <tspan
         style="font-size:10px;font-style:italic;font-variant:normal;writing-mode:lr-tb;fill:#231f20;fill-opacity:1;fill-rule:nonzero;stroke:none;font-family:Times New Roman;-inkscape-font-specification:TimesTen-Italic"
         x="676.50385"
         y="352.24387"
         id="tspan3537">y</tspan>
    </text>
    <text
       style="font-size:15px"
       y="354.74399"
       x="681.50507"
       id="text3539">
      <tspan
         style="font-size:7.5px;font-variant:normal;font-weight:normal;writing-mode:lr-tb;fill:#231f20;fill-opacity:1;fill-rule:nonzero;stroke:none;font-family:Times New Roman;-inkscape-font-specification:TimesTen-Roman"
         x="681.50507 685.25507"
         y="354.74399"
         sodipodi:role="line"
         id="tspan3541">–2</tspan>
    </text>
    <text
       style="font-size:15px"
       y="352.24399"
       x="689.75507"
       id="text3543">
      <tspan
         style="font-size:10px;font-variant:normal;font-weight:normal;writing-mode:lr-tb;fill:#231f20;fill-opacity:1;fill-rule:nonzero;stroke:none;font-family:Times New Roman;-inkscape-font-specification:TimesTen-Roman"
         x="689.75507"
         y="352.24399"
         id="tspan3545">[</tspan>
    </text>
    <text
       style="font-size:15px"
       y="352.24399"
       x="693.08508"
       id="text3547">
      <tspan
         style="font-size:10px;font-style:italic;font-variant:normal;writing-mode:lr-tb;fill:#231f20;fill-opacity:1;fill-rule:nonzero;stroke:none;font-family:Times New Roman;-inkscape-font-specification:TimesTen-Italic"
         x="693.08508"
         y="352.24399"
         id="tspan3549">n</tspan>
    </text>
    <text
       style="font-size:15px"
       y="352.24399"
       x="698.64508"
       id="text3551">
      <tspan
         style="font-size:10px;font-variant:normal;font-weight:normal;writing-mode:lr-tb;fill:#231f20;fill-opacity:1;fill-rule:nonzero;stroke:none;font-family:Times New Roman;-inkscape-font-specification:TimesTen-Roman"
         x="698.64508"
         y="352.24399"
         id="tspan3553">]</tspan>
    </text>
    <text
       style="font-size:15px"
       y="352.24399"
       x="704.4751"
       id="text3555">
      <tspan
         style="font-size:10px;font-variant:normal;font-weight:normal;writing-mode:lr-tb;fill:#231f20;fill-opacity:1;fill-rule:nonzero;stroke:none;font-family:Times New Roman;-inkscape-font-specification:TimesTen-Roman"
         x="704.4751"
         y="352.24399"
         id="tspan3557">+</tspan>
    </text>
    <text
       style="font-size:15px"
       y="352.24399"
       x="712.9751"
       id="text3559">
      <tspan
         style="font-size:10px;font-style:italic;font-variant:normal;writing-mode:lr-tb;fill:#231f20;fill-opacity:1;fill-rule:nonzero;stroke:none;font-family:Times New Roman;-inkscape-font-specification:TimesTen-Italic"
         x="712.9751"
         y="352.24399"
         id="tspan3561">y</tspan>
    </text>
    <text
       style="font-size:15px"
       y="354.74399"
       x="717.9751"
       id="text3563">
      <tspan
         style="font-size:7.5px;font-variant:normal;font-weight:normal;writing-mode:lr-tb;fill:#231f20;fill-opacity:1;fill-rule:nonzero;stroke:none;font-family:Times New Roman;-inkscape-font-specification:TimesTen-Roman"
         x="717.9751"
         y="354.74399"
         id="tspan3565">0</tspan>
    </text>
    <text
       style="font-size:15px"
       y="352.24399"
       x="722.4751"
       id="text3567">
      <tspan
         style="font-size:10px;font-variant:normal;font-weight:normal;writing-mode:lr-tb;fill:#231f20;fill-opacity:1;fill-rule:nonzero;stroke:none;font-family:Times New Roman;-inkscape-font-specification:TimesTen-Roman"
         x="722.4751"
         y="352.24399"
         id="tspan3569">[</tspan>
    </text>
    <text
       style="font-size:15px"
       y="352.24399"
       x="725.80511"
       id="text3571">
      <tspan
         style="font-size:10px;font-style:italic;font-variant:normal;writing-mode:lr-tb;fill:#231f20;fill-opacity:1;fill-rule:nonzero;stroke:none;font-family:Times New Roman;-inkscape-font-specification:TimesTen-Italic"
         x="725.80511"
         y="352.24399"
         id="tspan3573">n</tspan>
    </text>
    <text
       style="font-size:15px"
       y="352.24399"
       x="731.36511"
       id="text3575">
      <tspan
         style="font-size:10px;font-variant:normal;font-weight:normal;writing-mode:lr-tb;fill:#231f20;fill-opacity:1;fill-rule:nonzero;stroke:none;font-family:Times New Roman;-inkscape-font-specification:TimesTen-Roman"
         x="731.36511 734.69507 737.19507"
         y="352.24399"
         sodipodi:role="line"
         id="tspan3577">] +</tspan>
    </text>
    <text
       style="font-size:15px"
       y="352.24399"
       x="745.69507"
       id="text3579">
      <tspan
         style="font-size:10px;font-style:italic;font-variant:normal;writing-mode:lr-tb;fill:#231f20;fill-opacity:1;fill-rule:nonzero;stroke:none;font-family:Times New Roman;-inkscape-font-specification:TimesTen-Italic"
         x="745.69507"
         y="352.24399"
         id="tspan3581">y</tspan>
    </text>
    <text
       style="font-size:15px"
       y="354.74399"
       x="750.69507"
       id="text3583">
      <tspan
         style="font-size:7.5px;font-variant:normal;font-weight:normal;writing-mode:lr-tb;fill:#231f20;fill-opacity:1;fill-rule:nonzero;stroke:none;font-family:Times New Roman;-inkscape-font-specification:TimesTen-Roman"
         x="750.69507"
         y="354.74399"
         id="tspan3585">3</tspan>
    </text>
    <text
       style="font-size:15px"
       y="352.24399"
       x="755.19507"
       id="text3587">
      <tspan
         style="font-size:10px;font-variant:normal;font-weight:normal;writing-mode:lr-tb;fill:#231f20;fill-opacity:1;fill-rule:nonzero;stroke:none;font-family:Times New Roman;-inkscape-font-specification:TimesTen-Roman"
         x="755.19507"
         y="352.24399"
         id="tspan3589">[</tspan>
    </text>
    <text
       style="font-size:15px"
       y="352.24399"
       x="758.52509"
       id="text3591">
      <tspan
         style="font-size:10px;font-style:italic;font-variant:normal;writing-mode:lr-tb;fill:#231f20;fill-opacity:1;fill-rule:nonzero;stroke:none;font-family:Times New Roman;-inkscape-font-specification:TimesTen-Italic"
         x="758.52509"
         y="352.24399"
         id="tspan3593">n</tspan>
    </text>
    <text
       style="font-size:15px"
       y="352.24399"
       x="764.08508"
       id="text3595">
      <tspan
         style="font-size:10px;font-variant:normal;font-weight:normal;writing-mode:lr-tb;fill:#231f20;fill-opacity:1;fill-rule:nonzero;stroke:none;font-family:Times New Roman;-inkscape-font-specification:TimesTen-Roman"
         x="764.08508"
         y="352.24399"
         id="tspan3597">]</tspan>
    </text>
    <text
       style="font-size:15px"
       y="352.24399"
       x="423.24509"
       id="text3599">
      <tspan
         style="font-size:10px;font-style:italic;font-variant:normal;writing-mode:lr-tb;fill:#231f20;fill-opacity:1;fill-rule:nonzero;stroke:none;font-family:Times New Roman;-inkscape-font-specification:TimesTen-Italic"
         x="423.24509"
         y="352.24399"
         id="tspan3601">x</tspan>
    </text>
    <text
       style="font-size:15px"
       y="352.24399"
       x="428.24509"
       id="text3603">
      <tspan
         style="font-size:10px;font-variant:normal;font-weight:normal;writing-mode:lr-tb;fill:#231f20;fill-opacity:1;fill-rule:nonzero;stroke:none;font-family:Times New Roman;-inkscape-font-specification:TimesTen-Roman"
         x="428.24509"
         y="352.24399"
         id="tspan3605">[</tspan>
    </text>
    <text
       style="font-size:15px"
       y="352.24399"
       x="431.57507"
       id="text3607">
      <tspan
         style="font-size:10px;font-style:italic;font-variant:normal;writing-mode:lr-tb;fill:#231f20;fill-opacity:1;fill-rule:nonzero;stroke:none;font-family:Times New Roman;-inkscape-font-specification:TimesTen-Italic"
         x="431.57507"
         y="352.24399"
         id="tspan3609">n</tspan>
    </text>
    <text
       style="font-size:15px"
       y="352.24399"
       x="437.13507"
       id="text3611">
      <tspan
         style="font-size:10px;font-variant:normal;font-weight:normal;writing-mode:lr-tb;fill:#231f20;fill-opacity:1;fill-rule:nonzero;stroke:none;font-family:Times New Roman;-inkscape-font-specification:TimesTen-Roman"
         x="437.13507 440.46509 442.96509 448.96509"
         y="352.24399"
         sodipodi:role="line"
         id="tspan3613">] =</tspan>
    </text>
    <text
       style="font-size:15px"
       y="352.24399"
       x="451.46509"
       id="text3615">
      <tspan
         style="font-size:10px;font-style:italic;font-variant:normal;writing-mode:lr-tb;fill:#231f20;fill-opacity:1;fill-rule:nonzero;stroke:none;font-family:Times New Roman;-inkscape-font-specification:TimesTen-Italic"
         x="451.46509"
         y="352.24399"
         id="tspan3617">x</tspan>
    </text>
    <text
       style="font-size:15px"
       y="354.74399"
       x="456.46384"
       id="text3619">
      <tspan
         style="font-size:7.5px;font-variant:normal;font-weight:normal;writing-mode:lr-tb;fill:#231f20;fill-opacity:1;fill-rule:nonzero;stroke:none;font-family:Times New Roman;-inkscape-font-specification:TimesTen-Roman"
         x="456.46384 460.21384"
         y="354.74399"
         sodipodi:role="line"
         id="tspan3621">–2</tspan>
    </text>
    <text
       style="font-size:15px"
       y="352.24399"
       x="464.71384"
       id="text3623">
      <tspan
         style="font-size:10px;font-variant:normal;font-weight:normal;writing-mode:lr-tb;fill:#231f20;fill-opacity:1;fill-rule:nonzero;stroke:none;font-family:Times New Roman;-inkscape-font-specification:TimesTen-Roman"
         x="464.71384"
         y="352.24399"
         id="tspan3625">[</tspan>
    </text>
    <text
       style="font-size:15px"
       y="352.24399"
       x="468.04382"
       id="text3627">
      <tspan
         style="font-size:10px;font-style:italic;font-variant:normal;writing-mode:lr-tb;fill:#231f20;fill-opacity:1;fill-rule:nonzero;stroke:none;font-family:Times New Roman;-inkscape-font-specification:TimesTen-Italic"
         x="468.04382"
         y="352.24399"
         id="tspan3629">n</tspan>
    </text>
    <text
       style="font-size:15px"
       y="352.24399"
       x="473.60382"
       id="text3631">
      <tspan
         style="font-size:10px;font-variant:normal;font-weight:normal;writing-mode:lr-tb;fill:#231f20;fill-opacity:1;fill-rule:nonzero;stroke:none;font-family:Times New Roman;-inkscape-font-specification:TimesTen-Roman"
         x="473.60382"
         y="352.24399"
         id="tspan3633">]</tspan>
    </text>
    <text
       style="font-size:15px"
       y="352.24399"
       x="479.43384"
       id="text3635">
      <tspan
         style="font-size:10px;font-variant:normal;font-weight:normal;writing-mode:lr-tb;fill:#231f20;fill-opacity:1;fill-rule:nonzero;stroke:none;font-family:Times New Roman;-inkscape-font-specification:TimesTen-Roman"
         x="479.43384"
         y="352.24399"
         id="tspan3637">+</tspan>
    </text>
    <text
       style="font-size:15px"
       y="352.24399"
       x="487.93384"
       id="text3639">
      <tspan
         style="font-size:10px;font-style:italic;font-variant:normal;writing-mode:lr-tb;fill:#231f20;fill-opacity:1;fill-rule:nonzero;stroke:none;font-family:Times New Roman;-inkscape-font-specification:TimesTen-Italic"
         x="487.93384"
         y="352.24399"
         id="tspan3641">x</tspan>
    </text>
    <text
       style="font-size:15px"
       y="354.74399"
       x="492.93259"
       id="text3643">
      <tspan
         style="font-size:7.5px;font-variant:normal;font-weight:normal;writing-mode:lr-tb;fill:#231f20;fill-opacity:1;fill-rule:nonzero;stroke:none;font-family:Times New Roman;-inkscape-font-specification:TimesTen-Roman"
         x="492.93259"
         y="354.74399"
         id="tspan3645">0</tspan>
    </text>
    <text
       style="font-size:15px"
       y="352.24399"
       x="497.43259"
       id="text3647">
      <tspan
         style="font-size:10px;font-variant:normal;font-weight:normal;writing-mode:lr-tb;fill:#231f20;fill-opacity:1;fill-rule:nonzero;stroke:none;font-family:Times New Roman;-inkscape-font-specification:TimesTen-Roman"
         x="497.43259"
         y="352.24399"
         id="tspan3649">[</tspan>
    </text>
    <text
       style="font-size:15px"
       y="352.24399"
       x="500.76257"
       id="text3651">
      <tspan
         style="font-size:10px;font-style:italic;font-variant:normal;writing-mode:lr-tb;fill:#231f20;fill-opacity:1;fill-rule:nonzero;stroke:none;font-family:Times New Roman;-inkscape-font-specification:TimesTen-Italic"
         x="500.76257"
         y="352.24399"
         id="tspan3653">n</tspan>
    </text>
    <text
       style="font-size:15px"
       y="352.24399"
       x="506.32257"
       id="text3655">
      <tspan
         style="font-size:10px;font-variant:normal;font-weight:normal;writing-mode:lr-tb;fill:#231f20;fill-opacity:1;fill-rule:nonzero;stroke:none;font-family:Times New Roman;-inkscape-font-specification:TimesTen-Roman"
         x="506.32257 509.65259 512.15259"
         y="352.24399"
         sodipodi:role="line"
         id="tspan3657">] +</tspan>
    </text>
    <text
       style="font-size:15px"
       y="352.24399"
       x="520.65259"
       id="text3659">
      <tspan
         style="font-size:10px;font-style:italic;font-variant:normal;writing-mode:lr-tb;fill:#231f20;fill-opacity:1;fill-rule:nonzero;stroke:none;font-family:Times New Roman;-inkscape-font-specification:TimesTen-Italic"
         x="520.65259"
         y="352.24399"
         id="tspan3661">x</tspan>
    </text>
    <text
       style="font-size:15px"
       y="354.74399"
       x="525.65259"
       id="text3663">
      <tspan
         style="font-size:7.5px;font-variant:normal;font-weight:normal;writing-mode:lr-tb;fill:#231f20;fill-opacity:1;fill-rule:nonzero;stroke:none;font-family:Times New Roman;-inkscape-font-specification:TimesTen-Roman"
         x="525.65259"
         y="354.74399"
         id="tspan3665">3</tspan>
    </text>
    <text
       style="font-size:15px"
       y="352.24399"
       x="529.40259"
       id="text3667">
      <tspan
         style="font-size:10px;font-variant:normal;font-weight:normal;writing-mode:lr-tb;fill:#231f20;fill-opacity:1;fill-rule:nonzero;stroke:none;font-family:Times New Roman;-inkscape-font-specification:TimesTen-Roman"
         x="529.40259"
         y="352.24399"
         id="tspan3669">[</tspan>
    </text>
    <text
       style="font-size:15px"
       y="352.24399"
       x="532.7326"
       id="text3671">
      <tspan
         style="font-size:10px;font-style:italic;font-variant:normal;writing-mode:lr-tb;fill:#231f20;fill-opacity:1;fill-rule:nonzero;stroke:none;font-family:Times New Roman;-inkscape-font-specification:TimesTen-Italic"
         x="532.7326"
         y="352.24399"
         id="tspan3673">n</tspan>
    </text>
    <text
       style="font-size:15px"
       y="352.24399"
       x="538.2926"
       id="text3675">
      <tspan
         style="font-size:10px;font-variant:normal;font-weight:normal;writing-mode:lr-tb;fill:#231f20;fill-opacity:1;fill-rule:nonzero;stroke:none;font-family:Times New Roman;-inkscape-font-specification:TimesTen-Roman"
         x="538.2926"
         y="352.24399"
         id="tspan3677">]</tspan>
    </text>
    <g
       id="g4221"
       transform="matrix(1.25,0,0,-1.25,458.05508,306.51397)" />
    <g
       id="g4225"
       transform="matrix(1.25,0,0,-1.25,458.05508,306.51397)" />
    <g
       id="g4323"
       transform="matrix(1.25,0,0,-1.25,672.42883,305.88897)" />
    <g
       id="g4327"
       transform="matrix(1.25,0,0,-1.25,672.42883,305.88897)" />
    <g
       transform="matrix(1.25,0,0,-1.25,157.11008,704.00148)"
       id="g4383">
      <g
         id="g4385"
         clip-path="url(#clipPath4387)">
        <g
           id="g4391"
           transform="translate(329.308,352.74001)">
          <path
             inkscape:connector-curvature="0"
             d="m -51.883,-118.25 -143.25,0 0,0.5 143.25,0 z"
             style="fill:#231f20;fill-opacity:1;fill-rule:nonzero;stroke:none"
             id="path4393"
             sodipodi:nodetypes="ccccc" />
        </g>
      </g>
    </g>
    <text
       style="font-size:15px"
       y="421.30649"
       x="411.1832"
       id="text4395">
      <tspan
         style="font-size:10px;font-variant:normal;font-weight:normal;writing-mode:lr-tb;fill:#231f20;fill-opacity:1;fill-rule:nonzero;stroke:none;font-family:Times New Roman;-inkscape-font-specification:TimesTen-Roman"
         x="411.1832"
         y="421.30649"
         id="tspan4397">0</tspan>
      <tspan
         style="font-size:10px;font-variant:normal;font-weight:normal;writing-mode:lr-tb;fill:#231f20;fill-opacity:1;fill-rule:nonzero;stroke:none;font-family:Times New Roman;-inkscape-font-specification:TimesTen-Roman"
         x="455.55322"
         y="406.97647"
         id="tspan4399">3</tspan>
      <tspan
         style="font-size:10px;font-variant:normal;font-weight:normal;writing-mode:lr-tb;fill:#231f20;fill-opacity:1;fill-rule:nonzero;stroke:none;font-family:Times New Roman;-inkscape-font-specification:TimesTen-Roman"
         x="379.10321 384.10321 593.60321 598.60321"
         y="421.30649"
         sodipodi:role="line"
         id="tspan4401">–2–2</tspan>
    </text>
    <text
       style="font-size:15px"
       y="421.30649"
       x="499.45322"
       id="text4403">
      <tspan
         style="font-size:10px;font-style:italic;font-variant:normal;writing-mode:lr-tb;fill:#231f20;fill-opacity:1;fill-rule:nonzero;stroke:none;font-family:Times New Roman;-inkscape-font-specification:TimesTen-Italic"
         x="499.45322"
         y="421.30649"
         id="tspan4405">n</tspan>
    </text>
    <path
       inkscape:connector-curvature="0"
       d="m 458.68008,454.01398 -1.25,0 0,-43.29125 1.25,0 0,43.29125 z m -45.68625,-98.125 1.25,0 0,54.835 -1.25,0 0,-54.835 z m -29.62375,10.9375 1.25,0 0,43.89625 -1.25,0 0,-43.89625 z"
       style="fill:#231f20;fill-opacity:1;fill-rule:nonzero;stroke:none"
       id="path4407" />
    <g
       id="g4409"
       transform="matrix(1.25,0,0,-1.25,487.68133,412.45147)">
      <path
         inkscape:connector-curvature="0"
         d="M 0,0 C 0.829,0 1.5,0.672 1.5,1.5 1.5,2.328 0.829,3 0,3 -0.828,3 -1.5,2.328 -1.5,1.5 -1.5,0.672 -0.828,0 0,0"
         style="fill:#231f20;fill-opacity:1;fill-rule:nonzero;stroke:none"
         id="path4411" />
    </g>
    <g
       id="g4413"
       transform="matrix(1.25,0,0,-1.25,487.68133,412.45147)">
      <path
         inkscape:connector-curvature="0"
         d="M 0,0 0,0.25 C 0.691,0.251 1.249,0.81 1.25,1.5 1.249,2.19 0.691,2.749 0,2.75 -0.69,2.749 -1.249,2.19 -1.25,1.5 -1.249,0.81 -0.69,0.251 0,0.25 L 0,0 0,-0.25 c -0.966,0 -1.75,0.784 -1.75,1.75 0,0.966 0.784,1.75 1.75,1.75 C 0.967,3.25 1.75,2.466 1.75,1.5 1.75,0.534 0.967,-0.25 0,-0.25 L 0,0 z"
         style="fill:#231f20;fill-opacity:1;fill-rule:nonzero;stroke:none"
         id="path4415" />
    </g>
    <g
       id="g4417"
       transform="matrix(1.25,0,0,-1.25,472.86882,412.45147)">
      <path
         inkscape:connector-curvature="0"
         d="M 0,0 C 0.828,0 1.5,0.672 1.5,1.5 1.5,2.328 0.828,3 0,3 -0.829,3 -1.5,2.328 -1.5,1.5 -1.5,0.672 -0.829,0 0,0"
         style="fill:#231f20;fill-opacity:1;fill-rule:nonzero;stroke:none"
         id="path4419" />
    </g>
    <g
       id="g4421"
       transform="matrix(1.25,0,0,-1.25,472.86882,412.45147)">
      <path
         inkscape:connector-curvature="0"
         d="M 0,0 0,0.25 C 0.69,0.251 1.249,0.81 1.25,1.5 1.249,2.19 0.69,2.749 0,2.75 -0.691,2.749 -1.249,2.19 -1.25,1.5 -1.249,0.81 -0.691,0.251 0,0.25 L 0,0 0,-0.25 c -0.967,0 -1.75,0.784 -1.75,1.75 0,0.966 0.783,1.75 1.75,1.75 C 0.966,3.25 1.75,2.466 1.75,1.5 1.75,0.534 0.966,-0.25 0,-0.25 L 0,0 z"
         style="fill:#231f20;fill-opacity:1;fill-rule:nonzero;stroke:none"
         id="path4423" />
    </g>
    <g
       id="g4425"
       transform="matrix(1.25,0,0,-1.25,458.05508,455.88897)">
      <path
         inkscape:connector-curvature="0"
         d="M 0,0 C 0.828,0 1.5,0.672 1.5,1.5 1.5,2.328 0.828,3 0,3 -0.829,3 -1.5,2.328 -1.5,1.5 -1.5,0.672 -0.829,0 0,0"
         style="fill:#231f20;fill-opacity:1;fill-rule:nonzero;stroke:none"
         id="path4427" />
    </g>
    <g
       id="g4429"
       transform="matrix(1.25,0,0,-1.25,458.05508,455.88897)">
      <path
         inkscape:connector-curvature="0"
         d="M 0,0 0,0.25 C 0.69,0.251 1.249,0.81 1.25,1.5 1.249,2.19 0.69,2.749 0,2.75 -0.691,2.749 -1.249,2.19 -1.25,1.5 -1.249,0.81 -0.691,0.251 0,0.25 L 0,0 0,-0.25 c -0.967,0 -1.75,0.784 -1.75,1.75 0,0.966 0.783,1.75 1.75,1.75 C 0.966,3.25 1.75,2.466 1.75,1.5 1.75,0.534 0.966,-0.25 0,-0.25 L 0,0 z"
         style="fill:#231f20;fill-opacity:1;fill-rule:nonzero;stroke:none"
         id="path4431" />
    </g>
    <g
       id="g4433"
       transform="matrix(1.25,0,0,-1.25,443.24383,412.45147)">
      <path
         inkscape:connector-curvature="0"
         d="M 0,0 C 0.828,0 1.5,0.672 1.5,1.5 1.5,2.328 0.828,3 0,3 -0.829,3 -1.5,2.328 -1.5,1.5 -1.5,0.672 -0.829,0 0,0"
         style="fill:#231f20;fill-opacity:1;fill-rule:nonzero;stroke:none"
         id="path4435" />
    </g>
    <g
       id="g4437"
       transform="matrix(1.25,0,0,-1.25,443.24383,412.45147)">
      <path
         inkscape:connector-curvature="0"
         d="M 0,0 0,0.25 C 0.69,0.251 1.249,0.81 1.25,1.5 1.249,2.19 0.69,2.749 0,2.75 -0.691,2.749 -1.249,2.19 -1.25,1.5 -1.249,0.81 -0.691,0.251 0,0.25 L 0,0 0,-0.25 c -0.967,0 -1.75,0.784 -1.75,1.75 0,0.966 0.783,1.75 1.75,1.75 C 0.966,3.25 1.75,2.466 1.75,1.5 1.75,0.534 0.966,-0.25 0,-0.25 L 0,0 z"
         style="fill:#231f20;fill-opacity:1;fill-rule:nonzero;stroke:none"
         id="path4439" />
    </g>
    <g
       id="g4441"
       transform="matrix(1.25,0,0,-1.25,428.43008,412.45147)">
      <path
         inkscape:connector-curvature="0"
         d="M 0,0 C 0.829,0 1.5,0.672 1.5,1.5 1.5,2.328 0.829,3 0,3 -0.828,3 -1.5,2.328 -1.5,1.5 -1.5,0.672 -0.828,0 0,0"
         style="fill:#231f20;fill-opacity:1;fill-rule:nonzero;stroke:none"
         id="path4443" />
    </g>
    <g
       id="g4445"
       transform="matrix(1.25,0,0,-1.25,428.43008,412.45147)">
      <path
         inkscape:connector-curvature="0"
         d="M 0,0 0,0.25 C 0.691,0.251 1.249,0.81 1.25,1.5 1.249,2.19 0.691,2.749 0,2.75 -0.69,2.749 -1.249,2.19 -1.25,1.5 -1.249,0.81 -0.69,0.251 0,0.25 L 0,0 0,-0.25 c -0.966,0 -1.75,0.784 -1.75,1.75 0,0.966 0.784,1.75 1.75,1.75 C 0.967,3.25 1.75,2.466 1.75,1.5 1.75,0.534 0.967,-0.25 0,-0.25 L 0,0 z"
         style="fill:#231f20;fill-opacity:1;fill-rule:nonzero;stroke:none"
         id="path4447" />
    </g>
    <g
       id="g4449"
       transform="matrix(1.25,0,0,-1.25,413.61883,357.76397)">
      <path
         inkscape:connector-curvature="0"
         d="M 0,0 C 0.829,0 1.5,0.672 1.5,1.5 1.5,2.328 0.829,3 0,3 -0.828,3 -1.5,2.328 -1.5,1.5 -1.5,0.672 -0.828,0 0,0"
         style="fill:#231f20;fill-opacity:1;fill-rule:nonzero;stroke:none"
         id="path4451" />
    </g>
    <g
       id="g4453"
       transform="matrix(1.25,0,0,-1.25,413.61883,357.76397)">
      <path
         inkscape:connector-curvature="0"
         d="M 0,0 0,0.25 C 0.691,0.251 1.249,0.81 1.25,1.5 1.249,2.19 0.691,2.749 0,2.75 -0.69,2.749 -1.249,2.19 -1.25,1.5 -1.249,0.81 -0.69,0.251 0,0.25 L 0,0 0,-0.25 c -0.966,0 -1.75,0.784 -1.75,1.75 0,0.966 0.784,1.75 1.75,1.75 C 0.967,3.25 1.75,2.466 1.75,1.5 1.75,0.534 0.967,-0.25 0,-0.25 L 0,0 z"
         style="fill:#231f20;fill-opacity:1;fill-rule:nonzero;stroke:none"
         id="path4455" />
    </g>
    <g
       id="g4457"
       transform="matrix(1.25,0,0,-1.25,398.80632,412.45147)">
      <path
         inkscape:connector-curvature="0"
         d="M 0,0 C 0.828,0 1.5,0.672 1.5,1.5 1.5,2.328 0.828,3 0,3 -0.829,3 -1.5,2.328 -1.5,1.5 -1.5,0.672 -0.829,0 0,0"
         style="fill:#231f20;fill-opacity:1;fill-rule:nonzero;stroke:none"
         id="path4459" />
    </g>
    <g
       id="g4461"
       transform="matrix(1.25,0,0,-1.25,398.80632,412.45147)">
      <path
         inkscape:connector-curvature="0"
         d="M 0,0 0,0.25 C 0.69,0.251 1.249,0.81 1.25,1.5 1.249,2.19 0.69,2.749 0,2.75 -0.691,2.749 -1.249,2.19 -1.25,1.5 -1.249,0.81 -0.691,0.251 0,0.25 L 0,0 0,-0.25 c -0.967,0 -1.75,0.784 -1.75,1.75 0,0.966 0.783,1.75 1.75,1.75 C 0.966,3.25 1.75,2.466 1.75,1.5 1.75,0.534 0.966,-0.25 0,-0.25 L 0,0 z"
         style="fill:#231f20;fill-opacity:1;fill-rule:nonzero;stroke:none"
         id="path4463" />
    </g>
    <g
       id="g4465"
       transform="matrix(1.25,0,0,-1.25,383.99508,368.70147)">
      <path
         inkscape:connector-curvature="0"
         d="M 0,0 C 0.828,0 1.5,0.672 1.5,1.5 1.5,2.328 0.828,3 0,3 -0.829,3 -1.5,2.328 -1.5,1.5 -1.5,0.672 -0.829,0 0,0"
         style="fill:#231f20;fill-opacity:1;fill-rule:nonzero;stroke:none"
         id="path4467" />
    </g>
    <g
       id="g4469"
       transform="matrix(1.25,0,0,-1.25,383.99508,368.70147)">
      <path
         inkscape:connector-curvature="0"
         d="M 0,0 0,0.25 C 0.69,0.251 1.249,0.81 1.25,1.5 1.249,2.19 0.69,2.749 0,2.75 -0.691,2.749 -1.249,2.19 -1.25,1.5 -1.249,0.81 -0.691,0.251 0,0.25 L 0,0 0,-0.25 c -0.967,0 -1.75,0.784 -1.75,1.75 0,0.966 0.783,1.75 1.75,1.75 C 0.966,3.25 1.75,2.466 1.75,1.5 1.75,0.534 0.966,-0.25 0,-0.25 L 0,0 z"
         style="fill:#231f20;fill-opacity:1;fill-rule:nonzero;stroke:none"
         id="path4471" />
    </g>
    <g
       id="g4473"
       transform="matrix(1.25,0,0,-1.25,369.18133,412.45147)">
      <path
         inkscape:connector-curvature="0"
         d="M 0,0 C 0.828,0 1.5,0.672 1.5,1.5 1.5,2.328 0.828,3 0,3 -0.829,3 -1.5,2.328 -1.5,1.5 -1.5,0.672 -0.829,0 0,0"
         style="fill:#231f20;fill-opacity:1;fill-rule:nonzero;stroke:none"
         id="path4475" />
    </g>
    <g
       id="g4477"
       transform="matrix(1.25,0,0,-1.25,369.18133,412.45147)">
      <path
         inkscape:connector-curvature="0"
         d="M 0,0 0,0.25 C 0.69,0.251 1.249,0.81 1.25,1.5 1.249,2.19 0.69,2.749 0,2.75 -0.691,2.749 -1.249,2.19 -1.25,1.5 -1.249,0.81 -0.691,0.251 0,0.25 L 0,0 0,-0.25 c -0.967,0 -1.75,0.784 -1.75,1.75 0,0.966 0.783,1.75 1.75,1.75 C 0.966,3.25 1.75,2.466 1.75,1.5 1.75,0.534 0.966,-0.25 0,-0.25 L 0,0 z"
         style="fill:#231f20;fill-opacity:1;fill-rule:nonzero;stroke:none"
         id="path4479" />
    </g>
    <g
       id="g4481"
       transform="matrix(1.25,0,0,-1.25,354.37008,412.45147)">
      <path
         inkscape:connector-curvature="0"
         d="M 0,0 C 0.828,0 1.5,0.672 1.5,1.5 1.5,2.328 0.828,3 0,3 -0.828,3 -1.5,2.328 -1.5,1.5 -1.5,0.672 -0.828,0 0,0"
         style="fill:#231f20;fill-opacity:1;fill-rule:nonzero;stroke:none"
         id="path4483" />
    </g>
    <g
       id="g4485"
       transform="matrix(1.25,0,0,-1.25,354.37008,412.45147)">
      <path
         inkscape:connector-curvature="0"
         d="M 0,0 0,0.25 C 0.69,0.251 1.249,0.81 1.25,1.5 1.249,2.19 0.69,2.749 0,2.75 -0.69,2.749 -1.249,2.19 -1.25,1.5 -1.249,0.81 -0.69,0.251 0,0.25 L 0,0 0,-0.25 c -0.966,0 -1.75,0.784 -1.75,1.75 0,0.966 0.784,1.75 1.75,1.75 C 0.966,3.25 1.75,2.466 1.75,1.5 1.75,0.534 0.966,-0.25 0,-0.25 L 0,0 z"
         style="fill:#231f20;fill-opacity:1;fill-rule:nonzero;stroke:none"
         id="path4487" />
    </g>
    <g
       id="g4489"
       transform="matrix(1.25,0,0,-1.25,339.55633,412.45147)">
      <path
         inkscape:connector-curvature="0"
         d="M 0,0 C 0.829,0 1.5,0.672 1.5,1.5 1.5,2.328 0.829,3 0,3 -0.828,3 -1.5,2.328 -1.5,1.5 -1.5,0.672 -0.828,0 0,0"
         style="fill:#231f20;fill-opacity:1;fill-rule:nonzero;stroke:none"
         id="path4491" />
    </g>
    <g
       id="g4493"
       transform="matrix(1.25,0,0,-1.25,339.55633,412.45147)">
      <path
         inkscape:connector-curvature="0"
         d="M 0,0 0,0.25 C 0.691,0.251 1.249,0.81 1.25,1.5 1.249,2.19 0.691,2.749 0,2.75 -0.69,2.749 -1.249,2.19 -1.25,1.5 -1.249,0.81 -0.69,0.251 0,0.25 L 0,0 0,-0.25 c -0.966,0 -1.75,0.784 -1.75,1.75 0,0.966 0.784,1.75 1.75,1.75 C 0.967,3.25 1.75,2.466 1.75,1.5 1.75,0.534 0.967,-0.25 0,-0.25 L 0,0 z m 302.968,1.25 -143.25,0 0,0.5 143.25,0 0,-0.5 z"
         style="fill:#231f20;fill-opacity:1;fill-rule:nonzero;stroke:none"
         id="path4495" />
    </g>
    <text
       style="font-size:15px"
       y="421.30649"
       x="625.55884"
       id="text4497">
      <tspan
         style="font-size:10px;font-variant:normal;font-weight:normal;writing-mode:lr-tb;fill:#231f20;fill-opacity:1;fill-rule:nonzero;stroke:none;font-family:Times New Roman;-inkscape-font-specification:TimesTen-Roman"
         x="625.55884"
         y="421.30649"
         id="tspan4499">0</tspan>
    </text>
    <text
       style="font-size:15px"
       y="421.30649"
       x="713.81885"
       id="text4501">
      <tspan
         style="font-size:10px;font-style:italic;font-variant:normal;writing-mode:lr-tb;fill:#231f20;fill-opacity:1;fill-rule:nonzero;stroke:none;font-family:Times New Roman;-inkscape-font-specification:TimesTen-Italic"
         x="713.81885"
         y="421.30649"
         id="tspan4503">n</tspan>
    </text>
    <g
       transform="matrix(1.25,0,0,-1.25,157.11008,704.00148)"
       id="g4505">
      <g
         id="g4507"
         clip-path="url(#clipPath4509)">
        <path
           inkscape:connector-curvature="0"
           d="m 436.457,223.99 -1,0 0,10.633 1,0 0,-10.633 z m -11.85,-12.5 -1,0 0,23.133 1,0 0,-23.133 z m -11.852,-12.25 -1,0 0,35.383 1,0 0,-35.383 z m -12.848,47.5 1,0 0,-12.117 -1,0 0,12.117 z m -11.851,15.75 1,0 0,-27.867 -1,0 0,27.867 z m -11.849,28.5 1,0 0,-56.368 -1,0 0,56.368 z m -11.85,-34.5 1,0 0,-21.867 -1,0 0,21.867 z m -11.85,12.5 1,0 0,-34.367 -1,0 0,34.367 z"
           style="fill:#231f20;fill-opacity:1;fill-rule:nonzero;stroke:none"
           id="path4513" />
      </g>
    </g>
    <g
       id="g4515"
       transform="matrix(1.25,0,0,-1.25,702.05633,425.88897)">
      <path
         inkscape:connector-curvature="0"
         d="M 0,0 C 0.829,0 1.5,0.672 1.5,1.5 1.5,2.328 0.829,3 0,3 -0.828,3 -1.5,2.328 -1.5,1.5 -1.5,0.672 -0.828,0 0,0"
         style="fill:#231f20;fill-opacity:1;fill-rule:nonzero;stroke:none"
         id="path4517" />
    </g>
    <g
       id="g4519"
       transform="matrix(1.25,0,0,-1.25,702.05633,425.88897)">
      <path
         inkscape:connector-curvature="0"
         d="M 0,0 0,0.25 C 0.691,0.251 1.249,0.81 1.25,1.5 1.249,2.19 0.691,2.749 0,2.75 -0.69,2.749 -1.249,2.19 -1.25,1.5 -1.249,0.81 -0.69,0.251 0,0.25 L 0,0 0,-0.25 c -0.966,0 -1.75,0.784 -1.75,1.75 0,0.966 0.784,1.75 1.75,1.75 C 0.967,3.25 1.75,2.466 1.75,1.5 1.75,0.534 0.967,-0.25 0,-0.25 L 0,0 z"
         style="fill:#231f20;fill-opacity:1;fill-rule:nonzero;stroke:none"
         id="path4521" />
    </g>
    <g
       id="g4523"
       transform="matrix(1.25,0,0,-1.25,687.24382,441.51397)">
      <path
         inkscape:connector-curvature="0"
         d="M 0,0 C 0.828,0 1.5,0.672 1.5,1.5 1.5,2.328 0.828,3 0,3 -0.828,3 -1.5,2.328 -1.5,1.5 -1.5,0.672 -0.828,0 0,0"
         style="fill:#231f20;fill-opacity:1;fill-rule:nonzero;stroke:none"
         id="path4525" />
    </g>
    <g
       id="g4527"
       transform="matrix(1.25,0,0,-1.25,687.24382,441.51397)">
      <path
         inkscape:connector-curvature="0"
         d="M 0,0 0,0.25 C 0.69,0.251 1.249,0.81 1.25,1.5 1.249,2.19 0.69,2.749 0,2.75 -0.69,2.749 -1.249,2.19 -1.25,1.5 -1.249,0.81 -0.69,0.251 0,0.25 L 0,0 0,-0.25 c -0.966,0 -1.75,0.784 -1.75,1.75 0,0.966 0.784,1.75 1.75,1.75 C 0.966,3.25 1.75,2.466 1.75,1.5 1.75,0.534 0.966,-0.25 0,-0.25 L 0,0 z"
         style="fill:#231f20;fill-opacity:1;fill-rule:nonzero;stroke:none"
         id="path4529" />
    </g>
    <g
       id="g4531"
       transform="matrix(1.25,0,0,-1.25,672.42883,456.82647)">
      <path
         inkscape:connector-curvature="0"
         d="M 0,0 C 0.829,0 1.5,0.672 1.5,1.5 1.5,2.328 0.829,3 0,3 -0.827,3 -1.5,2.328 -1.5,1.5 -1.5,0.672 -0.827,0 0,0"
         style="fill:#231f20;fill-opacity:1;fill-rule:nonzero;stroke:none"
         id="path4533" />
    </g>
    <g
       transform="matrix(1.25,0,0,-1.25,157.11008,704.00148)"
       id="g4535">
      <g
         id="g4537"
         clip-path="url(#clipPath4539)">
        <g
           id="g4543"
           transform="translate(412.255,197.74001)">
          <path
             inkscape:connector-curvature="0"
             d="M 0,0 0,0.25 C 0.691,0.251 1.249,0.81 1.25,1.5 1.249,2.19 0.691,2.749 0,2.75 -0.689,2.749 -1.249,2.189 -1.25,1.5 -1.249,0.811 -0.689,0.251 0,0.25 L 0,0 0,-0.25 c -0.965,0 -1.75,0.783 -1.75,1.75 0,0.966 0.785,1.75 1.75,1.75 C 0.967,3.25 1.75,2.466 1.75,1.5 1.75,0.534 0.967,-0.25 0,-0.25 L 0,0 z"
             style="fill:#231f20;fill-opacity:1;fill-rule:nonzero;stroke:none"
             id="path4545" />
        </g>
      </g>
    </g>
    <g
       id="g4547"
       transform="matrix(1.25,0,0,-1.25,657.61883,397.45147)">
      <path
         inkscape:connector-curvature="0"
         d="M 0,0 C 0.829,0 1.5,0.672 1.5,1.5 1.5,2.328 0.829,3 0,3 -0.829,3 -1.5,2.328 -1.5,1.5 -1.5,0.672 -0.829,0 0,0"
         style="fill:#231f20;fill-opacity:1;fill-rule:nonzero;stroke:none"
         id="path4549" />
    </g>
    <g
       id="g4551"
       transform="matrix(1.25,0,0,-1.25,657.61883,397.45147)">
      <path
         inkscape:connector-curvature="0"
         d="M 0,0 0,0.25 C 0.691,0.251 1.249,0.81 1.25,1.5 1.249,2.19 0.691,2.749 0,2.75 -0.691,2.749 -1.249,2.19 -1.25,1.5 -1.249,0.81 -0.691,0.251 0,0.25 L 0,0 0,-0.25 c -0.967,0 -1.75,0.784 -1.75,1.75 0,0.966 0.783,1.75 1.75,1.75 C 0.967,3.25 1.75,2.466 1.75,1.5 1.75,0.534 0.967,-0.25 0,-0.25 L 0,0 z"
         style="fill:#231f20;fill-opacity:1;fill-rule:nonzero;stroke:none"
         id="path4553" />
    </g>
    <g
       id="g4555"
       transform="matrix(1.25,0,0,-1.25,642.80508,377.76397)">
      <path
         inkscape:connector-curvature="0"
         d="M 0,0 C 0.828,0 1.5,0.672 1.5,1.5 1.5,2.328 0.828,3 0,3 -0.828,3 -1.5,2.328 -1.5,1.5 -1.5,0.672 -0.828,0 0,0"
         style="fill:#231f20;fill-opacity:1;fill-rule:nonzero;stroke:none"
         id="path4557" />
    </g>
    <g
       id="g4559"
       transform="matrix(1.25,0,0,-1.25,642.80508,377.76397)">
      <path
         inkscape:connector-curvature="0"
         d="M 0,0 0,0.25 C 0.69,0.251 1.249,0.81 1.25,1.5 1.249,2.19 0.69,2.749 0,2.75 -0.69,2.749 -1.249,2.19 -1.25,1.5 -1.249,0.81 -0.69,0.251 0,0.25 L 0,0 0,-0.25 c -0.966,0 -1.75,0.784 -1.75,1.75 0,0.966 0.784,1.75 1.75,1.75 C 0.966,3.25 1.75,2.466 1.75,1.5 1.75,0.534 0.966,-0.25 0,-0.25 L 0,0 z"
         style="fill:#231f20;fill-opacity:1;fill-rule:nonzero;stroke:none"
         id="path4561" />
    </g>
    <g
       id="g4563"
       transform="matrix(1.25,0,0,-1.25,627.99383,342.13897)">
      <path
         inkscape:connector-curvature="0"
         d="M 0,0 C 0.829,0 1.5,0.672 1.5,1.5 1.5,2.328 0.829,3 0,3 -0.828,3 -1.5,2.328 -1.5,1.5 -1.5,0.672 -0.828,0 0,0"
         style="fill:#231f20;fill-opacity:1;fill-rule:nonzero;stroke:none"
         id="path4565" />
    </g>
    <g
       id="g4567"
       transform="matrix(1.25,0,0,-1.25,627.99383,342.13897)">
      <path
         inkscape:connector-curvature="0"
         d="M 0,0 0,0.25 C 0.691,0.251 1.249,0.81 1.25,1.5 1.249,2.19 0.691,2.749 0,2.75 -0.69,2.749 -1.249,2.19 -1.25,1.5 -1.249,0.81 -0.69,0.251 0,0.25 L 0,0 0,-0.25 c -0.966,0 -1.75,0.784 -1.75,1.75 0,0.966 0.784,1.75 1.75,1.75 C 0.967,3.25 1.75,2.466 1.75,1.5 1.75,0.534 0.967,-0.25 0,-0.25 L 0,0 z"
         style="fill:#231f20;fill-opacity:1;fill-rule:nonzero;stroke:none"
         id="path4569" />
    </g>
    <g
       id="g4571"
       transform="matrix(1.25,0,0,-1.25,613.18132,385.26397)">
      <path
         inkscape:connector-curvature="0"
         d="M 0,0 C 0.828,0 1.5,0.672 1.5,1.5 1.5,2.328 0.828,3 0,3 -0.828,3 -1.5,2.328 -1.5,1.5 -1.5,0.672 -0.828,0 0,0"
         style="fill:#231f20;fill-opacity:1;fill-rule:nonzero;stroke:none"
         id="path4573" />
    </g>
    <g
       id="g4575"
       transform="matrix(1.25,0,0,-1.25,613.18132,385.26397)">
      <path
         inkscape:connector-curvature="0"
         d="M 0,0 0,0.25 C 0.69,0.251 1.249,0.81 1.25,1.5 1.249,2.19 0.69,2.749 0,2.75 -0.69,2.749 -1.249,2.19 -1.25,1.5 -1.249,0.81 -0.69,0.251 0,0.25 L 0,0 0,-0.25 c -0.966,0 -1.75,0.784 -1.75,1.75 0,0.966 0.784,1.75 1.75,1.75 C 0.966,3.25 1.75,2.466 1.75,1.5 1.75,0.534 0.966,-0.25 0,-0.25 L 0,0 z"
         style="fill:#231f20;fill-opacity:1;fill-rule:nonzero;stroke:none"
         id="path4577" />
    </g>
    <g
       id="g4579"
       transform="matrix(1.25,0,0,-1.25,598.36883,369.63897)">
      <path
         inkscape:connector-curvature="0"
         d="M 0,0 C 0.829,0 1.5,0.672 1.5,1.5 1.5,2.328 0.829,3 0,3 -0.828,3 -1.5,2.328 -1.5,1.5 -1.5,0.672 -0.828,0 0,0"
         style="fill:#231f20;fill-opacity:1;fill-rule:nonzero;stroke:none"
         id="path4581" />
    </g>
    <g
       id="g4583"
       transform="matrix(1.25,0,0,-1.25,598.36883,369.63897)">
      <path
         inkscape:connector-curvature="0"
         d="M 0,0 0,0.25 C 0.691,0.251 1.249,0.81 1.25,1.5 1.249,2.19 0.691,2.749 0,2.75 -0.69,2.749 -1.249,2.19 -1.25,1.5 -1.249,0.81 -0.69,0.251 0,0.25 L 0,0 0,-0.25 c -0.966,0 -1.75,0.784 -1.75,1.75 0,0.966 0.784,1.75 1.75,1.75 C 0.967,3.25 1.75,2.466 1.75,1.5 1.75,0.534 0.967,-0.25 0,-0.25 L 0,0 z"
         style="fill:#231f20;fill-opacity:1;fill-rule:nonzero;stroke:none"
         id="path4585" />
    </g>
    <g
       id="g4587"
       transform="matrix(1.25,0,0,-1.25,583.55633,412.45147)">
      <path
         inkscape:connector-curvature="0"
         d="M 0,0 C 0.829,0 1.5,0.672 1.5,1.5 1.5,2.328 0.829,3 0,3 -0.829,3 -1.5,2.328 -1.5,1.5 -1.5,0.672 -0.829,0 0,0"
         style="fill:#231f20;fill-opacity:1;fill-rule:nonzero;stroke:none"
         id="path4589" />
    </g>
    <g
       id="g4591"
       transform="matrix(1.25,0,0,-1.25,583.55633,412.45147)">
      <path
         inkscape:connector-curvature="0"
         d="M 0,0 0,0.25 C 0.691,0.251 1.249,0.81 1.25,1.5 1.249,2.19 0.691,2.749 0,2.75 -0.691,2.749 -1.249,2.19 -1.25,1.5 -1.249,0.81 -0.691,0.251 0,0.25 L 0,0 0,-0.25 c -0.967,0 -1.75,0.784 -1.75,1.75 0,0.966 0.783,1.75 1.75,1.75 C 0.967,3.25 1.75,2.466 1.75,1.5 1.75,0.534 0.967,-0.25 0,-0.25 L 0,0 z"
         style="fill:#231f20;fill-opacity:1;fill-rule:nonzero;stroke:none"
         id="path4593" />
    </g>
    <g
       id="g4595"
       transform="matrix(1.25,0,0,-1.25,568.74508,412.45147)">
      <path
         inkscape:connector-curvature="0"
         d="M 0,0 C 0.829,0 1.5,0.672 1.5,1.5 1.5,2.328 0.829,3 0,3 -0.828,3 -1.5,2.328 -1.5,1.5 -1.5,0.672 -0.828,0 0,0"
         style="fill:#231f20;fill-opacity:1;fill-rule:nonzero;stroke:none"
         id="path4597" />
    </g>
    <g
       id="g4599"
       transform="matrix(1.25,0,0,-1.25,568.74508,412.45147)">
      <path
         inkscape:connector-curvature="0"
         d="M 0,0 0,0.25 C 0.691,0.251 1.249,0.81 1.25,1.5 1.249,2.19 0.691,2.749 0,2.75 -0.69,2.749 -1.249,2.19 -1.25,1.5 -1.249,0.81 -0.69,0.251 0,0.25 L 0,0 0,-0.25 c -0.966,0 -1.75,0.784 -1.75,1.75 0,0.966 0.784,1.75 1.75,1.75 C 0.967,3.25 1.75,2.466 1.75,1.5 1.75,0.534 0.967,-0.25 0,-0.25 L 0,0 z"
         style="fill:#231f20;fill-opacity:1;fill-rule:nonzero;stroke:none"
         id="path4601" />
    </g>
    <g
       id="g4603"
       transform="matrix(1.25,0,0,-1.25,553.93133,412.45147)">
      <path
         inkscape:connector-curvature="0"
         d="M 0,0 C 0.829,0 1.5,0.672 1.5,1.5 1.5,2.328 0.829,3 0,3 -0.828,3 -1.5,2.328 -1.5,1.5 -1.5,0.672 -0.828,0 0,0"
         style="fill:#231f20;fill-opacity:1;fill-rule:nonzero;stroke:none"
         id="path4605" />
    </g>
    <g
       id="g4607"
       transform="matrix(1.25,0,0,-1.25,553.93133,412.45147)">
      <path
         inkscape:connector-curvature="0"
         d="M 0,0 0,0.25 C 0.691,0.251 1.249,0.81 1.25,1.5 1.249,2.19 0.691,2.749 0,2.75 -0.69,2.749 -1.249,2.19 -1.25,1.5 -1.249,0.81 -0.69,0.251 0,0.25 L 0,0 0,-0.25 c -0.966,0 -1.75,0.784 -1.75,1.75 0,0.966 0.784,1.75 1.75,1.75 C 0.967,3.25 1.75,2.466 1.75,1.5 1.75,0.534 0.967,-0.25 0,-0.25 L 0,0 z"
         style="fill:#231f20;fill-opacity:1;fill-rule:nonzero;stroke:none"
         id="path4609" />
    </g>
    <g
       id="g4611"
       transform="matrix(1.25,0,0,-1.25,539.11882,412.45147)">
      <path
         inkscape:connector-curvature="0"
         d="M 0,0 C 0.828,0 1.5,0.672 1.5,1.5 1.5,2.328 0.828,3 0,3 -0.829,3 -1.5,2.328 -1.5,1.5 -1.5,0.672 -0.829,0 0,0"
         style="fill:#231f20;fill-opacity:1;fill-rule:nonzero;stroke:none"
         id="path4613" />
    </g>
    <g
       id="g4615"
       transform="matrix(1.25,0,0,-1.25,539.11882,412.45147)">
      <path
         inkscape:connector-curvature="0"
         d="M 0,0 0,0.25 C 0.69,0.251 1.249,0.81 1.25,1.5 1.249,2.19 0.69,2.749 0,2.75 -0.691,2.749 -1.249,2.19 -1.25,1.5 -1.249,0.81 -0.691,0.251 0,0.25 L 0,0 0,-0.25 c -0.967,0 -1.75,0.784 -1.75,1.75 0,0.966 0.783,1.75 1.75,1.75 C 0.966,3.25 1.75,2.466 1.75,1.5 1.75,0.534 0.966,-0.25 0,-0.25 L 0,0 z"
         style="fill:#231f20;fill-opacity:1;fill-rule:nonzero;stroke:none"
         id="path4617" />
    </g>
  </g>
</svg>
