<?xml version="1.0" encoding="UTF-8" standalone="no"?>
<!-- Created with Inkscape (http://www.inkscape.org/) -->

<svg
   xmlns:dc="http://purl.org/dc/elements/1.1/"
   xmlns:cc="http://creativecommons.org/ns#"
   xmlns:rdf="http://www.w3.org/1999/02/22-rdf-syntax-ns#"
   xmlns:svg="http://www.w3.org/2000/svg"
   xmlns="http://www.w3.org/2000/svg"
   xmlns:sodipodi="http://sodipodi.sourceforge.net/DTD/sodipodi-0.dtd"
   xmlns:inkscape="http://www.inkscape.org/namespaces/inkscape"
   width="166.36725"
   height="56.985016"
   id="svg5163"
   version="1.1"
   inkscape:version="0.48.3.1 r9886"
   sodipodi:docname="Documento nuevo 7">
  <defs
     id="defs5165" />
  <sodipodi:namedview
     id="base"
     pagecolor="#ffffff"
     bordercolor="#666666"
     borderopacity="1.0"
     inkscape:pageopacity="0.0"
     inkscape:pageshadow="2"
     inkscape:zoom="0.35"
     inkscape:cx="-269.67353"
     inkscape:cy="-82.936066"
     inkscape:document-units="px"
     inkscape:current-layer="layer1"
     showgrid="false"
     fit-margin-top="0"
     fit-margin-left="0"
     fit-margin-right="0"
     fit-margin-bottom="0"
     inkscape:window-width="1920"
     inkscape:window-height="1021"
     inkscape:window-x="0"
     inkscape:window-y="27"
     inkscape:window-maximized="1" />
  <metadata
     id="metadata5168">
    <rdf:RDF>
      <cc:Work
         rdf:about="">
        <dc:format>image/svg+xml</dc:format>
        <dc:type
           rdf:resource="http://purl.org/dc/dcmitype/StillImage" />
        <dc:title></dc:title>
      </cc:Work>
    </rdf:RDF>
  </metadata>
  <g
     inkscape:label="Capa 1"
     inkscape:groupmode="layer"
     id="layer1"
     transform="translate(-619.67353,-392.4411)">
    <text
       style="font-size:15px"
       y="449.29892"
       x="693.17603"
       id="text3247">
      <tspan
         style="font-size:10px;font-variant:normal;font-weight:normal;writing-mode:lr-tb;fill:#231f20;fill-opacity:1;fill-rule:nonzero;stroke:none;font-family:Times New Roman;-inkscape-font-specification:TimesTen-Roman"
         x="693.17603 723.88605"
         y="449.29892"
         sodipodi:role="line"
         id="tspan3249">02</tspan>
      <tspan
         style="font-size:10px;font-variant:normal;font-weight:normal;writing-mode:lr-tb;fill:#231f20;fill-opacity:1;fill-rule:nonzero;stroke:none;font-family:Times New Roman;-inkscape-font-specification:TimesTen-Roman"
         x="685.88605"
         y="399.19891"
         id="tspan3251">1</tspan>
    </text>
    <text
       style="font-size:15px"
       y="408.88892"
       x="741.16602"
       id="text3253">
      <tspan
         style="font-size:10px;font-style:italic;font-variant:normal;writing-mode:lr-tb;fill:#231f20;fill-opacity:1;fill-rule:nonzero;stroke:none;font-family:Times New Roman;-inkscape-font-specification:TimesTen-Italic"
         x="741.16602"
         y="408.88892"
         id="tspan3255">h</tspan>
    </text>
    <text
       style="font-size:15px"
       y="408.88892"
       x="746.72601"
       id="text3257">
      <tspan
         style="font-size:10px;font-variant:normal;font-weight:normal;writing-mode:lr-tb;fill:#231f20;fill-opacity:1;fill-rule:nonzero;stroke:none;font-family:Times New Roman;-inkscape-font-specification:TimesTen-Roman"
         x="746.72601"
         y="408.88892"
         id="tspan3259">[</tspan>
    </text>
    <text
       style="font-size:15px"
       y="408.88892"
       x="750.05603"
       id="text3261">
      <tspan
         style="font-size:10px;font-style:italic;font-variant:normal;writing-mode:lr-tb;fill:#231f20;fill-opacity:1;fill-rule:nonzero;stroke:none;font-family:Times New Roman;-inkscape-font-specification:TimesTen-Italic"
         x="750.05603"
         y="408.88892"
         id="tspan3263">n</tspan>
    </text>
    <text
       style="font-size:15px"
       y="408.88892"
       x="755.61603"
       id="text3265">
      <tspan
         style="font-size:10px;font-variant:normal;font-weight:normal;writing-mode:lr-tb;fill:#231f20;fill-opacity:1;fill-rule:nonzero;stroke:none;font-family:Times New Roman;-inkscape-font-specification:TimesTen-Roman"
         x="755.61603"
         y="408.88892"
         id="tspan3267">]</tspan>
    </text>
    <text
       style="font-size:15px"
       y="449.30893"
       x="781.44604"
       id="text3269">
      <tspan
         style="font-size:10px;font-style:italic;font-variant:normal;writing-mode:lr-tb;fill:#231f20;fill-opacity:1;fill-rule:nonzero;stroke:none;font-family:Times New Roman;-inkscape-font-specification:TimesTen-Italic"
         x="781.44604"
         y="449.30893"
         id="tspan3271">n</tspan>
    </text>
    <path
       inkscape:connector-curvature="0"
       d="m 724.61103,426.07018 1.25,0 0,12.64625 -1.25,0 0,-12.64625 z m -14.81375,-15.625 1.25,0 0,28.27125 -1.25,0 0,-28.27125 z m -14.81125,-14.6875 1.25,0 0,42.95875 -1.25,0 0,-42.95875 z"
       style="fill:#231f20;fill-opacity:1;fill-rule:nonzero;stroke:none"
       id="path3273" />
    <g
       id="g3275"
       transform="matrix(1.25,0,0,-1.25,769.67353,440.44517)">
      <path
         inkscape:connector-curvature="0"
         d="M 0,0 C 0.829,0 1.5,0.671 1.5,1.5 1.5,2.329 0.829,3 0,3 -0.828,3 -1.5,2.329 -1.5,1.5 -1.5,0.671 -0.828,0 0,0"
         style="fill:#231f20;fill-opacity:1;fill-rule:nonzero;stroke:none"
         id="path3277" />
    </g>
    <g
       id="g3279"
       transform="matrix(1.25,0,0,-1.25,769.67353,440.44517)">
      <path
         inkscape:connector-curvature="0"
         d="M 0,0 0,0.25 C 0.691,0.251 1.249,0.809 1.25,1.5 1.249,2.191 0.691,2.749 0,2.75 -0.69,2.749 -1.249,2.191 -1.25,1.5 -1.249,0.809 -0.69,0.251 0,0.25 L 0,0 0,-0.25 c -0.966,0 -1.75,0.783 -1.75,1.75 0,0.967 0.784,1.75 1.75,1.75 C 0.967,3.25 1.75,2.467 1.75,1.5 1.75,0.533 0.967,-0.25 0,-0.25 L 0,0 z"
         style="fill:#231f20;fill-opacity:1;fill-rule:nonzero;stroke:none"
         id="path3281" />
    </g>
    <g
       id="g3283"
       transform="matrix(1.25,0,0,-1.25,754.86102,440.44517)">
      <path
         inkscape:connector-curvature="0"
         d="M 0,0 C 0.828,0 1.5,0.671 1.5,1.5 1.5,2.329 0.828,3 0,3 -0.828,3 -1.5,2.329 -1.5,1.5 -1.5,0.671 -0.828,0 0,0"
         style="fill:#231f20;fill-opacity:1;fill-rule:nonzero;stroke:none"
         id="path3285" />
    </g>
    <g
       id="g3287"
       transform="matrix(1.25,0,0,-1.25,754.86102,440.44517)">
      <path
         inkscape:connector-curvature="0"
         d="M 0,0 0,0.25 C 0.69,0.251 1.249,0.809 1.25,1.5 1.249,2.191 0.69,2.749 0,2.75 -0.69,2.749 -1.249,2.191 -1.25,1.5 -1.249,0.809 -0.69,0.251 0,0.25 L 0,0 0,-0.25 c -0.966,0 -1.75,0.783 -1.75,1.75 0,0.967 0.784,1.75 1.75,1.75 C 0.966,3.25 1.75,2.467 1.75,1.5 1.75,0.533 0.966,-0.25 0,-0.25 L 0,0 z"
         style="fill:#231f20;fill-opacity:1;fill-rule:nonzero;stroke:none"
         id="path3289" />
    </g>
    <g
       id="g3291"
       transform="matrix(1.25,0,0,-1.25,740.04603,440.44517)">
      <path
         inkscape:connector-curvature="0"
         d="M 0,0 C 0.829,0 1.5,0.671 1.5,1.5 1.5,2.329 0.829,3 0,3 -0.827,3 -1.5,2.329 -1.5,1.5 -1.5,0.671 -0.827,0 0,0"
         style="fill:#231f20;fill-opacity:1;fill-rule:nonzero;stroke:none"
         id="path3293" />
    </g>
    <g
       id="g3295"
       transform="matrix(1.25,0,0,-1.25,740.04603,440.44517)">
      <path
         inkscape:connector-curvature="0"
         d="M 0,0 0,0.25 C 0.691,0.251 1.249,0.809 1.25,1.5 1.249,2.191 0.691,2.749 0,2.75 -0.689,2.749 -1.249,2.19 -1.25,1.5 -1.249,0.809 -0.689,0.251 0,0.25 L 0,0 0,-0.25 c -0.965,0 -1.75,0.783 -1.75,1.75 0,0.967 0.785,1.75 1.75,1.75 C 0.967,3.25 1.75,2.467 1.75,1.5 1.75,0.533 0.967,-0.25 0,-0.25 L 0,0 z"
         style="fill:#231f20;fill-opacity:1;fill-rule:nonzero;stroke:none"
         id="path3297" />
    </g>
    <g
       id="g3299"
       transform="matrix(1.25,0,0,-1.25,725.23603,427.94517)">
      <path
         inkscape:connector-curvature="0"
         d="M 0,0 C 0.829,0 1.5,0.671 1.5,1.5 1.5,2.329 0.829,3 0,3 -0.829,3 -1.5,2.329 -1.5,1.5 -1.5,0.671 -0.829,0 0,0"
         style="fill:#231f20;fill-opacity:1;fill-rule:nonzero;stroke:none"
         id="path3301" />
    </g>
    <g
       id="g3303"
       transform="matrix(1.25,0,0,-1.25,725.23603,427.94517)">
      <path
         inkscape:connector-curvature="0"
         d="M 0,0 0,0.25 C 0.691,0.251 1.249,0.809 1.25,1.5 1.249,2.191 0.691,2.749 0,2.75 -0.691,2.749 -1.249,2.191 -1.25,1.5 -1.249,0.809 -0.691,0.251 0,0.25 L 0,0 0,-0.25 c -0.967,0 -1.75,0.783 -1.75,1.75 0,0.967 0.783,1.75 1.75,1.75 C 0.967,3.25 1.75,2.467 1.75,1.5 1.75,0.533 0.967,-0.25 0,-0.25 L 0,0 z"
         style="fill:#231f20;fill-opacity:1;fill-rule:nonzero;stroke:none"
         id="path3305" />
    </g>
    <g
       id="g3307"
       transform="matrix(1.25,0,0,-1.25,710.42228,412.32017)">
      <path
         inkscape:connector-curvature="0"
         d="M 0,0 C 0.828,0 1.5,0.671 1.5,1.5 1.5,2.329 0.828,3 0,3 -0.828,3 -1.5,2.329 -1.5,1.5 -1.5,0.671 -0.828,0 0,0"
         style="fill:#231f20;fill-opacity:1;fill-rule:nonzero;stroke:none"
         id="path3309" />
    </g>
    <g
       id="g3311"
       transform="matrix(1.25,0,0,-1.25,710.42228,412.32017)">
      <path
         inkscape:connector-curvature="0"
         d="M 0,0 0,0.25 C 0.69,0.251 1.249,0.809 1.25,1.5 1.249,2.191 0.69,2.749 0,2.75 -0.69,2.749 -1.249,2.191 -1.25,1.5 -1.249,0.809 -0.69,0.251 0,0.25 L 0,0 0,-0.25 c -0.966,0 -1.75,0.783 -1.75,1.75 0,0.967 0.784,1.75 1.75,1.75 C 0.966,3.25 1.75,2.467 1.75,1.5 1.75,0.533 0.966,-0.25 0,-0.25 L 0,0 z"
         style="fill:#231f20;fill-opacity:1;fill-rule:nonzero;stroke:none"
         id="path3313" />
    </g>
    <g
       id="g3315"
       transform="matrix(1.25,0,0,-1.25,695.61103,397.63267)">
      <path
         inkscape:connector-curvature="0"
         d="M 0,0 C 0.829,0 1.5,0.671 1.5,1.5 1.5,2.329 0.829,3 0,3 -0.828,3 -1.5,2.329 -1.5,1.5 -1.5,0.671 -0.828,0 0,0"
         style="fill:#231f20;fill-opacity:1;fill-rule:nonzero;stroke:none"
         id="path3317" />
    </g>
    <g
       id="g3319"
       transform="matrix(1.25,0,0,-1.25,695.61103,397.63267)">
      <path
         inkscape:connector-curvature="0"
         d="M 0,0 0,0.25 C 0.691,0.251 1.249,0.809 1.25,1.5 1.249,2.191 0.691,2.749 0,2.75 -0.69,2.749 -1.249,2.191 -1.25,1.5 -1.249,0.809 -0.69,0.251 0,0.25 L 0,0 0,-0.25 c -0.966,0 -1.75,0.783 -1.75,1.75 0,0.967 0.784,1.75 1.75,1.75 C 0.967,3.25 1.75,2.467 1.75,1.5 1.75,0.533 0.967,-0.25 0,-0.25 L 0,0 z"
         style="fill:#231f20;fill-opacity:1;fill-rule:nonzero;stroke:none"
         id="path3321" />
    </g>
    <g
       id="g3323"
       transform="matrix(1.25,0,0,-1.25,680.79852,440.44517)">
      <path
         inkscape:connector-curvature="0"
         d="M 0,0 C 0.828,0 1.5,0.671 1.5,1.5 1.5,2.329 0.828,3 0,3 -0.828,3 -1.5,2.329 -1.5,1.5 -1.5,0.671 -0.828,0 0,0"
         style="fill:#231f20;fill-opacity:1;fill-rule:nonzero;stroke:none"
         id="path3325" />
    </g>
    <g
       id="g3327"
       transform="matrix(1.25,0,0,-1.25,680.79852,440.44517)">
      <path
         inkscape:connector-curvature="0"
         d="M 0,0 0,0.25 C 0.69,0.251 1.249,0.809 1.25,1.5 1.249,2.191 0.69,2.749 0,2.75 -0.69,2.749 -1.249,2.191 -1.25,1.5 -1.249,0.809 -0.69,0.251 0,0.25 L 0,0 0,-0.25 c -0.966,0 -1.75,0.783 -1.75,1.75 0,0.967 0.784,1.75 1.75,1.75 C 0.966,3.25 1.75,2.467 1.75,1.5 1.75,0.533 0.966,-0.25 0,-0.25 L 0,0 z"
         style="fill:#231f20;fill-opacity:1;fill-rule:nonzero;stroke:none"
         id="path3329" />
    </g>
    <g
       id="g3331"
       transform="matrix(1.25,0,0,-1.25,665.98603,440.44517)">
      <path
         inkscape:connector-curvature="0"
         d="M 0,0 C 0.829,0 1.5,0.671 1.5,1.5 1.5,2.329 0.829,3 0,3 -0.828,3 -1.5,2.329 -1.5,1.5 -1.5,0.671 -0.828,0 0,0"
         style="fill:#231f20;fill-opacity:1;fill-rule:nonzero;stroke:none"
         id="path3333" />
    </g>
    <g
       id="g3335"
       transform="matrix(1.25,0,0,-1.25,665.98603,440.44517)">
      <path
         inkscape:connector-curvature="0"
         d="M 0,0 0,0.25 C 0.691,0.251 1.249,0.809 1.25,1.5 1.249,2.191 0.691,2.749 0,2.75 -0.69,2.749 -1.249,2.191 -1.25,1.5 -1.249,0.809 -0.69,0.251 0,0.25 L 0,0 0,-0.25 c -0.966,0 -1.75,0.783 -1.75,1.75 0,0.967 0.784,1.75 1.75,1.75 C 0.967,3.25 1.75,2.467 1.75,1.5 1.75,0.533 0.967,-0.25 0,-0.25 L 0,0 z"
         style="fill:#231f20;fill-opacity:1;fill-rule:nonzero;stroke:none"
         id="path3337" />
    </g>
    <g
       id="g3339"
       transform="matrix(1.25,0,0,-1.25,651.17353,440.44517)">
      <path
         inkscape:connector-curvature="0"
         d="M 0,0 C 0.829,0 1.5,0.671 1.5,1.5 1.5,2.329 0.829,3 0,3 -0.829,3 -1.5,2.329 -1.5,1.5 -1.5,0.671 -0.829,0 0,0"
         style="fill:#231f20;fill-opacity:1;fill-rule:nonzero;stroke:none"
         id="path3341" />
    </g>
    <g
       id="g3343"
       transform="matrix(1.25,0,0,-1.25,651.17353,440.44517)">
      <path
         inkscape:connector-curvature="0"
         d="M 0,0 0,0.25 C 0.691,0.251 1.249,0.809 1.25,1.5 1.249,2.191 0.691,2.749 0,2.75 -0.691,2.749 -1.249,2.191 -1.25,1.5 -1.249,0.809 -0.691,0.251 0,0.25 L 0,0 0,-0.25 c -0.967,0 -1.75,0.783 -1.75,1.75 0,0.967 0.783,1.75 1.75,1.75 C 0.967,3.25 1.75,2.467 1.75,1.5 1.75,0.533 0.967,-0.25 0,-0.25 L 0,0 z"
         style="fill:#231f20;fill-opacity:1;fill-rule:nonzero;stroke:none"
         id="path3345" />
    </g>
    <g
       id="g3347"
       transform="matrix(1.25,0,0,-1.25,636.36228,440.44517)">
      <path
         inkscape:connector-curvature="0"
         d="M 0,0 C 0.829,0 1.5,0.671 1.5,1.5 1.5,2.329 0.829,3 0,3 -0.828,3 -1.5,2.329 -1.5,1.5 -1.5,0.671 -0.828,0 0,0"
         style="fill:#231f20;fill-opacity:1;fill-rule:nonzero;stroke:none"
         id="path3349" />
    </g>
    <g
       id="g3351"
       transform="matrix(1.25,0,0,-1.25,636.36228,440.44517)">
      <path
         inkscape:connector-curvature="0"
         d="M 0,0 0,0.25 C 0.691,0.251 1.249,0.809 1.25,1.5 1.249,2.191 0.691,2.749 0,2.75 -0.69,2.749 -1.249,2.191 -1.25,1.5 -1.249,0.809 -0.69,0.251 0,0.25 L 0,0 0,-0.25 c -0.966,0 -1.75,0.783 -1.75,1.75 0,0.967 0.784,1.75 1.75,1.75 C 0.967,3.25 1.75,2.467 1.75,1.5 1.75,0.533 0.967,-0.25 0,-0.25 L 0,0 z"
         style="fill:#231f20;fill-opacity:1;fill-rule:nonzero;stroke:none"
         id="path3353" />
    </g>
    <g
       id="g3355"
       transform="matrix(1.25,0,0,-1.25,621.54853,440.44517)">
      <path
         inkscape:connector-curvature="0"
         d="M 0,0 C 0.829,0 1.5,0.671 1.5,1.5 1.5,2.329 0.829,3 0,3 -0.828,3 -1.5,2.329 -1.5,1.5 -1.5,0.671 -0.828,0 0,0"
         style="fill:#231f20;fill-opacity:1;fill-rule:nonzero;stroke:none"
         id="path3357" />
    </g>
  </g>
</svg>
