<?xml version="1.0" encoding="UTF-8" standalone="no"?>
<!-- Created with Inkscape (http://www.inkscape.org/) -->

<svg
   xmlns:dc="http://purl.org/dc/elements/1.1/"
   xmlns:cc="http://creativecommons.org/ns#"
   xmlns:rdf="http://www.w3.org/1999/02/22-rdf-syntax-ns#"
   xmlns:svg="http://www.w3.org/2000/svg"
   xmlns="http://www.w3.org/2000/svg"
   xmlns:sodipodi="http://sodipodi.sourceforge.net/DTD/sodipodi-0.dtd"
   xmlns:inkscape="http://www.inkscape.org/namespaces/inkscape"
   width="393.58472"
   height="84.272461"
   id="svg7846"
   version="1.1"
   inkscape:version="0.48.3.1 r9886"
   sodipodi:docname="Documento nuevo 21">
  <defs
     id="defs7848">
    <clipPath
       clipPathUnits="userSpaceOnUse"
       id="clipPath4183">
      <path
         inkscape:connector-curvature="0"
         d="m 488.243,693.24 -354.068,0 0,-495.75 354.068,0 0,495.75 z"
         id="path4185" />
    </clipPath>
  </defs>
  <sodipodi:namedview
     id="base"
     pagecolor="#ffffff"
     bordercolor="#666666"
     borderopacity="1.0"
     inkscape:pageopacity="0.0"
     inkscape:pageshadow="2"
     inkscape:zoom="1.979899"
     inkscape:cx="172.25512"
     inkscape:cy="-4.1728528"
     inkscape:document-units="px"
     inkscape:current-layer="layer1"
     showgrid="false"
     fit-margin-top="0"
     fit-margin-left="0"
     fit-margin-right="0"
     fit-margin-bottom="0"
     inkscape:window-width="1920"
     inkscape:window-height="1021"
     inkscape:window-x="0"
     inkscape:window-y="27"
     inkscape:window-maximized="1" />
  <metadata
     id="metadata7851">
    <rdf:RDF>
      <cc:Work
         rdf:about="">
        <dc:format>image/svg+xml</dc:format>
        <dc:type
           rdf:resource="http://purl.org/dc/dcmitype/StillImage" />
        <dc:title></dc:title>
      </cc:Work>
    </rdf:RDF>
  </metadata>
  <g
     inkscape:label="Capa 1"
     inkscape:groupmode="layer"
     id="layer1"
     transform="translate(-153.20764,-530.12097)">
    <text
       style="font-size:15px"
       y="536.89081"
       x="248.34802"
       id="text3723">
      <tspan
         style="font-size:10px;font-style:italic;font-variant:normal;writing-mode:lr-tb;fill:#231f20;fill-opacity:1;fill-rule:nonzero;stroke:none;font-family:Times New Roman;-inkscape-font-specification:TimesTen-Italic"
         x="248.34802"
         y="536.89081"
         id="tspan3725">x</tspan>
    </text>
    <text
       style="font-size:15px"
       y="539.39331"
       x="253.3454"
       id="text3727">
      <tspan
         style="font-size:7.5px;font-variant:normal;font-weight:normal;writing-mode:lr-tb;fill:#231f20;fill-opacity:1;fill-rule:nonzero;stroke:none;font-family:Times New Roman;-inkscape-font-specification:TimesTen-Roman"
         x="253.3454"
         y="539.39331"
         id="tspan3729">3</tspan>
    </text>
    <text
       style="font-size:15px"
       y="536.89343"
       x="257.8454"
       id="text3731">
      <tspan
         style="font-size:10px;font-variant:normal;font-weight:normal;writing-mode:lr-tb;fill:#231f20;fill-opacity:1;fill-rule:nonzero;stroke:none;font-family:Times New Roman;-inkscape-font-specification:TimesTen-Roman"
         x="257.8454"
         y="536.89343"
         id="tspan3733">[</tspan>
    </text>
    <text
       style="font-size:15px"
       y="536.89343"
       x="261.17538"
       id="text3735">
      <tspan
         style="font-size:10px;font-style:italic;font-variant:normal;writing-mode:lr-tb;fill:#231f20;fill-opacity:1;fill-rule:nonzero;stroke:none;font-family:Times New Roman;-inkscape-font-specification:TimesTen-Italic"
         x="261.17538"
         y="536.89343"
         id="tspan3737">n</tspan>
    </text>
    <text
       style="font-size:15px"
       y="536.89343"
       x="266.73538"
       id="text3739">
      <tspan
         style="font-size:10px;font-variant:normal;font-weight:normal;writing-mode:lr-tb;fill:#231f20;fill-opacity:1;fill-rule:nonzero;stroke:none;font-family:Times New Roman;-inkscape-font-specification:TimesTen-Roman"
         x="266.73538 270.0654 278.5654"
         y="536.89343"
         sodipodi:role="line"
         id="tspan3741">]</tspan>
    </text>
    <text
       style="font-size:15px"
       y="536.89343"
       x="461.8154"
       id="text3767">
      <tspan
         style="font-size:10px;font-style:italic;font-variant:normal;writing-mode:lr-tb;fill:#231f20;fill-opacity:1;fill-rule:nonzero;stroke:none;font-family:Times New Roman;-inkscape-font-specification:TimesTen-Italic"
         x="461.8154"
         y="536.89343"
         id="tspan3769">y</tspan>
    </text>
    <text
       style="font-size:15px"
       y="539.39331"
       x="466.81516"
       id="text3771">
      <tspan
         style="font-size:7.5px;font-variant:normal;font-weight:normal;writing-mode:lr-tb;fill:#231f20;fill-opacity:1;fill-rule:nonzero;stroke:none;font-family:Times New Roman;-inkscape-font-specification:TimesTen-Roman"
         x="466.81516"
         y="539.39331"
         id="tspan3773">3</tspan>
    </text>
    <text
       style="font-size:15px"
       y="536.89343"
       x="471.31516"
       id="text3775">
      <tspan
         style="font-size:10px;font-variant:normal;font-weight:normal;writing-mode:lr-tb;fill:#231f20;fill-opacity:1;fill-rule:nonzero;stroke:none;font-family:Times New Roman;-inkscape-font-specification:TimesTen-Roman"
         x="471.31516"
         y="536.89343"
         id="tspan3777">[</tspan>
    </text>
    <text
       style="font-size:15px"
       y="536.89343"
       x="474.64514"
       id="text3779">
      <tspan
         style="font-size:10px;font-style:italic;font-variant:normal;writing-mode:lr-tb;fill:#231f20;fill-opacity:1;fill-rule:nonzero;stroke:none;font-family:Times New Roman;-inkscape-font-specification:TimesTen-Italic"
         x="474.64514"
         y="536.89343"
         id="tspan3781">n</tspan>
    </text>
    <text
       style="font-size:15px"
       y="536.89343"
       x="480.20514"
       id="text3783">
      <tspan
         style="font-size:10px;font-variant:normal;font-weight:normal;writing-mode:lr-tb;fill:#231f20;fill-opacity:1;fill-rule:nonzero;stroke:none;font-family:Times New Roman;-inkscape-font-specification:TimesTen-Roman"
         x="480.20514 483.53516 492.03516"
         y="536.89343"
         sodipodi:role="line"
         id="tspan3785">]</tspan>
    </text>
    <g
       transform="matrix(1.25,0,0,-1.25,-14.511108,1011.5684)"
       id="g4179">
      <g
         id="g4181"
         clip-path="url(#clipPath4183)">
        <g
           id="g4187"
           transform="translate(329.308,445.74001)">
          <path
             inkscape:connector-curvature="0"
             d="m -51.883,-91.75 -143.25,0 0,0.5 143.25,0 z"
             style="fill:#231f20;fill-opacity:1;fill-rule:nonzero;stroke:none"
             id="path4189"
             sodipodi:nodetypes="ccccc" />
        </g>
      </g>
    </g>
    <text
       style="font-size:15px"
       y="579.49847"
       x="239.56201"
       id="text4191">
      <tspan
         style="font-size:10px;font-variant:normal;font-weight:normal;writing-mode:lr-tb;fill:#231f20;fill-opacity:1;fill-rule:nonzero;stroke:none;font-family:Times New Roman;-inkscape-font-specification:TimesTen-Roman"
         x="239.56201"
         y="579.49847"
         id="tspan4193">0</tspan>
      <tspan
         style="font-size:10px;font-variant:normal;font-weight:normal;writing-mode:lr-tb;fill:#231f20;fill-opacity:1;fill-rule:nonzero;stroke:none;font-family:Times New Roman;-inkscape-font-specification:TimesTen-Roman"
         x="283.93201"
         y="565.16846"
         id="tspan4195">3</tspan>
    </text>
    <text
       style="font-size:15px"
       y="579.49847"
       x="327.82202"
       id="text4197">
      <tspan
         style="font-size:10px;font-style:italic;font-variant:normal;writing-mode:lr-tb;fill:#231f20;fill-opacity:1;fill-rule:nonzero;stroke:none;font-family:Times New Roman;-inkscape-font-specification:TimesTen-Italic"
         x="327.82202"
         y="579.49847"
         id="tspan4199">n</tspan>
    </text>
    <g
       id="g4201"
       transform="matrix(1.25,0,0,-1.25,287.05889,568.91469)">
      <path
         inkscape:connector-curvature="0"
         d="m 0,0 0,-34.633 -1,0 L -1,0"
         style="fill:#231f20;fill-opacity:1;fill-rule:nonzero;stroke:none"
         id="path4203" />
    </g>
    <g
       id="g4205"
       transform="matrix(1.25,0,0,-1.25,316.06014,570.64343)">
      <path
         inkscape:connector-curvature="0"
         d="M 0,0 C 0.829,0 1.5,0.672 1.5,1.5 1.5,2.328 0.829,3 0,3 -0.828,3 -1.5,2.328 -1.5,1.5 -1.5,0.672 -0.828,0 0,0"
         style="fill:#231f20;fill-opacity:1;fill-rule:nonzero;stroke:none"
         id="path4207" />
    </g>
    <g
       id="g4209"
       transform="matrix(1.25,0,0,-1.25,316.06014,570.64343)">
      <path
         inkscape:connector-curvature="0"
         d="M 0,0 0,0.25 C 0.691,0.251 1.249,0.81 1.25,1.5 1.249,2.19 0.691,2.749 0,2.75 -0.69,2.749 -1.249,2.19 -1.25,1.5 -1.249,0.81 -0.69,0.251 0,0.25 L 0,0 0,-0.25 c -0.966,0 -1.75,0.784 -1.75,1.75 0,0.966 0.784,1.75 1.75,1.75 C 0.967,3.25 1.75,2.466 1.75,1.5 1.75,0.534 0.967,-0.25 0,-0.25 L 0,0 z"
         style="fill:#231f20;fill-opacity:1;fill-rule:nonzero;stroke:none"
         id="path4211" />
    </g>
    <g
       id="g4213"
       transform="matrix(1.25,0,0,-1.25,301.24763,570.64343)">
      <path
         inkscape:connector-curvature="0"
         d="M 0,0 C 0.828,0 1.5,0.672 1.5,1.5 1.5,2.328 0.828,3 0,3 -0.829,3 -1.5,2.328 -1.5,1.5 -1.5,0.672 -0.829,0 0,0"
         style="fill:#231f20;fill-opacity:1;fill-rule:nonzero;stroke:none"
         id="path4215" />
    </g>
    <g
       id="g4217"
       transform="matrix(1.25,0,0,-1.25,301.24763,570.64343)">
      <path
         inkscape:connector-curvature="0"
         d="M 0,0 0,0.25 C 0.69,0.251 1.249,0.81 1.25,1.5 1.249,2.19 0.69,2.749 0,2.75 -0.691,2.749 -1.249,2.19 -1.25,1.5 -1.249,0.81 -0.691,0.251 0,0.25 L 0,0 0,-0.25 c -0.967,0 -1.75,0.784 -1.75,1.75 0,0.966 0.783,1.75 1.75,1.75 C 0.966,3.25 1.75,2.466 1.75,1.5 1.75,0.534 0.966,-0.25 0,-0.25 L 0,0 z"
         style="fill:#231f20;fill-opacity:1;fill-rule:nonzero;stroke:none"
         id="path4219" />
    </g>
    <g
       id="g4221"
       transform="matrix(1.25,0,0,-1.25,286.43389,614.08093)">
      <path
         inkscape:connector-curvature="0"
         d="M 0,0 C 0.828,0 1.5,0.672 1.5,1.5 1.5,2.328 0.828,3 0,3 -0.829,3 -1.5,2.328 -1.5,1.5 -1.5,0.672 -0.829,0 0,0"
         style="fill:#231f20;fill-opacity:1;fill-rule:nonzero;stroke:none"
         id="path4223" />
    </g>
    <g
       id="g4225"
       transform="matrix(1.25,0,0,-1.25,286.43389,614.08093)">
      <path
         inkscape:connector-curvature="0"
         d="M 0,0 0,0.25 C 0.69,0.251 1.249,0.81 1.25,1.5 1.249,2.19 0.69,2.749 0,2.75 -0.691,2.749 -1.249,2.19 -1.25,1.5 -1.249,0.81 -0.691,0.251 0,0.25 L 0,0 0,-0.25 c -0.967,0 -1.75,0.784 -1.75,1.75 0,0.966 0.783,1.75 1.75,1.75 C 0.966,3.25 1.75,2.466 1.75,1.5 1.75,0.534 0.966,-0.25 0,-0.25 L 0,0 z"
         style="fill:#231f20;fill-opacity:1;fill-rule:nonzero;stroke:none"
         id="path4227" />
    </g>
    <g
       id="g4229"
       transform="matrix(1.25,0,0,-1.25,271.62264,570.64343)">
      <path
         inkscape:connector-curvature="0"
         d="M 0,0 C 0.828,0 1.5,0.672 1.5,1.5 1.5,2.328 0.828,3 0,3 -0.829,3 -1.5,2.328 -1.5,1.5 -1.5,0.672 -0.829,0 0,0"
         style="fill:#231f20;fill-opacity:1;fill-rule:nonzero;stroke:none"
         id="path4231" />
    </g>
    <g
       id="g4233"
       transform="matrix(1.25,0,0,-1.25,271.62264,570.64343)">
      <path
         inkscape:connector-curvature="0"
         d="M 0,0 0,0.25 C 0.69,0.251 1.249,0.81 1.25,1.5 1.249,2.19 0.69,2.749 0,2.75 -0.691,2.749 -1.249,2.19 -1.25,1.5 -1.249,0.81 -0.691,0.251 0,0.25 L 0,0 0,-0.25 c -0.967,0 -1.75,0.784 -1.75,1.75 0,0.966 0.783,1.75 1.75,1.75 C 0.966,3.25 1.75,2.466 1.75,1.5 1.75,0.534 0.966,-0.25 0,-0.25 L 0,0 z"
         style="fill:#231f20;fill-opacity:1;fill-rule:nonzero;stroke:none"
         id="path4235" />
    </g>
    <g
       id="g4237"
       transform="matrix(1.25,0,0,-1.25,256.80889,570.64343)">
      <path
         inkscape:connector-curvature="0"
         d="M 0,0 C 0.829,0 1.5,0.672 1.5,1.5 1.5,2.328 0.829,3 0,3 -0.828,3 -1.5,2.328 -1.5,1.5 -1.5,0.672 -0.828,0 0,0"
         style="fill:#231f20;fill-opacity:1;fill-rule:nonzero;stroke:none"
         id="path4239" />
    </g>
    <g
       id="g4241"
       transform="matrix(1.25,0,0,-1.25,256.80889,570.64343)">
      <path
         inkscape:connector-curvature="0"
         d="M 0,0 0,0.25 C 0.691,0.251 1.249,0.81 1.25,1.5 1.249,2.19 0.691,2.749 0,2.75 -0.69,2.749 -1.249,2.19 -1.25,1.5 -1.249,0.81 -0.69,0.251 0,0.25 L 0,0 0,-0.25 c -0.966,0 -1.75,0.784 -1.75,1.75 0,0.966 0.784,1.75 1.75,1.75 C 0.967,3.25 1.75,2.466 1.75,1.5 1.75,0.534 0.967,-0.25 0,-0.25 L 0,0 z"
         style="fill:#231f20;fill-opacity:1;fill-rule:nonzero;stroke:none"
         id="path4243" />
    </g>
    <g
       id="g4245"
       transform="matrix(1.25,0,0,-1.25,241.99764,570.64343)">
      <path
         inkscape:connector-curvature="0"
         d="M 0,0 C 0.829,0 1.5,0.672 1.5,1.5 1.5,2.328 0.829,3 0,3 -0.828,3 -1.5,2.328 -1.5,1.5 -1.5,0.672 -0.828,0 0,0"
         style="fill:#231f20;fill-opacity:1;fill-rule:nonzero;stroke:none"
         id="path4247" />
    </g>
    <g
       id="g4249"
       transform="matrix(1.25,0,0,-1.25,241.99764,570.64343)">
      <path
         inkscape:connector-curvature="0"
         d="M 0,0 0,0.25 C 0.691,0.251 1.249,0.81 1.25,1.5 1.249,2.19 0.691,2.749 0,2.75 -0.69,2.749 -1.249,2.19 -1.25,1.5 -1.249,0.81 -0.69,0.251 0,0.25 L 0,0 0,-0.25 c -0.966,0 -1.75,0.784 -1.75,1.75 0,0.966 0.784,1.75 1.75,1.75 C 0.967,3.25 1.75,2.466 1.75,1.5 1.75,0.534 0.967,-0.25 0,-0.25 L 0,0 z"
         style="fill:#231f20;fill-opacity:1;fill-rule:nonzero;stroke:none"
         id="path4251" />
    </g>
    <g
       id="g4253"
       transform="matrix(1.25,0,0,-1.25,227.18513,570.64343)">
      <path
         inkscape:connector-curvature="0"
         d="M 0,0 C 0.828,0 1.5,0.672 1.5,1.5 1.5,2.328 0.828,3 0,3 -0.829,3 -1.5,2.328 -1.5,1.5 -1.5,0.672 -0.829,0 0,0"
         style="fill:#231f20;fill-opacity:1;fill-rule:nonzero;stroke:none"
         id="path4255" />
    </g>
    <g
       id="g4257"
       transform="matrix(1.25,0,0,-1.25,227.18513,570.64343)">
      <path
         inkscape:connector-curvature="0"
         d="M 0,0 0,0.25 C 0.69,0.251 1.249,0.81 1.25,1.5 1.249,2.19 0.69,2.749 0,2.75 -0.691,2.749 -1.249,2.19 -1.25,1.5 -1.249,0.81 -0.691,0.251 0,0.25 L 0,0 0,-0.25 c -0.967,0 -1.75,0.784 -1.75,1.75 0,0.966 0.783,1.75 1.75,1.75 C 0.966,3.25 1.75,2.466 1.75,1.5 1.75,0.534 0.966,-0.25 0,-0.25 L 0,0 z"
         style="fill:#231f20;fill-opacity:1;fill-rule:nonzero;stroke:none"
         id="path4259" />
    </g>
    <g
       id="g4261"
       transform="matrix(1.25,0,0,-1.25,212.37389,570.64343)">
      <path
         inkscape:connector-curvature="0"
         d="M 0,0 C 0.828,0 1.5,0.672 1.5,1.5 1.5,2.328 0.828,3 0,3 -0.829,3 -1.5,2.328 -1.5,1.5 -1.5,0.672 -0.829,0 0,0"
         style="fill:#231f20;fill-opacity:1;fill-rule:nonzero;stroke:none"
         id="path4263" />
    </g>
    <g
       id="g4265"
       transform="matrix(1.25,0,0,-1.25,212.37389,570.64343)">
      <path
         inkscape:connector-curvature="0"
         d="M 0,0 0,0.25 C 0.69,0.251 1.249,0.81 1.25,1.5 1.249,2.19 0.69,2.749 0,2.75 -0.691,2.749 -1.249,2.19 -1.25,1.5 -1.249,0.81 -0.691,0.251 0,0.25 L 0,0 0,-0.25 c -0.967,0 -1.75,0.784 -1.75,1.75 0,0.966 0.783,1.75 1.75,1.75 C 0.966,3.25 1.75,2.466 1.75,1.5 1.75,0.534 0.966,-0.25 0,-0.25 L 0,0 z"
         style="fill:#231f20;fill-opacity:1;fill-rule:nonzero;stroke:none"
         id="path4267" />
    </g>
    <g
       id="g4269"
       transform="matrix(1.25,0,0,-1.25,197.56014,570.64343)">
      <path
         inkscape:connector-curvature="0"
         d="M 0,0 C 0.828,0 1.5,0.672 1.5,1.5 1.5,2.328 0.828,3 0,3 -0.829,3 -1.5,2.328 -1.5,1.5 -1.5,0.672 -0.829,0 0,0"
         style="fill:#231f20;fill-opacity:1;fill-rule:nonzero;stroke:none"
         id="path4271" />
    </g>
    <g
       id="g4273"
       transform="matrix(1.25,0,0,-1.25,197.56014,570.64343)">
      <path
         inkscape:connector-curvature="0"
         d="M 0,0 0,0.25 C 0.69,0.251 1.249,0.81 1.25,1.5 1.249,2.19 0.69,2.749 0,2.75 -0.691,2.749 -1.249,2.19 -1.25,1.5 -1.249,0.81 -0.691,0.251 0,0.25 L 0,0 0,-0.25 c -0.967,0 -1.75,0.784 -1.75,1.75 0,0.966 0.783,1.75 1.75,1.75 C 0.966,3.25 1.75,2.466 1.75,1.5 1.75,0.534 0.966,-0.25 0,-0.25 L 0,0 z"
         style="fill:#231f20;fill-opacity:1;fill-rule:nonzero;stroke:none"
         id="path4275" />
    </g>
    <g
       id="g4277"
       transform="matrix(1.25,0,0,-1.25,182.74889,570.64343)">
      <path
         inkscape:connector-curvature="0"
         d="M 0,0 C 0.828,0 1.5,0.672 1.5,1.5 1.5,2.328 0.828,3 0,3 -0.828,3 -1.5,2.328 -1.5,1.5 -1.5,0.672 -0.828,0 0,0"
         style="fill:#231f20;fill-opacity:1;fill-rule:nonzero;stroke:none"
         id="path4279" />
    </g>
    <g
       id="g4281"
       transform="matrix(1.25,0,0,-1.25,182.74889,570.64343)">
      <path
         inkscape:connector-curvature="0"
         d="M 0,0 0,0.25 C 0.69,0.251 1.249,0.81 1.25,1.5 1.249,2.19 0.69,2.749 0,2.75 -0.69,2.749 -1.249,2.19 -1.25,1.5 -1.249,0.81 -0.69,0.251 0,0.25 L 0,0 0,-0.25 c -0.966,0 -1.75,0.784 -1.75,1.75 0,0.966 0.784,1.75 1.75,1.75 C 0.966,3.25 1.75,2.466 1.75,1.5 1.75,0.534 0.966,-0.25 0,-0.25 L 0,0 z"
         style="fill:#231f20;fill-opacity:1;fill-rule:nonzero;stroke:none"
         id="path4283" />
    </g>
    <g
       id="g4285"
       transform="matrix(1.25,0,0,-1.25,167.93514,570.64343)">
      <path
         inkscape:connector-curvature="0"
         d="M 0,0 C 0.829,0 1.5,0.672 1.5,1.5 1.5,2.328 0.829,3 0,3 -0.828,3 -1.5,2.328 -1.5,1.5 -1.5,0.672 -0.828,0 0,0"
         style="fill:#231f20;fill-opacity:1;fill-rule:nonzero;stroke:none"
         id="path4287" />
    </g>
    <g
       id="g4289"
       transform="matrix(1.25,0,0,-1.25,167.93514,570.64343)">
      <path
         inkscape:connector-curvature="0"
         d="M 0,0 0,0.25 C 0.691,0.251 1.249,0.81 1.25,1.5 1.249,2.19 0.691,2.749 0,2.75 -0.69,2.749 -1.249,2.19 -1.25,1.5 -1.249,0.81 -0.69,0.251 0,0.25 L 0,0 0,-0.25 c -0.966,0 -1.75,0.784 -1.75,1.75 0,0.966 0.784,1.75 1.75,1.75 C 0.967,3.25 1.75,2.466 1.75,1.5 1.75,0.534 0.967,-0.25 0,-0.25 L 0,0 z m 302.968,1.25 -143.25,0 0,0.5 143.25,0 0,-0.5 z"
         style="fill:#231f20;fill-opacity:1;fill-rule:nonzero;stroke:none"
         id="path4291" />
    </g>
    <text
       style="font-size:15px"
       y="579.49847"
       x="542.19763"
       id="text4301">
      <tspan
         style="font-size:10px;font-style:italic;font-variant:normal;writing-mode:lr-tb;fill:#231f20;fill-opacity:1;fill-rule:nonzero;stroke:none;font-family:Times New Roman;-inkscape-font-specification:TimesTen-Italic"
         x="542.19763"
         y="579.49847"
         id="tspan4303">n</tspan>
    </text>
    <path
       inkscape:connector-curvature="0"
       d="m 531.06014,581.58094 -1.25,0 0,-12.66625 1.25,0 0,12.66625 z m -14.8125,14.0625 -1.25,0 0,-26.72875 1.25,0 0,26.72875 z m -14.815,15.9375 -1.25,0 0,-42.66625 1.25,0 0,42.66625 z"
       style="fill:#231f20;fill-opacity:1;fill-rule:nonzero;stroke:none"
       id="path4305" />
    <g
       id="g4307"
       transform="matrix(1.25,0,0,-1.25,530.43514,583.45593)">
      <path
         inkscape:connector-curvature="0"
         d="M 0,0 C 0.829,0 1.5,0.672 1.5,1.5 1.5,2.328 0.829,3 0,3 -0.828,3 -1.5,2.328 -1.5,1.5 -1.5,0.672 -0.828,0 0,0"
         style="fill:#231f20;fill-opacity:1;fill-rule:nonzero;stroke:none"
         id="path4309" />
    </g>
    <g
       id="g4311"
       transform="matrix(1.25,0,0,-1.25,530.43514,583.45593)">
      <path
         inkscape:connector-curvature="0"
         d="M 0,0 0,0.25 C 0.691,0.251 1.249,0.81 1.25,1.5 1.249,2.19 0.691,2.749 0,2.75 -0.69,2.749 -1.249,2.19 -1.25,1.5 -1.249,0.81 -0.69,0.251 0,0.25 L 0,0 0,-0.25 c -0.966,0 -1.75,0.784 -1.75,1.75 0,0.966 0.784,1.75 1.75,1.75 C 0.967,3.25 1.75,2.466 1.75,1.5 1.75,0.534 0.967,-0.25 0,-0.25 L 0,0 z"
         style="fill:#231f20;fill-opacity:1;fill-rule:nonzero;stroke:none"
         id="path4313" />
    </g>
    <g
       id="g4315"
       transform="matrix(1.25,0,0,-1.25,515.62263,597.51843)">
      <path
         inkscape:connector-curvature="0"
         d="M 0,0 C 0.828,0 1.5,0.672 1.5,1.5 1.5,2.328 0.828,3 0,3 -0.828,3 -1.5,2.328 -1.5,1.5 -1.5,0.672 -0.828,0 0,0"
         style="fill:#231f20;fill-opacity:1;fill-rule:nonzero;stroke:none"
         id="path4317" />
    </g>
    <g
       id="g4319"
       transform="matrix(1.25,0,0,-1.25,515.62263,597.51843)">
      <path
         inkscape:connector-curvature="0"
         d="M 0,0 0,0.25 C 0.69,0.251 1.249,0.81 1.25,1.5 1.249,2.19 0.69,2.749 0,2.75 -0.69,2.749 -1.249,2.19 -1.25,1.5 -1.249,0.81 -0.69,0.251 0,0.25 L 0,0 0,-0.25 c -0.966,0 -1.75,0.784 -1.75,1.75 0,0.966 0.784,1.75 1.75,1.75 C 0.966,3.25 1.75,2.466 1.75,1.5 1.75,0.534 0.966,-0.25 0,-0.25 L 0,0 z"
         style="fill:#231f20;fill-opacity:1;fill-rule:nonzero;stroke:none"
         id="path4321" />
    </g>
    <g
       id="g4323"
       transform="matrix(1.25,0,0,-1.25,500.80764,613.45593)">
      <path
         inkscape:connector-curvature="0"
         d="M 0,0 C 0.829,0 1.5,0.672 1.5,1.5 1.5,2.328 0.829,3 0,3 -0.827,3 -1.5,2.328 -1.5,1.5 -1.5,0.672 -0.827,0 0,0"
         style="fill:#231f20;fill-opacity:1;fill-rule:nonzero;stroke:none"
         id="path4325" />
    </g>
    <g
       id="g4327"
       transform="matrix(1.25,0,0,-1.25,500.80764,613.45593)">
      <path
         inkscape:connector-curvature="0"
         d="M 0,0 0,0.25 C 0.691,0.251 1.249,0.81 1.25,1.5 1.249,2.19 0.691,2.749 0,2.75 -0.689,2.749 -1.249,2.189 -1.25,1.5 -1.249,0.81 -0.689,0.251 0,0.25 L 0,0 0,-0.25 c -0.965,0 -1.75,0.783 -1.75,1.75 0,0.966 0.785,1.75 1.75,1.75 C 0.967,3.25 1.75,2.466 1.75,1.5 1.75,0.534 0.967,-0.25 0,-0.25 L 0,0 z"
         style="fill:#231f20;fill-opacity:1;fill-rule:nonzero;stroke:none"
         id="path4329" />
    </g>
    <g
       id="g4331"
       transform="matrix(1.25,0,0,-1.25,485.99764,570.64343)">
      <path
         inkscape:connector-curvature="0"
         d="M 0,0 C 0.829,0 1.5,0.672 1.5,1.5 1.5,2.328 0.829,3 0,3 -0.829,3 -1.5,2.328 -1.5,1.5 -1.5,0.672 -0.829,0 0,0"
         style="fill:#231f20;fill-opacity:1;fill-rule:nonzero;stroke:none"
         id="path4333" />
    </g>
    <g
       id="g4335"
       transform="matrix(1.25,0,0,-1.25,485.99764,570.64343)">
      <path
         inkscape:connector-curvature="0"
         d="M 0,0 0,0.25 C 0.691,0.251 1.249,0.81 1.25,1.5 1.249,2.19 0.691,2.749 0,2.75 -0.691,2.749 -1.249,2.19 -1.25,1.5 -1.249,0.81 -0.691,0.251 0,0.25 L 0,0 0,-0.25 c -0.967,0 -1.75,0.784 -1.75,1.75 0,0.966 0.783,1.75 1.75,1.75 C 0.967,3.25 1.75,2.466 1.75,1.5 1.75,0.534 0.967,-0.25 0,-0.25 L 0,0 z"
         style="fill:#231f20;fill-opacity:1;fill-rule:nonzero;stroke:none"
         id="path4337" />
    </g>
    <g
       id="g4339"
       transform="matrix(1.25,0,0,-1.25,471.18389,570.64343)">
      <path
         inkscape:connector-curvature="0"
         d="M 0,0 C 0.828,0 1.5,0.672 1.5,1.5 1.5,2.328 0.828,3 0,3 -0.828,3 -1.5,2.328 -1.5,1.5 -1.5,0.672 -0.828,0 0,0"
         style="fill:#231f20;fill-opacity:1;fill-rule:nonzero;stroke:none"
         id="path4341" />
    </g>
    <g
       id="g4343"
       transform="matrix(1.25,0,0,-1.25,471.18389,570.64343)">
      <path
         inkscape:connector-curvature="0"
         d="M 0,0 0,0.25 C 0.69,0.251 1.249,0.81 1.25,1.5 1.249,2.19 0.69,2.749 0,2.75 -0.69,2.749 -1.249,2.19 -1.25,1.5 -1.249,0.81 -0.69,0.251 0,0.25 L 0,0 0,-0.25 c -0.966,0 -1.75,0.784 -1.75,1.75 0,0.966 0.784,1.75 1.75,1.75 C 0.966,3.25 1.75,2.466 1.75,1.5 1.75,0.534 0.966,-0.25 0,-0.25 L 0,0 z"
         style="fill:#231f20;fill-opacity:1;fill-rule:nonzero;stroke:none"
         id="path4345" />
    </g>
    <g
       id="g4347"
       transform="matrix(1.25,0,0,-1.25,456.37264,570.64343)">
      <path
         inkscape:connector-curvature="0"
         d="M 0,0 C 0.829,0 1.5,0.672 1.5,1.5 1.5,2.328 0.829,3 0,3 -0.828,3 -1.5,2.328 -1.5,1.5 -1.5,0.672 -0.828,0 0,0"
         style="fill:#231f20;fill-opacity:1;fill-rule:nonzero;stroke:none"
         id="path4349" />
    </g>
    <g
       id="g4351"
       transform="matrix(1.25,0,0,-1.25,456.37264,570.64343)">
      <path
         inkscape:connector-curvature="0"
         d="M 0,0 0,0.25 C 0.691,0.251 1.249,0.81 1.25,1.5 1.249,2.19 0.691,2.749 0,2.75 -0.69,2.749 -1.249,2.19 -1.25,1.5 -1.249,0.81 -0.69,0.251 0,0.25 L 0,0 0,-0.25 c -0.966,0 -1.75,0.784 -1.75,1.75 0,0.966 0.784,1.75 1.75,1.75 C 0.967,3.25 1.75,2.466 1.75,1.5 1.75,0.534 0.967,-0.25 0,-0.25 L 0,0 z"
         style="fill:#231f20;fill-opacity:1;fill-rule:nonzero;stroke:none"
         id="path4353" />
    </g>
    <g
       id="g4355"
       transform="matrix(1.25,0,0,-1.25,441.56013,570.64343)">
      <path
         inkscape:connector-curvature="0"
         d="M 0,0 C 0.828,0 1.5,0.672 1.5,1.5 1.5,2.328 0.828,3 0,3 -0.828,3 -1.5,2.328 -1.5,1.5 -1.5,0.672 -0.828,0 0,0"
         style="fill:#231f20;fill-opacity:1;fill-rule:nonzero;stroke:none"
         id="path4357" />
    </g>
    <g
       id="g4359"
       transform="matrix(1.25,0,0,-1.25,441.56013,570.64343)">
      <path
         inkscape:connector-curvature="0"
         d="M 0,0 0,0.25 C 0.69,0.251 1.249,0.81 1.25,1.5 1.249,2.19 0.69,2.749 0,2.75 -0.69,2.749 -1.249,2.19 -1.25,1.5 -1.249,0.81 -0.69,0.251 0,0.25 L 0,0 0,-0.25 c -0.966,0 -1.75,0.784 -1.75,1.75 0,0.966 0.784,1.75 1.75,1.75 C 0.966,3.25 1.75,2.466 1.75,1.5 1.75,0.534 0.966,-0.25 0,-0.25 L 0,0 z"
         style="fill:#231f20;fill-opacity:1;fill-rule:nonzero;stroke:none"
         id="path4361" />
    </g>
    <g
       id="g4363"
       transform="matrix(1.25,0,0,-1.25,426.74764,570.64343)">
      <path
         inkscape:connector-curvature="0"
         d="M 0,0 C 0.829,0 1.5,0.672 1.5,1.5 1.5,2.328 0.829,3 0,3 -0.828,3 -1.5,2.328 -1.5,1.5 -1.5,0.672 -0.828,0 0,0"
         style="fill:#231f20;fill-opacity:1;fill-rule:nonzero;stroke:none"
         id="path4365" />
    </g>
    <g
       id="g4367"
       transform="matrix(1.25,0,0,-1.25,426.74764,570.64343)">
      <path
         inkscape:connector-curvature="0"
         d="M 0,0 0,0.25 C 0.691,0.251 1.249,0.81 1.25,1.5 1.249,2.19 0.691,2.749 0,2.75 -0.69,2.749 -1.249,2.19 -1.25,1.5 -1.249,0.81 -0.69,0.251 0,0.25 L 0,0 0,-0.25 c -0.966,0 -1.75,0.784 -1.75,1.75 0,0.966 0.784,1.75 1.75,1.75 C 0.967,3.25 1.75,2.466 1.75,1.5 1.75,0.534 0.967,-0.25 0,-0.25 L 0,0 z"
         style="fill:#231f20;fill-opacity:1;fill-rule:nonzero;stroke:none"
         id="path4369" />
    </g>
    <g
       id="g4371"
       transform="matrix(1.25,0,0,-1.25,411.93514,570.64343)">
      <path
         inkscape:connector-curvature="0"
         d="M 0,0 C 0.829,0 1.5,0.672 1.5,1.5 1.5,2.328 0.829,3 0,3 -0.829,3 -1.5,2.328 -1.5,1.5 -1.5,0.672 -0.829,0 0,0"
         style="fill:#231f20;fill-opacity:1;fill-rule:nonzero;stroke:none"
         id="path4373" />
    </g>
    <g
       id="g4375"
       transform="matrix(1.25,0,0,-1.25,411.93514,570.64343)">
      <path
         inkscape:connector-curvature="0"
         d="M 0,0 0,0.25 C 0.691,0.251 1.249,0.81 1.25,1.5 1.249,2.19 0.691,2.749 0,2.75 -0.691,2.749 -1.249,2.19 -1.25,1.5 -1.249,0.81 -0.691,0.251 0,0.25 L 0,0 0,-0.25 c -0.967,0 -1.75,0.784 -1.75,1.75 0,0.966 0.783,1.75 1.75,1.75 C 0.967,3.25 1.75,2.466 1.75,1.5 1.75,0.534 0.967,-0.25 0,-0.25 L 0,0 z"
         style="fill:#231f20;fill-opacity:1;fill-rule:nonzero;stroke:none"
         id="path4377" />
    </g>
    <g
       id="g4379"
       transform="matrix(1.25,0,0,-1.25,397.12389,570.64343)">
      <path
         inkscape:connector-curvature="0"
         d="M 0,0 C 0.829,0 1.5,0.672 1.5,1.5 1.5,2.328 0.829,3 0,3 -0.828,3 -1.5,2.328 -1.5,1.5 -1.5,0.672 -0.828,0 0,0"
         style="fill:#231f20;fill-opacity:1;fill-rule:nonzero;stroke:none"
         id="path4381" />
    </g>
  </g>
</svg>
