<?xml version="1.0" encoding="UTF-8" standalone="no"?>
<!-- Created with Inkscape (http://www.inkscape.org/) -->

<svg
   xmlns:dc="http://purl.org/dc/elements/1.1/"
   xmlns:cc="http://creativecommons.org/ns#"
   xmlns:rdf="http://www.w3.org/1999/02/22-rdf-syntax-ns#"
   xmlns:svg="http://www.w3.org/2000/svg"
   xmlns="http://www.w3.org/2000/svg"
   xmlns:sodipodi="http://sodipodi.sourceforge.net/DTD/sodipodi-0.dtd"
   xmlns:inkscape="http://www.inkscape.org/namespaces/inkscape"
   width="338.95779"
   height="113.4725"
   id="svg5762"
   version="1.1"
   inkscape:version="0.48.3.1 r9886"
   sodipodi:docname="Documento nuevo 7">
  <defs
     id="defs5764">
    <clipPath
       clipPathUnits="userSpaceOnUse"
       id="clipPath4872">
      <path
         inkscape:connector-curvature="0"
         d="m 461.083,684.388 -271.228,0 0,-90.778 271.228,0 0,90.778 z"
         id="path4874" />
    </clipPath>
    <clipPath
       clipPathUnits="userSpaceOnUse"
       id="clipPath4858">
      <path
         inkscape:connector-curvature="0"
         d="m 461.083,684.388 -271.228,0 0,-90.778 271.228,0 0,90.778 z"
         id="path4860" />
    </clipPath>
    <clipPath
       clipPathUnits="userSpaceOnUse"
       id="clipPath4810">
      <path
         inkscape:connector-curvature="0"
         d="m 461.083,684.388 -271.228,0 0,-90.778 271.228,0 0,90.778 z"
         id="path4812" />
    </clipPath>
  </defs>
  <sodipodi:namedview
     id="base"
     pagecolor="#ffffff"
     bordercolor="#666666"
     borderopacity="1.0"
     inkscape:pageopacity="0.0"
     inkscape:pageshadow="2"
     inkscape:zoom="2.8"
     inkscape:cx="167.40464"
     inkscape:cy="-7.1913459"
     inkscape:document-units="px"
     inkscape:current-layer="layer1"
     showgrid="false"
     fit-margin-top="0"
     fit-margin-left="0"
     fit-margin-right="0"
     fit-margin-bottom="0"
     inkscape:window-width="1920"
     inkscape:window-height="1021"
     inkscape:window-x="0"
     inkscape:window-y="27"
     inkscape:window-maximized="1" />
  <metadata
     id="metadata5767">
    <rdf:RDF>
      <cc:Work
         rdf:about="">
        <dc:format>image/svg+xml</dc:format>
        <dc:type
           rdf:resource="http://purl.org/dc/dcmitype/StillImage" />
        <dc:title></dc:title>
      </cc:Work>
    </rdf:RDF>
  </metadata>
  <g
     inkscape:label="Capa 1"
     inkscape:groupmode="layer"
     id="layer1"
     transform="translate(-156.23538,-198.4831)">
    <text
       style="font-size:15px"
       y="236.64307"
       x="369.00693"
       id="text4738">
      <tspan
         style="font-size:10px;font-style:italic;font-variant:normal;writing-mode:lr-tb;fill:#231f20;fill-opacity:1;fill-rule:nonzero;stroke:none;font-family:Times New Roman;-inkscape-font-specification:Times-Italic"
         x="369.00693"
         y="236.64307"
         id="tspan4740">x</tspan>
    </text>
    <text
       style="font-size:15px"
       y="239.14307"
       x="373.44693"
       id="text4742">
      <tspan
         style="font-size:7.5px;font-variant:normal;font-weight:normal;writing-mode:lr-tb;fill:#231f20;fill-opacity:1;fill-rule:nonzero;stroke:none;font-family:Times New Roman;-inkscape-font-specification:Times-Roman"
         x="373.44693"
         y="239.14307"
         id="tspan4744">1</tspan>
    </text>
    <text
       style="font-size:15px"
       y="236.64307"
       x="377.94693"
       id="text4746">
      <tspan
         style="font-size:10px;font-variant:normal;font-weight:normal;writing-mode:lr-tb;fill:#231f20;fill-opacity:1;fill-rule:nonzero;stroke:none;font-family:Times New Roman;-inkscape-font-specification:Times-Roman"
         x="377.94693"
         y="236.64307"
         id="tspan4748">[</tspan>
    </text>
    <text
       style="font-size:15px"
       y="236.64307"
       x="381.27695"
       id="text4750">
      <tspan
         style="font-size:10px;font-style:italic;font-variant:normal;writing-mode:lr-tb;fill:#231f20;fill-opacity:1;fill-rule:nonzero;stroke:none;font-family:Times New Roman;-inkscape-font-specification:Times-Italic"
         x="381.27695"
         y="236.64307"
         id="tspan4752">n</tspan>
    </text>
    <text
       style="font-size:15px"
       y="236.64307"
       x="388.77695"
       id="text4754">
      <tspan
         style="font-size:10px;font-variant:normal;font-weight:normal;writing-mode:lr-tb;fill:#231f20;fill-opacity:1;fill-rule:nonzero;stroke:none;font-family:Times New Roman;-inkscape-font-specification:Times-Roman"
         x="388.77695"
         y="236.64307"
         id="tspan4756">]</tspan>
    </text>
    <text
       style="font-size:15px"
       y="236.64307"
       x="156.58694"
       id="text4758">
      <tspan
         style="font-size:10px;font-style:italic;font-variant:normal;writing-mode:lr-tb;fill:#231f20;fill-opacity:1;fill-rule:nonzero;stroke:none;font-family:Times New Roman;-inkscape-font-specification:Times-Italic"
         x="156.58694"
         y="236.64307"
         id="tspan4760">x</tspan>
    </text>
    <text
       style="font-size:15px"
       y="236.64307"
       x="162.02695"
       id="text4762">
      <tspan
         style="font-size:10px;font-variant:normal;font-weight:normal;writing-mode:lr-tb;fill:#231f20;fill-opacity:1;fill-rule:nonzero;stroke:none;font-family:Times New Roman;-inkscape-font-specification:Times-Roman"
         x="162.02695"
         y="236.64307"
         id="tspan4764">[</tspan>
    </text>
    <text
       style="font-size:15px"
       y="236.64307"
       x="165.35695"
       id="text4766">
      <tspan
         style="font-size:10px;font-style:italic;font-variant:normal;writing-mode:lr-tb;fill:#231f20;fill-opacity:1;fill-rule:nonzero;stroke:none;font-family:Times New Roman;-inkscape-font-specification:Times-Italic"
         x="165.35695"
         y="236.64307"
         id="tspan4768">n</tspan>
    </text>
    <text
       style="font-size:15px"
       y="236.64307"
       x="170.35695"
       id="text4770">
      <tspan
         style="font-size:10px;font-variant:normal;font-weight:normal;writing-mode:lr-tb;fill:#231f20;fill-opacity:1;fill-rule:nonzero;stroke:none;font-family:Times New Roman;-inkscape-font-specification:Times-Roman"
         x="170.35695"
         y="236.64307"
         id="tspan4772">]</tspan>
    </text>
    <text
       style="font-size:15px"
       y="236.64307"
       x="478.25696"
       id="text4774">
      <tspan
         style="font-size:10px;font-style:italic;font-variant:normal;writing-mode:lr-tb;fill:#231f20;fill-opacity:1;fill-rule:nonzero;stroke:none;font-family:Times New Roman;-inkscape-font-specification:Times-Italic"
         x="478.25696"
         y="236.64307"
         id="tspan4776">y</tspan>
    </text>
    <text
       style="font-size:15px"
       y="236.64307"
       x="483.69693"
       id="text4778">
      <tspan
         style="font-size:10px;font-variant:normal;font-weight:normal;writing-mode:lr-tb;fill:#231f20;fill-opacity:1;fill-rule:nonzero;stroke:none;font-family:Times New Roman;-inkscape-font-specification:Times-Roman"
         x="483.69693"
         y="236.64307"
         id="tspan4780">[</tspan>
    </text>
    <text
       style="font-size:15px"
       y="236.64307"
       x="487.02695"
       id="text4782">
      <tspan
         style="font-size:10px;font-style:italic;font-variant:normal;writing-mode:lr-tb;fill:#231f20;fill-opacity:1;fill-rule:nonzero;stroke:none;font-family:Times New Roman;-inkscape-font-specification:Times-Italic"
         x="487.02695"
         y="236.64307"
         id="tspan4784">n</tspan>
    </text>
    <text
       style="font-size:15px"
       y="236.64307"
       x="492.02695"
       id="text4786">
      <tspan
         style="font-size:10px;font-variant:normal;font-weight:normal;writing-mode:lr-tb;fill:#231f20;fill-opacity:1;fill-rule:nonzero;stroke:none;font-family:Times New Roman;-inkscape-font-specification:Times-Roman"
         x="492.02695"
         y="236.64307"
         id="tspan4788">]</tspan>
    </text>
    <g
       id="g4790"
       transform="matrix(1.25,0,0,-1.25,364.51694,222.26808)">
      <path
         inkscape:connector-curvature="0"
         d="m 0,0 25.61,0 0,-1 L 0,-1"
         style="fill:#231f20;fill-opacity:1;fill-rule:nonzero;stroke:none"
         id="path4792" />
    </g>
    <g
       id="g4794"
       transform="matrix(1.25,0,0,-1.25,395.82694,222.89308)">
      <path
         inkscape:connector-curvature="0"
         d="M 0,0 -1.204,1.981 -1.137,2.026 2.095,0.743 C 3.221,0.496 4.347,0.248 5.472,0 4.347,-0.248 3.221,-0.495 2.095,-0.743 L -1.137,-2.026 -1.204,-1.993 0,0"
         style="fill:#231f20;fill-opacity:1;fill-rule:nonzero;stroke:none"
         id="path4796" />
    </g>
    <g
       id="g4798"
       transform="matrix(1.25,0,0,-1.25,273.82069,288.24058)">
      <path
         inkscape:connector-curvature="0"
         d="m 0,0 -13.423,0 0,52.278 1,0 L -12.423,1 0,1 0,0 z"
         style="fill:#231f20;fill-opacity:1;fill-rule:nonzero;stroke:none"
         id="path4800" />
    </g>
    <g
       id="g4802"
       transform="matrix(1.25,0,0,-1.25,273.11944,287.61558)">
      <path
         inkscape:connector-curvature="0"
         d="M 0,0 -1.205,1.982 -1.137,2.027 2.094,0.743 C 3.22,0.495 4.346,0.248 5.472,0 4.346,-0.247 3.22,-0.495 2.094,-0.743 L -1.137,-2.026 -1.205,-1.992 0,0"
         style="fill:#231f20;fill-opacity:1;fill-rule:nonzero;stroke:none"
         id="path4804" />
    </g>
    <g
       transform="matrix(1.25,0,0,-1.25,-80.996806,1053.9681)"
       id="g4806">
      <g
         id="g4808"
         clip-path="url(#clipPath4810)">
        <g
           id="g4814"
           transform="translate(190.661,665.36)">
          <path
             inkscape:connector-curvature="0"
             d="m 0,0 19.36,0 0,-1 L 0,-1"
             style="fill:#231f20;fill-opacity:1;fill-rule:nonzero;stroke:none"
             id="path4816" />
        </g>
      </g>
    </g>
    <g
       id="g4818"
       transform="matrix(1.25,0,0,-1.25,180.8282,222.89308)">
      <path
         inkscape:connector-curvature="0"
         d="M 0,0 -1.205,1.981 -1.138,2.026 2.094,0.743 C 3.22,0.496 4.345,0.248 5.471,0 4.345,-0.248 3.22,-0.495 2.094,-0.743 L -1.138,-2.026 -1.205,-1.993 0,0"
         style="fill:#231f20;fill-opacity:1;fill-rule:nonzero;stroke:none"
         id="path4820" />
    </g>
    <g
       id="g4822"
       transform="matrix(1.25,0,0,-1.25,464.8557,222.26808)">
      <path
         inkscape:connector-curvature="0"
         d="m 0,0 19.36,0 0,-1 L 0,-1"
         style="fill:#231f20;fill-opacity:1;fill-rule:nonzero;stroke:none"
         id="path4824" />
    </g>
    <g
       id="g4826"
       transform="matrix(1.25,0,0,-1.25,488.35319,222.89308)">
      <path
         inkscape:connector-curvature="0"
         d="M 0,0 -1.205,1.981 -1.137,2.026 2.094,0.743 C 3.22,0.496 4.346,0.248 5.472,0 4.346,-0.248 3.22,-0.495 2.094,-0.743 L -1.137,-2.026 -1.205,-1.993 0,0"
         style="fill:#231f20;fill-opacity:1;fill-rule:nonzero;stroke:none"
         id="path4828" />
    </g>
    <g
       id="g4830"
       transform="matrix(1.25,0,0,-1.25,244.20444,222.26808)">
      <path
         inkscape:connector-curvature="0"
         d="m 0,0 75.311,0 0,-1 L 0,-1"
         style="fill:#231f20;fill-opacity:1;fill-rule:nonzero;stroke:none"
         id="path4832" />
    </g>
    <g
       id="g4834"
       transform="matrix(1.25,0,0,-1.25,337.64194,222.89308)">
      <path
         inkscape:connector-curvature="0"
         d="M 0,0 -1.205,1.981 -1.137,2.026 2.094,0.743 C 3.22,0.496 4.346,0.248 5.472,0 4.346,-0.248 3.22,-0.495 2.094,-0.743 L -1.137,-2.026 -1.205,-1.993 0,0"
         style="fill:#231f20;fill-opacity:1;fill-rule:nonzero;stroke:none"
         id="path4836" />
    </g>
    <g
       id="g4838"
       transform="matrix(1.25,0,0,-1.25,355.12444,239.04808)">
      <path
         inkscape:connector-curvature="0"
         d="m 0,0 0,-39.37 -15.32,0 0,1 14.32,0 L -1,0 0,0 z"
         style="fill:#231f20;fill-opacity:1;fill-rule:nonzero;stroke:none"
         id="path4840" />
    </g>
    <g
       id="g4842"
       transform="matrix(1.25,0,0,-1.25,354.49944,239.74933)">
      <path
         inkscape:connector-curvature="0"
         d="M 0,0 1.981,-1.205 2.026,-1.138 0.743,2.093 C 0.495,3.219 0.248,4.345 0,5.471 -0.248,4.345 -0.496,3.219 -0.744,2.093 L -2.027,-1.138 -1.993,-1.205 0,0"
         style="fill:#231f20;fill-opacity:1;fill-rule:nonzero;stroke:none"
         id="path4844" />
    </g>
    <path
       inkscape:connector-curvature="0"
       d="m 402.66694,237.89308 61.64,0 0,-30.035 -61.64,0 0,30.035 z"
       style="fill:#ffffff;fill-opacity:1;fill-rule:nonzero;stroke:none"
       id="path4846" />
    <g
       id="g4848"
       transform="matrix(1.25,0,0,-1.25,402.66694,237.89308)">
      <path
         inkscape:connector-curvature="0"
         d="m 0,0 0,0.5 48.812,0 0,23.028 -48.312,0 L 0.5,0 0,0 0,0.5 0,0 l -0.5,0 0,24.528 50.312,0 0,-25.028 -50.312,0 0,0.5 0.5,0 z"
         style="fill:#231f20;fill-opacity:1;fill-rule:nonzero;stroke:none"
         id="path4850" />
    </g>
    <path
       inkscape:connector-curvature="0"
       d="m 188.08444,246.64308 55.8075,0 0,-47.535 -55.8075,0 0,47.535 z"
       style="fill:#ffffff;fill-opacity:1;fill-rule:nonzero;stroke:none"
       id="path4852" />
    <g
       transform="matrix(1.25,0,0,-1.25,-80.996806,1053.9681)"
       id="g4854">
      <g
         id="g4856"
         clip-path="url(#clipPath4858)">
        <g
           id="g4862"
           transform="translate(215.265,645.86)">
          <path
             inkscape:connector-curvature="0"
             d="m 0,0 0,0.5 44.146,0 0,37.028 -43.646,0 L 0.5,0 0,0 0,0.5 0,0 l -0.5,0 0,38.528 45.646,0 0,-39.028 -45.646,0 0,0.5 0.5,0 z"
             style="fill:#231f20;fill-opacity:1;fill-rule:nonzero;stroke:none"
             id="path4864" />
        </g>
      </g>
    </g>
    <path
       inkscape:connector-curvature="0"
       d="m 279.95944,311.33058 55.8075,0 0,-47.535 -55.8075,0 0,47.535 z"
       style="fill:#ffffff;fill-opacity:1;fill-rule:nonzero;stroke:none"
       id="path4866" />
    <g
       transform="matrix(1.25,0,0,-1.25,-80.996806,1053.9681)"
       id="g4868">
      <g
         id="g4870"
         clip-path="url(#clipPath4872)">
        <g
           id="g4876"
           transform="translate(288.765,594.11)">
          <path
             inkscape:connector-curvature="0"
             d="m 0,0 0,0.5 44.146,0 0,37.028 -43.646,0 L 0.5,0 0,0 0,0.5 0,0 l -0.5,0 0,38.528 45.646,0 0,-39.028 -45.646,0 0,0.5 0.5,0 z"
             style="fill:#231f20;fill-opacity:1;fill-rule:nonzero;stroke:none"
             id="path4878" />
        </g>
      </g>
    </g>
    <text
       style="font-size:15px"
       y="220.37595"
       x="417.65195"
       id="text4880">
      <tspan
         style="font-size:10px;font-variant:normal;font-weight:normal;writing-mode:lr-tb;fill:#231f20;fill-opacity:1;fill-rule:nonzero;stroke:none;font-family:Times New Roman;-inkscape-font-specification:Times-Roman"
         x="417.65195 423.21194 425.99194 429.88196 432.66196 437.10196 444.88196"
         y="220.37595"
         sodipodi:role="line"
         id="tspan4882">Sistema</tspan>
      <tspan
         style="font-size:10px;font-variant:normal;font-weight:normal;writing-mode:lr-tb;fill:#231f20;fill-opacity:1;fill-rule:nonzero;stroke:none;font-family:Times New Roman;-inkscape-font-specification:Times-Roman"
         x="409.88193 414.32193"
         y="231.62595"
         sodipodi:role="line"
         id="tspan4884">ac</tspan>
    </text>
    <text
       style="font-size:15px"
       y="231.62595"
       x="418.76193"
       id="text4886">
      <tspan
         style="font-size:10px;font-variant:normal;font-weight:normal;writing-mode:lr-tb;fill:#231f20;fill-opacity:1;fill-rule:nonzero;stroke:none;font-family:Times New Roman;-inkscape-font-specification:Times-Roman"
         x="418.76193"
         y="231.62595"
         id="tspan4888">u</tspan>
    </text>
    <text
       style="font-size:15px"
       y="231.62595"
       x="423.76193"
       id="text4890">
      <tspan
         style="font-size:10px;font-variant:normal;font-weight:normal;writing-mode:lr-tb;fill:#231f20;fill-opacity:1;fill-rule:nonzero;stroke:none;font-family:Times New Roman;-inkscape-font-specification:Times-Roman"
         x="423.76193"
         y="231.62595"
         id="tspan4892">m</tspan>
    </text>
    <text
       style="font-size:15px"
       y="231.62595"
       x="431.54193"
       id="text4894">
      <tspan
         style="font-size:10px;font-variant:normal;font-weight:normal;writing-mode:lr-tb;fill:#231f20;fill-opacity:1;fill-rule:nonzero;stroke:none;font-family:Times New Roman;-inkscape-font-specification:Times-Roman"
         x="431.54193"
         y="231.62595"
         id="tspan4896">u</tspan>
    </text>
    <text
       style="font-size:15px"
       y="231.62595"
       x="436.54193"
       id="text4898">
      <tspan
         style="font-size:10px;font-variant:normal;font-weight:normal;writing-mode:lr-tb;fill:#231f20;fill-opacity:1;fill-rule:nonzero;stroke:none;font-family:Times New Roman;-inkscape-font-specification:Times-Roman"
         x="436.54193 439.32193 443.76193 448.76193 453.76193"
         y="231.62595"
         sodipodi:role="line"
         id="tspan4900">lador</tspan>
    </text>
    <g
       id="g4902"
       transform="matrix(1.25,0,0,-1.25,354.49944,232.91059)">
      <path
         inkscape:connector-curvature="0"
         d="m 0,0 c 4.425,0 8.014,3.588 8.014,8.014 0,4.426 -3.589,8.014 -8.014,8.014 -4.426,0 -8.014,-3.588 -8.014,-8.014 C -8.014,3.588 -4.426,0 0,0"
         style="fill:#ffffff;fill-opacity:1;fill-rule:nonzero;stroke:none"
         id="path4904" />
    </g>
    <g
       id="g4906"
       transform="matrix(1.25,0,0,-1.25,354.49944,232.91059)">
      <path
         inkscape:connector-curvature="0"
         d="m 0,0 0,0.5 c 2.076,0 3.951,0.84 5.313,2.201 1.361,1.361 2.201,3.237 2.201,5.313 0,2.076 -0.84,3.952 -2.201,5.313 -1.362,1.361 -3.237,2.201 -5.313,2.201 -2.077,0 -3.952,-0.84 -5.313,-2.201 -1.361,-1.361 -2.201,-3.237 -2.201,-5.313 0,-2.077 0.84,-3.952 2.201,-5.313 C -3.952,1.34 -2.077,0.5 0,0.5 L 0,0 0,-0.5 c -4.702,0 -8.514,3.812 -8.514,8.514 0,4.702 3.812,8.514 8.514,8.514 4.701,0 8.514,-3.812 8.514,-8.514 C 8.514,3.312 4.701,-0.5 0,-0.5 L 0,0 z"
         style="fill:#231f20;fill-opacity:1;fill-rule:nonzero;stroke:none"
         id="path4908" />
    </g>
    <text
       style="font-size:15px"
       y="225.43094"
       x="351.27945"
       id="text4910">
      <tspan
         style="font-size:10px;font-variant:normal;font-weight:normal;writing-mode:lr-tb;fill:#231f20;fill-opacity:1;fill-rule:nonzero;stroke:none;font-family:Times New Roman;-inkscape-font-specification:Times-Roman"
         x="351.27945"
         y="225.43094"
         id="tspan4912">+</tspan>
      <tspan
         style="font-size:10px;font-variant:normal;font-weight:normal;writing-mode:lr-tb;fill:#231f20;fill-opacity:1;fill-rule:nonzero;stroke:none;font-family:Times New Roman;-inkscape-font-specification:Times-Roman"
         x="336.06943"
         y="216.23093"
         id="tspan4914">+</tspan>
      <tspan
         style="font-size:10px;font-variant:normal;font-weight:normal;writing-mode:lr-tb;fill:#231f20;fill-opacity:1;fill-rule:nonzero;stroke:none;font-family:Times New Roman;-inkscape-font-specification:Times-Roman"
         x="344.71945"
         y="239.98096"
         id="tspan4916">–</tspan>
      <tspan
         style="font-size:10px;font-variant:normal;font-weight:normal;writing-mode:lr-tb;fill:#231f20;fill-opacity:1;fill-rule:nonzero;stroke:none;font-family:Times New Roman;-inkscape-font-specification:Times-Roman"
         x="195.27945 202.49945 205.27945 209.71945"
         y="212.38095"
         sodipodi:role="line"
         id="tspan4918">Aten</tspan>
    </text>
    <text
       style="font-size:15px"
       y="212.38095"
       x="214.71945"
       id="text4920">
      <tspan
         style="font-size:10px;font-variant:normal;font-weight:normal;writing-mode:lr-tb;fill:#231f20;fill-opacity:1;fill-rule:nonzero;stroke:none;font-family:Times New Roman;-inkscape-font-specification:Times-Roman"
         x="214.71945"
         y="212.38095"
         id="tspan4922">u</tspan>
    </text>
    <text
       style="font-size:15px"
       y="212.38095"
       x="219.71945"
       id="text4924">
      <tspan
         style="font-size:10px;font-variant:normal;font-weight:normal;writing-mode:lr-tb;fill:#231f20;fill-opacity:1;fill-rule:nonzero;stroke:none;font-family:Times New Roman;-inkscape-font-specification:Times-Roman"
         x="219.71945 224.15945 229.15945 234.15945"
         y="212.38095"
         sodipodi:role="line"
         id="tspan4926">ador</tspan>
      <tspan
         style="font-size:10px;font-variant:normal;font-weight:normal;writing-mode:lr-tb;fill:#231f20;fill-opacity:1;fill-rule:nonzero;stroke:none;font-family:Times New Roman;-inkscape-font-specification:Times-Roman"
         x="213.47945"
         y="223.95096"
         id="tspan4928">1</tspan>
      <tspan
         style="font-size:10px;font-variant:normal;font-weight:normal;writing-mode:lr-tb;fill:#231f20;fill-opacity:1;fill-rule:nonzero;stroke:none;font-family:Times New Roman;-inkscape-font-specification:Times-Roman"
         x="199.09946"
         y="236.95096"
         id="tspan4930">(</tspan>
    </text>
    <text
       style="font-size:15px"
       y="236.95093"
       x="202.42944"
       id="text4932">
      <tspan
         style="font-size:10px;font-style:italic;font-variant:normal;writing-mode:lr-tb;fill:#231f20;fill-opacity:1;fill-rule:nonzero;stroke:none;font-family:Times New Roman;-inkscape-font-specification:Times-Italic"
         x="202.42944"
         y="236.95093"
         id="tspan4934">M</tspan>
    </text>
    <text
       style="font-size:15px"
       y="239.43845"
       x="210.76994"
       id="text4936">
      <tspan
         style="font-size:7.5px;font-variant:normal;font-weight:normal;writing-mode:lr-tb;fill:#231f20;fill-opacity:1;fill-rule:nonzero;stroke:none;font-family:Times New Roman;-inkscape-font-specification:Times-Roman"
         x="210.76994"
         y="239.43845"
         id="tspan4938">2</tspan>
    </text>
    <text
       style="font-size:15px"
       y="236.93845"
       x="217.01994"
       id="text4940">
      <tspan
         style="font-size:10px;font-variant:normal;font-weight:normal;writing-mode:lr-tb;fill:#231f20;fill-opacity:1;fill-rule:nonzero;stroke:none;font-family:Times New Roman;-inkscape-font-specification:Times-Roman"
         x="217.01994 222.65994 225.15994 230.15994"
         y="236.93845"
         sodipodi:role="line"
         id="tspan4942">+ 1)</tspan>
      <tspan
         style="font-size:10px;font-variant:normal;font-weight:normal;writing-mode:lr-tb;fill:#231f20;fill-opacity:1;fill-rule:nonzero;stroke:none;font-family:Times New Roman;-inkscape-font-specification:Times-Roman"
         x="286.05994 292.72995 297.16995 299.94995 304.38995 307.71994 312.71994 317.71994 320.21994 325.21994"
         y="277.87845"
         sodipodi:role="line"
         id="tspan4944">Retardo de</tspan>
      <tspan
         style="font-size:10px;font-variant:normal;font-weight:normal;writing-mode:lr-tb;fill:#231f20;fill-opacity:1;fill-rule:nonzero;stroke:none;font-family:Times New Roman;-inkscape-font-specification:Times-Roman"
         x="290.66992"
         y="290.37845"
         id="tspan4946">(</tspan>
    </text>
    <text
       style="font-size:15px"
       y="290.37845"
       x="293.99994"
       id="text4948">
      <tspan
         style="font-size:10px;font-style:italic;font-variant:normal;writing-mode:lr-tb;fill:#231f20;fill-opacity:1;fill-rule:nonzero;stroke:none;font-family:Times New Roman;-inkscape-font-specification:Times-Italic"
         x="293.99994"
         y="290.37845"
         id="tspan4950">M</tspan>
    </text>
    <text
       style="font-size:15px"
       y="292.87595"
       x="302.33194"
       id="text4952">
      <tspan
         style="font-size:7.5px;font-variant:normal;font-weight:normal;writing-mode:lr-tb;fill:#231f20;fill-opacity:1;fill-rule:nonzero;stroke:none;font-family:Times New Roman;-inkscape-font-specification:Times-Roman"
         x="302.33194"
         y="292.87595"
         id="tspan4954">2</tspan>
    </text>
    <text
       style="font-size:15px"
       y="290.37595"
       x="308.58194"
       id="text4956">
      <tspan
         style="font-size:10px;font-variant:normal;font-weight:normal;writing-mode:lr-tb;fill:#231f20;fill-opacity:1;fill-rule:nonzero;stroke:none;font-family:Times New Roman;-inkscape-font-specification:Times-Roman"
         x="308.58194 314.22192 316.72192 321.72192"
         y="290.37595"
         sodipodi:role="line"
         id="tspan4958">+ 1)</tspan>
      <tspan
         style="font-size:10px;font-variant:normal;font-weight:normal;writing-mode:lr-tb;fill:#231f20;fill-opacity:1;fill-rule:nonzero;stroke:none;font-family:Times New Roman;-inkscape-font-specification:Times-Roman"
         x="290.09195"
         y="302.87595"
         id="tspan4960">m</tspan>
    </text>
    <text
       style="font-size:15px"
       y="302.87595"
       x="297.87195"
       id="text4962">
      <tspan
         style="font-size:10px;font-variant:normal;font-weight:normal;writing-mode:lr-tb;fill:#231f20;fill-opacity:1;fill-rule:nonzero;stroke:none;font-family:Times New Roman;-inkscape-font-specification:Times-Roman"
         x="297.87195"
         y="302.87595"
         id="tspan4964">u</tspan>
    </text>
    <text
       style="font-size:15px"
       y="302.87595"
       x="302.87195"
       id="text4966">
      <tspan
         style="font-size:10px;font-variant:normal;font-weight:normal;writing-mode:lr-tb;fill:#231f20;fill-opacity:1;fill-rule:nonzero;stroke:none;font-family:Times New Roman;-inkscape-font-specification:Times-Roman"
         x="302.87195 307.31195 311.20193 313.98193 317.31195 321.75192"
         y="302.87595"
         sodipodi:role="line"
         id="tspan4968">estras</tspan>
    </text>
    <g
       id="g4970"
       transform="matrix(1.25,0,0,-1.25,198.48695,226.18819)">
      <path
         inkscape:connector-curvature="0"
         d="m 0,0 27.75,0 0,-0.3 -27.75,0"
         style="fill:#231f20;fill-opacity:1;fill-rule:nonzero;stroke:none"
         id="path4972" />
    </g>
  </g>
</svg>
