<?xml version="1.0" encoding="UTF-8" standalone="no"?>
<!-- Created with Inkscape (http://www.inkscape.org/) -->

<svg
   xmlns:dc="http://purl.org/dc/elements/1.1/"
   xmlns:cc="http://creativecommons.org/ns#"
   xmlns:rdf="http://www.w3.org/1999/02/22-rdf-syntax-ns#"
   xmlns:svg="http://www.w3.org/2000/svg"
   xmlns="http://www.w3.org/2000/svg"
   xmlns:sodipodi="http://sodipodi.sourceforge.net/DTD/sodipodi-0.dtd"
   xmlns:inkscape="http://www.inkscape.org/namespaces/inkscape"
   width="393.58472"
   height="69.595955"
   id="svg7137"
   version="1.1"
   inkscape:version="0.48.3.1 r9886"
   sodipodi:docname="Documento nuevo 18">
  <defs
     id="defs7139">
    <clipPath
       clipPathUnits="userSpaceOnUse"
       id="clipPath3993">
      <path
         inkscape:connector-curvature="0"
         d="m 488.243,693.24 -354.068,0 0,-495.75 354.068,0 0,495.75 z"
         id="path3995" />
    </clipPath>
  </defs>
  <sodipodi:namedview
     id="base"
     pagecolor="#ffffff"
     bordercolor="#666666"
     borderopacity="1.0"
     inkscape:pageopacity="0.0"
     inkscape:pageshadow="2"
     inkscape:zoom="0.98994949"
     inkscape:cx="287.08461"
     inkscape:cy="-166.15122"
     inkscape:document-units="px"
     inkscape:current-layer="layer1"
     showgrid="false"
     fit-margin-top="0"
     fit-margin-left="0"
     fit-margin-right="0"
     fit-margin-bottom="0"
     inkscape:window-width="1920"
     inkscape:window-height="1021"
     inkscape:window-x="0"
     inkscape:window-y="27"
     inkscape:window-maximized="1" />
  <metadata
     id="metadata7142">
    <rdf:RDF>
      <cc:Work
         rdf:about="">
        <dc:format>image/svg+xml</dc:format>
        <dc:type
           rdf:resource="http://purl.org/dc/dcmitype/StillImage" />
        <dc:title></dc:title>
      </cc:Work>
    </rdf:RDF>
  </metadata>
  <g
     inkscape:label="Capa 1"
     inkscape:groupmode="layer"
     id="layer1"
     transform="translate(-437.14446,-415.66689)">
    <text
       style="font-size:15px"
       y="443.7919"
       x="546.86194"
       id="text3811">
      <tspan
         style="font-size:10px;font-style:italic;font-variant:normal;writing-mode:lr-tb;fill:#231f20;fill-opacity:1;fill-rule:nonzero;stroke:none;font-family:Times New Roman;-inkscape-font-specification:TimesTen-Italic"
         x="546.86194"
         y="443.7919"
         id="tspan3813">x</tspan>
    </text>
    <text
       style="font-size:15px"
       y="446.29178"
       x="551.86597"
       id="text3815">
      <tspan
         style="font-size:7.5px;font-variant:normal;font-weight:normal;writing-mode:lr-tb;fill:#231f20;fill-opacity:1;fill-rule:nonzero;stroke:none;font-family:Times New Roman;-inkscape-font-specification:TimesTen-Roman"
         x="551.86597"
         y="446.29178"
         id="tspan3817">0</tspan>
    </text>
    <text
       style="font-size:15px"
       y="443.7919"
       x="556.36597"
       id="text3819">
      <tspan
         style="font-size:10px;font-variant:normal;font-weight:normal;writing-mode:lr-tb;fill:#231f20;fill-opacity:1;fill-rule:nonzero;stroke:none;font-family:Times New Roman;-inkscape-font-specification:TimesTen-Roman"
         x="556.36597"
         y="443.7919"
         id="tspan3821">[</tspan>
    </text>
    <text
       style="font-size:15px"
       y="443.7919"
       x="559.69598"
       id="text3823">
      <tspan
         style="font-size:10px;font-style:italic;font-variant:normal;writing-mode:lr-tb;fill:#231f20;fill-opacity:1;fill-rule:nonzero;stroke:none;font-family:Times New Roman;-inkscape-font-specification:TimesTen-Italic"
         x="559.69598"
         y="443.7919"
         id="tspan3825">n</tspan>
    </text>
    <text
       style="font-size:15px"
       y="443.7919"
       x="565.25598"
       id="text3827">
      <tspan
         style="font-size:10px;font-variant:normal;font-weight:normal;writing-mode:lr-tb;fill:#231f20;fill-opacity:1;fill-rule:nonzero;stroke:none;font-family:Times New Roman;-inkscape-font-specification:TimesTen-Roman"
         x="565.25598 568.58594 577.08594"
         y="443.7919"
         sodipodi:role="line"
         id="tspan3829">]</tspan>
    </text>
    <text
       style="font-size:15px"
       y="443.7919"
       x="787.93597"
       id="text3855">
      <tspan
         style="font-size:10px;font-style:italic;font-variant:normal;writing-mode:lr-tb;fill:#231f20;fill-opacity:1;fill-rule:nonzero;stroke:none;font-family:Times New Roman;-inkscape-font-specification:TimesTen-Italic"
         x="787.93597"
         y="443.7919"
         id="tspan3857">y</tspan>
    </text>
    <text
       style="font-size:15px"
       y="446.29178"
       x="792.93945"
       id="text3859">
      <tspan
         style="font-size:7.5px;font-variant:normal;font-weight:normal;writing-mode:lr-tb;fill:#231f20;fill-opacity:1;fill-rule:nonzero;stroke:none;font-family:Times New Roman;-inkscape-font-specification:TimesTen-Roman"
         x="792.93945"
         y="446.29178"
         id="tspan3861">0</tspan>
    </text>
    <text
       style="font-size:15px"
       y="443.7919"
       x="797.43945"
       id="text3863">
      <tspan
         style="font-size:10px;font-variant:normal;font-weight:normal;writing-mode:lr-tb;fill:#231f20;fill-opacity:1;fill-rule:nonzero;stroke:none;font-family:Times New Roman;-inkscape-font-specification:TimesTen-Roman"
         x="797.43945"
         y="443.7919"
         id="tspan3865">[</tspan>
    </text>
    <text
       style="font-size:15px"
       y="443.7919"
       x="800.76947"
       id="text3867">
      <tspan
         style="font-size:10px;font-style:italic;font-variant:normal;writing-mode:lr-tb;fill:#231f20;fill-opacity:1;fill-rule:nonzero;stroke:none;font-family:Times New Roman;-inkscape-font-specification:TimesTen-Italic"
         x="800.76947"
         y="443.7919"
         id="tspan3869">n</tspan>
    </text>
    <text
       style="font-size:15px"
       y="443.7919"
       x="806.32947"
       id="text3871">
      <tspan
         style="font-size:10px;font-variant:normal;font-weight:normal;writing-mode:lr-tb;fill:#231f20;fill-opacity:1;fill-rule:nonzero;stroke:none;font-family:Times New Roman;-inkscape-font-specification:TimesTen-Roman"
         x="806.32947 809.65948 818.15948"
         y="443.7919"
         sodipodi:role="line"
         id="tspan3873">]</tspan>
    </text>
    <g
       transform="matrix(1.25,0,0,-1.25,269.42571,1033.4669)"
       id="g3989">
      <g
         id="g3991"
         clip-path="url(#clipPath3993)">
        <g
           id="g3997"
           transform="translate(317.457,538.24001)">
          <path
             inkscape:connector-curvature="0"
             d="m -40.032,-91.25 -143.25,0 0,0.5 143.25,0 z"
             style="fill:#231f20;fill-opacity:1;fill-rule:nonzero;stroke:none"
             id="path3999"
             sodipodi:nodetypes="ccccc" />
        </g>
      </g>
    </g>
    <text
       style="font-size:15px"
       y="485.14566"
       x="523.49884"
       id="text4001">
      <tspan
         style="font-size:10px;font-variant:normal;font-weight:normal;writing-mode:lr-tb;fill:#231f20;fill-opacity:1;fill-rule:nonzero;stroke:none;font-family:Times New Roman;-inkscape-font-specification:TimesTen-Roman"
         x="523.49884"
         y="485.14566"
         id="tspan4003">0</tspan>
    </text>
    <text
       style="font-size:15px"
       y="485.14566"
       x="611.75885"
       id="text4005">
      <tspan
         style="font-size:10px;font-style:italic;font-variant:normal;writing-mode:lr-tb;fill:#231f20;fill-opacity:1;fill-rule:nonzero;stroke:none;font-family:Times New Roman;-inkscape-font-specification:TimesTen-Italic"
         x="611.75885"
         y="485.14566"
         id="tspan4007">n</tspan>
    </text>
    <g
       id="g4009"
       transform="matrix(1.25,0,0,-1.25,525.30946,474.56441)">
      <path
         inkscape:connector-curvature="0"
         d="m 0,0 0,45.368 1,0 L 1,0"
         style="fill:#231f20;fill-opacity:1;fill-rule:nonzero;stroke:none"
         id="path4011" />
    </g>
    <g
       id="g4013"
       transform="matrix(1.25,0,0,-1.25,599.99696,476.29189)">
      <path
         inkscape:connector-curvature="0"
         d="M 0,0 C 0.829,0 1.5,0.672 1.5,1.5 1.5,2.329 0.829,3 0,3 -0.828,3 -1.5,2.329 -1.5,1.5 -1.5,0.672 -0.828,0 0,0"
         style="fill:#231f20;fill-opacity:1;fill-rule:nonzero;stroke:none"
         id="path4015" />
    </g>
    <g
       id="g4017"
       transform="matrix(1.25,0,0,-1.25,599.99696,476.29189)">
      <path
         inkscape:connector-curvature="0"
         d="M 0,0 0,0.25 C 0.691,0.251 1.249,0.81 1.25,1.5 1.249,2.191 0.691,2.749 0,2.75 -0.69,2.749 -1.249,2.191 -1.25,1.5 -1.249,0.81 -0.69,0.251 0,0.25 L 0,0 0,-0.25 c -0.966,0 -1.75,0.784 -1.75,1.75 0,0.967 0.784,1.75 1.75,1.75 C 0.967,3.25 1.75,2.467 1.75,1.5 1.75,0.534 0.967,-0.25 0,-0.25 L 0,0 z"
         style="fill:#231f20;fill-opacity:1;fill-rule:nonzero;stroke:none"
         id="path4019" />
    </g>
    <g
       id="g4021"
       transform="matrix(1.25,0,0,-1.25,585.18445,476.29189)">
      <path
         inkscape:connector-curvature="0"
         d="M 0,0 C 0.828,0 1.5,0.672 1.5,1.5 1.5,2.329 0.828,3 0,3 -0.829,3 -1.5,2.329 -1.5,1.5 -1.5,0.672 -0.829,0 0,0"
         style="fill:#231f20;fill-opacity:1;fill-rule:nonzero;stroke:none"
         id="path4023" />
    </g>
    <g
       id="g4025"
       transform="matrix(1.25,0,0,-1.25,585.18445,476.29189)">
      <path
         inkscape:connector-curvature="0"
         d="M 0,0 0,0.25 C 0.69,0.251 1.249,0.81 1.25,1.5 1.249,2.191 0.69,2.749 0,2.75 -0.691,2.749 -1.249,2.191 -1.25,1.5 -1.249,0.81 -0.691,0.251 0,0.25 L 0,0 0,-0.25 c -0.967,0 -1.75,0.784 -1.75,1.75 0,0.967 0.783,1.75 1.75,1.75 C 0.966,3.25 1.75,2.467 1.75,1.5 1.75,0.534 0.966,-0.25 0,-0.25 L 0,0 z"
         style="fill:#231f20;fill-opacity:1;fill-rule:nonzero;stroke:none"
         id="path4027" />
    </g>
    <g
       id="g4029"
       transform="matrix(1.25,0,0,-1.25,570.37071,476.29189)">
      <path
         inkscape:connector-curvature="0"
         d="M 0,0 C 0.828,0 1.5,0.672 1.5,1.5 1.5,2.329 0.828,3 0,3 -0.829,3 -1.5,2.329 -1.5,1.5 -1.5,0.672 -0.829,0 0,0"
         style="fill:#231f20;fill-opacity:1;fill-rule:nonzero;stroke:none"
         id="path4031" />
    </g>
    <g
       id="g4033"
       transform="matrix(1.25,0,0,-1.25,570.37071,476.29189)">
      <path
         inkscape:connector-curvature="0"
         d="M 0,0 0,0.25 C 0.69,0.251 1.249,0.81 1.25,1.5 1.249,2.191 0.69,2.749 0,2.75 -0.691,2.749 -1.249,2.191 -1.25,1.5 -1.249,0.81 -0.691,0.251 0,0.25 L 0,0 0,-0.25 c -0.967,0 -1.75,0.784 -1.75,1.75 0,0.967 0.783,1.75 1.75,1.75 C 0.966,3.25 1.75,2.467 1.75,1.5 1.75,0.534 0.966,-0.25 0,-0.25 L 0,0 z"
         style="fill:#231f20;fill-opacity:1;fill-rule:nonzero;stroke:none"
         id="path4035" />
    </g>
    <g
       id="g4037"
       transform="matrix(1.25,0,0,-1.25,555.55946,476.29189)">
      <path
         inkscape:connector-curvature="0"
         d="M 0,0 C 0.828,0 1.5,0.672 1.5,1.5 1.5,2.329 0.828,3 0,3 -0.829,3 -1.5,2.329 -1.5,1.5 -1.5,0.672 -0.829,0 0,0"
         style="fill:#231f20;fill-opacity:1;fill-rule:nonzero;stroke:none"
         id="path4039" />
    </g>
    <g
       id="g4041"
       transform="matrix(1.25,0,0,-1.25,555.55946,476.29189)">
      <path
         inkscape:connector-curvature="0"
         d="M 0,0 0,0.25 C 0.69,0.251 1.249,0.81 1.25,1.5 1.249,2.191 0.69,2.749 0,2.75 -0.691,2.749 -1.249,2.191 -1.25,1.5 -1.249,0.81 -0.691,0.251 0,0.25 L 0,0 0,-0.25 c -0.967,0 -1.75,0.784 -1.75,1.75 0,0.967 0.783,1.75 1.75,1.75 C 0.966,3.25 1.75,2.467 1.75,1.5 1.75,0.534 0.966,-0.25 0,-0.25 L 0,0 z"
         style="fill:#231f20;fill-opacity:1;fill-rule:nonzero;stroke:none"
         id="path4043" />
    </g>
    <g
       id="g4045"
       transform="matrix(1.25,0,0,-1.25,540.74571,476.29189)">
      <path
         inkscape:connector-curvature="0"
         d="M 0,0 C 0.829,0 1.5,0.672 1.5,1.5 1.5,2.329 0.829,3 0,3 -0.828,3 -1.5,2.329 -1.5,1.5 -1.5,0.672 -0.828,0 0,0"
         style="fill:#231f20;fill-opacity:1;fill-rule:nonzero;stroke:none"
         id="path4047" />
    </g>
    <g
       id="g4049"
       transform="matrix(1.25,0,0,-1.25,540.74571,476.29189)">
      <path
         inkscape:connector-curvature="0"
         d="M 0,0 0,0.25 C 0.691,0.251 1.249,0.81 1.25,1.5 1.249,2.191 0.691,2.749 0,2.75 -0.69,2.749 -1.249,2.191 -1.25,1.5 -1.249,0.81 -0.69,0.251 0,0.25 L 0,0 0,-0.25 c -0.966,0 -1.75,0.784 -1.75,1.75 0,0.967 0.784,1.75 1.75,1.75 C 0.967,3.25 1.75,2.467 1.75,1.5 1.75,0.534 0.967,-0.25 0,-0.25 L 0,0 z"
         style="fill:#231f20;fill-opacity:1;fill-rule:nonzero;stroke:none"
         id="path4051" />
    </g>
    <g
       id="g4053"
       transform="matrix(1.25,0,0,-1.25,525.93446,419.72939)">
      <path
         inkscape:connector-curvature="0"
         d="M 0,0 C 0.829,0 1.5,0.672 1.5,1.5 1.5,2.329 0.829,3 0,3 -0.828,3 -1.5,2.329 -1.5,1.5 -1.5,0.672 -0.828,0 0,0"
         style="fill:#231f20;fill-opacity:1;fill-rule:nonzero;stroke:none"
         id="path4055" />
    </g>
    <g
       id="g4057"
       transform="matrix(1.25,0,0,-1.25,525.93446,419.72939)">
      <path
         inkscape:connector-curvature="0"
         d="M 0,0 0,0.25 C 0.691,0.251 1.249,0.81 1.25,1.5 1.249,2.191 0.691,2.749 0,2.75 -0.69,2.749 -1.249,2.191 -1.25,1.5 -1.249,0.81 -0.69,0.251 0,0.25 L 0,0 0,-0.25 c -0.966,0 -1.75,0.784 -1.75,1.75 0,0.967 0.784,1.75 1.75,1.75 C 0.967,3.25 1.75,2.467 1.75,1.5 1.75,0.534 0.967,-0.25 0,-0.25 L 0,0 z"
         style="fill:#231f20;fill-opacity:1;fill-rule:nonzero;stroke:none"
         id="path4059" />
    </g>
    <g
       id="g4061"
       transform="matrix(1.25,0,0,-1.25,511.12195,476.29189)">
      <path
         inkscape:connector-curvature="0"
         d="M 0,0 C 0.828,0 1.5,0.672 1.5,1.5 1.5,2.329 0.828,3 0,3 -0.829,3 -1.5,2.329 -1.5,1.5 -1.5,0.672 -0.829,0 0,0"
         style="fill:#231f20;fill-opacity:1;fill-rule:nonzero;stroke:none"
         id="path4063" />
    </g>
    <g
       id="g4065"
       transform="matrix(1.25,0,0,-1.25,511.12195,476.29189)">
      <path
         inkscape:connector-curvature="0"
         d="M 0,0 0,0.25 C 0.69,0.251 1.249,0.81 1.25,1.5 1.249,2.191 0.69,2.749 0,2.75 -0.691,2.749 -1.249,2.191 -1.25,1.5 -1.249,0.81 -0.691,0.251 0,0.25 L 0,0 0,-0.25 c -0.967,0 -1.75,0.784 -1.75,1.75 0,0.967 0.783,1.75 1.75,1.75 C 0.966,3.25 1.75,2.467 1.75,1.5 1.75,0.534 0.966,-0.25 0,-0.25 L 0,0 z"
         style="fill:#231f20;fill-opacity:1;fill-rule:nonzero;stroke:none"
         id="path4067" />
    </g>
    <g
       id="g4069"
       transform="matrix(1.25,0,0,-1.25,496.31071,476.29189)">
      <path
         inkscape:connector-curvature="0"
         d="M 0,0 C 0.828,0 1.5,0.672 1.5,1.5 1.5,2.329 0.828,3 0,3 -0.829,3 -1.5,2.329 -1.5,1.5 -1.5,0.672 -0.829,0 0,0"
         style="fill:#231f20;fill-opacity:1;fill-rule:nonzero;stroke:none"
         id="path4071" />
    </g>
    <g
       id="g4073"
       transform="matrix(1.25,0,0,-1.25,496.31071,476.29189)">
      <path
         inkscape:connector-curvature="0"
         d="M 0,0 0,0.25 C 0.69,0.251 1.249,0.81 1.25,1.5 1.249,2.191 0.69,2.749 0,2.75 -0.691,2.749 -1.249,2.191 -1.25,1.5 -1.249,0.81 -0.691,0.251 0,0.25 L 0,0 0,-0.25 c -0.967,0 -1.75,0.784 -1.75,1.75 0,0.967 0.783,1.75 1.75,1.75 C 0.966,3.25 1.75,2.467 1.75,1.5 1.75,0.534 0.966,-0.25 0,-0.25 L 0,0 z"
         style="fill:#231f20;fill-opacity:1;fill-rule:nonzero;stroke:none"
         id="path4075" />
    </g>
    <g
       id="g4077"
       transform="matrix(1.25,0,0,-1.25,481.49696,476.29189)">
      <path
         inkscape:connector-curvature="0"
         d="M 0,0 C 0.828,0 1.5,0.672 1.5,1.5 1.5,2.329 0.828,3 0,3 -0.829,3 -1.5,2.329 -1.5,1.5 -1.5,0.672 -0.829,0 0,0"
         style="fill:#231f20;fill-opacity:1;fill-rule:nonzero;stroke:none"
         id="path4079" />
    </g>
    <g
       id="g4081"
       transform="matrix(1.25,0,0,-1.25,481.49696,476.29189)">
      <path
         inkscape:connector-curvature="0"
         d="M 0,0 0,0.25 C 0.69,0.251 1.249,0.81 1.25,1.5 1.249,2.191 0.69,2.749 0,2.75 -0.691,2.749 -1.249,2.191 -1.25,1.5 -1.249,0.81 -0.691,0.251 0,0.25 L 0,0 0,-0.25 c -0.967,0 -1.75,0.784 -1.75,1.75 0,0.967 0.783,1.75 1.75,1.75 C 0.966,3.25 1.75,2.467 1.75,1.5 1.75,0.534 0.966,-0.25 0,-0.25 L 0,0 z"
         style="fill:#231f20;fill-opacity:1;fill-rule:nonzero;stroke:none"
         id="path4083" />
    </g>
    <g
       id="g4085"
       transform="matrix(1.25,0,0,-1.25,466.68571,476.29189)">
      <path
         inkscape:connector-curvature="0"
         d="M 0,0 C 0.828,0 1.5,0.672 1.5,1.5 1.5,2.329 0.828,3 0,3 -0.828,3 -1.5,2.329 -1.5,1.5 -1.5,0.672 -0.828,0 0,0"
         style="fill:#231f20;fill-opacity:1;fill-rule:nonzero;stroke:none"
         id="path4087" />
    </g>
    <g
       id="g4089"
       transform="matrix(1.25,0,0,-1.25,466.68571,476.29189)">
      <path
         inkscape:connector-curvature="0"
         d="M 0,0 0,0.25 C 0.69,0.251 1.249,0.81 1.25,1.5 1.249,2.191 0.69,2.749 0,2.75 -0.69,2.749 -1.249,2.191 -1.25,1.5 -1.249,0.81 -0.69,0.251 0,0.25 L 0,0 0,-0.25 c -0.966,0 -1.75,0.784 -1.75,1.75 0,0.967 0.784,1.75 1.75,1.75 C 0.966,3.25 1.75,2.467 1.75,1.5 1.75,0.534 0.966,-0.25 0,-0.25 L 0,0 z m 291.117,1.25 -143.25,0 0,0.5 143.25,0 0,-0.5 z"
         style="fill:#231f20;fill-opacity:1;fill-rule:nonzero;stroke:none"
         id="path4091" />
    </g>
    <text
       style="font-size:15px"
       y="485.14566"
       x="737.87445"
       id="text4093">
      <tspan
         style="font-size:10px;font-variant:normal;font-weight:normal;writing-mode:lr-tb;fill:#231f20;fill-opacity:1;fill-rule:nonzero;stroke:none;font-family:Times New Roman;-inkscape-font-specification:TimesTen-Roman"
         x="737.87445 768.06445"
         y="485.14566"
         sodipodi:role="line"
         id="tspan4095">02</tspan>
    </text>
    <text
       style="font-size:15px"
       y="485.14566"
       x="826.13446"
       id="text4097">
      <tspan
         style="font-size:10px;font-style:italic;font-variant:normal;writing-mode:lr-tb;fill:#231f20;fill-opacity:1;fill-rule:nonzero;stroke:none;font-family:Times New Roman;-inkscape-font-specification:TimesTen-Italic"
         x="826.13446"
         y="485.14566"
         id="tspan4099">n</tspan>
    </text>
    <path
       inkscape:connector-curvature="0"
       d="m 769.30946,454.4169 1.25,0 0,20.14625 -1.25,0 0,-20.14625 z m -14.81375,-17.8125 1.25,0 0,37.95875 -1.25,0 0,-37.95875 z m -14.81125,-16.25 1.25,0 0,54.21 -1.25,0 0,-54.21 z"
       style="fill:#231f20;fill-opacity:1;fill-rule:nonzero;stroke:none"
       id="path4101" />
    <g
       id="g4103"
       transform="matrix(1.25,0,0,-1.25,814.37196,476.29189)">
      <path
         inkscape:connector-curvature="0"
         d="M 0,0 C 0.829,0 1.5,0.672 1.5,1.5 1.5,2.329 0.829,3 0,3 -0.828,3 -1.5,2.329 -1.5,1.5 -1.5,0.672 -0.828,0 0,0"
         style="fill:#231f20;fill-opacity:1;fill-rule:nonzero;stroke:none"
         id="path4105" />
    </g>
    <g
       id="g4107"
       transform="matrix(1.25,0,0,-1.25,814.37196,476.29189)">
      <path
         inkscape:connector-curvature="0"
         d="M 0,0 0,0.25 C 0.691,0.251 1.249,0.81 1.25,1.5 1.249,2.191 0.691,2.749 0,2.75 -0.69,2.749 -1.249,2.191 -1.25,1.5 -1.249,0.81 -0.69,0.251 0,0.25 L 0,0 0,-0.25 c -0.966,0 -1.75,0.784 -1.75,1.75 0,0.967 0.784,1.75 1.75,1.75 C 0.967,3.25 1.75,2.467 1.75,1.5 1.75,0.534 0.967,-0.25 0,-0.25 L 0,0 z"
         style="fill:#231f20;fill-opacity:1;fill-rule:nonzero;stroke:none"
         id="path4109" />
    </g>
    <g
       id="g4111"
       transform="matrix(1.25,0,0,-1.25,799.55945,476.29189)">
      <path
         inkscape:connector-curvature="0"
         d="M 0,0 C 0.828,0 1.5,0.672 1.5,1.5 1.5,2.329 0.828,3 0,3 -0.828,3 -1.5,2.329 -1.5,1.5 -1.5,0.672 -0.828,0 0,0"
         style="fill:#231f20;fill-opacity:1;fill-rule:nonzero;stroke:none"
         id="path4113" />
    </g>
    <g
       id="g4115"
       transform="matrix(1.25,0,0,-1.25,799.55945,476.29189)">
      <path
         inkscape:connector-curvature="0"
         d="M 0,0 0,0.25 C 0.69,0.251 1.249,0.81 1.25,1.5 1.249,2.191 0.69,2.749 0,2.75 -0.69,2.749 -1.249,2.191 -1.25,1.5 -1.249,0.81 -0.69,0.251 0,0.25 L 0,0 0,-0.25 c -0.966,0 -1.75,0.784 -1.75,1.75 0,0.967 0.784,1.75 1.75,1.75 C 0.966,3.25 1.75,2.467 1.75,1.5 1.75,0.534 0.966,-0.25 0,-0.25 L 0,0 z"
         style="fill:#231f20;fill-opacity:1;fill-rule:nonzero;stroke:none"
         id="path4117" />
    </g>
    <g
       id="g4119"
       transform="matrix(1.25,0,0,-1.25,784.74446,476.29189)">
      <path
         inkscape:connector-curvature="0"
         d="M 0,0 C 0.829,0 1.5,0.672 1.5,1.5 1.5,2.329 0.829,3 0,3 -0.827,3 -1.5,2.329 -1.5,1.5 -1.5,0.672 -0.827,0 0,0"
         style="fill:#231f20;fill-opacity:1;fill-rule:nonzero;stroke:none"
         id="path4121" />
    </g>
    <g
       id="g4123"
       transform="matrix(1.25,0,0,-1.25,784.74446,476.29189)">
      <path
         inkscape:connector-curvature="0"
         d="M 0,0 0,0.25 C 0.691,0.251 1.249,0.81 1.25,1.5 1.249,2.191 0.691,2.749 0,2.75 -0.689,2.749 -1.249,2.191 -1.25,1.5 -1.249,0.81 -0.689,0.251 0,0.25 L 0,0 0,-0.25 c -0.965,0 -1.75,0.783 -1.75,1.75 0,0.967 0.785,1.75 1.75,1.75 C 0.967,3.25 1.75,2.467 1.75,1.5 1.75,0.534 0.967,-0.25 0,-0.25 L 0,0 z"
         style="fill:#231f20;fill-opacity:1;fill-rule:nonzero;stroke:none"
         id="path4125" />
    </g>
    <g
       id="g4127"
       transform="matrix(1.25,0,0,-1.25,769.93446,456.29189)">
      <path
         inkscape:connector-curvature="0"
         d="M 0,0 C 0.829,0 1.5,0.672 1.5,1.5 1.5,2.329 0.829,3 0,3 -0.829,3 -1.5,2.329 -1.5,1.5 -1.5,0.672 -0.829,0 0,0"
         style="fill:#231f20;fill-opacity:1;fill-rule:nonzero;stroke:none"
         id="path4129" />
    </g>
    <g
       id="g4131"
       transform="matrix(1.25,0,0,-1.25,769.93446,456.29189)">
      <path
         inkscape:connector-curvature="0"
         d="M 0,0 0,0.25 C 0.691,0.251 1.249,0.81 1.25,1.5 1.249,2.191 0.691,2.749 0,2.75 -0.691,2.749 -1.249,2.191 -1.25,1.5 -1.249,0.81 -0.691,0.251 0,0.25 L 0,0 0,-0.25 c -0.967,0 -1.75,0.784 -1.75,1.75 0,0.967 0.783,1.75 1.75,1.75 C 0.967,3.25 1.75,2.467 1.75,1.5 1.75,0.534 0.967,-0.25 0,-0.25 L 0,0 z"
         style="fill:#231f20;fill-opacity:1;fill-rule:nonzero;stroke:none"
         id="path4133" />
    </g>
    <g
       id="g4135"
       transform="matrix(1.25,0,0,-1.25,755.12071,438.47939)">
      <path
         inkscape:connector-curvature="0"
         d="M 0,0 C 0.828,0 1.5,0.672 1.5,1.5 1.5,2.329 0.828,3 0,3 -0.828,3 -1.5,2.329 -1.5,1.5 -1.5,0.672 -0.828,0 0,0"
         style="fill:#231f20;fill-opacity:1;fill-rule:nonzero;stroke:none"
         id="path4137" />
    </g>
    <g
       id="g4139"
       transform="matrix(1.25,0,0,-1.25,755.12071,438.47939)">
      <path
         inkscape:connector-curvature="0"
         d="M 0,0 0,0.25 C 0.69,0.251 1.249,0.81 1.25,1.5 1.249,2.191 0.69,2.749 0,2.75 -0.69,2.749 -1.249,2.191 -1.25,1.5 -1.249,0.81 -0.69,0.251 0,0.25 L 0,0 0,-0.25 c -0.966,0 -1.75,0.784 -1.75,1.75 0,0.967 0.784,1.75 1.75,1.75 C 0.966,3.25 1.75,2.467 1.75,1.5 1.75,0.534 0.966,-0.25 0,-0.25 L 0,0 z"
         style="fill:#231f20;fill-opacity:1;fill-rule:nonzero;stroke:none"
         id="path4141" />
    </g>
    <g
       id="g4143"
       transform="matrix(1.25,0,0,-1.25,740.30946,422.22939)">
      <path
         inkscape:connector-curvature="0"
         d="M 0,0 C 0.829,0 1.5,0.672 1.5,1.5 1.5,2.329 0.829,3 0,3 -0.828,3 -1.5,2.329 -1.5,1.5 -1.5,0.672 -0.828,0 0,0"
         style="fill:#231f20;fill-opacity:1;fill-rule:nonzero;stroke:none"
         id="path4145" />
    </g>
    <g
       id="g4147"
       transform="matrix(1.25,0,0,-1.25,740.30946,422.22939)">
      <path
         inkscape:connector-curvature="0"
         d="M 0,0 0,0.25 C 0.691,0.251 1.249,0.81 1.25,1.5 1.249,2.191 0.691,2.749 0,2.75 -0.69,2.749 -1.249,2.191 -1.25,1.5 -1.249,0.81 -0.69,0.251 0,0.25 L 0,0 0,-0.25 c -0.966,0 -1.75,0.784 -1.75,1.75 0,0.967 0.784,1.75 1.75,1.75 C 0.967,3.25 1.75,2.467 1.75,1.5 1.75,0.534 0.967,-0.25 0,-0.25 L 0,0 z"
         style="fill:#231f20;fill-opacity:1;fill-rule:nonzero;stroke:none"
         id="path4149" />
    </g>
    <g
       id="g4151"
       transform="matrix(1.25,0,0,-1.25,725.49695,476.29189)">
      <path
         inkscape:connector-curvature="0"
         d="M 0,0 C 0.828,0 1.5,0.672 1.5,1.5 1.5,2.329 0.828,3 0,3 -0.828,3 -1.5,2.329 -1.5,1.5 -1.5,0.672 -0.828,0 0,0"
         style="fill:#231f20;fill-opacity:1;fill-rule:nonzero;stroke:none"
         id="path4153" />
    </g>
    <g
       id="g4155"
       transform="matrix(1.25,0,0,-1.25,725.49695,476.29189)">
      <path
         inkscape:connector-curvature="0"
         d="M 0,0 0,0.25 C 0.69,0.251 1.249,0.81 1.25,1.5 1.249,2.191 0.69,2.749 0,2.75 -0.69,2.749 -1.249,2.191 -1.25,1.5 -1.249,0.81 -0.69,0.251 0,0.25 L 0,0 0,-0.25 c -0.966,0 -1.75,0.784 -1.75,1.75 0,0.967 0.784,1.75 1.75,1.75 C 0.966,3.25 1.75,2.467 1.75,1.5 1.75,0.534 0.966,-0.25 0,-0.25 L 0,0 z"
         style="fill:#231f20;fill-opacity:1;fill-rule:nonzero;stroke:none"
         id="path4157" />
    </g>
    <g
       id="g4159"
       transform="matrix(1.25,0,0,-1.25,710.68446,476.29189)">
      <path
         inkscape:connector-curvature="0"
         d="M 0,0 C 0.829,0 1.5,0.672 1.5,1.5 1.5,2.329 0.829,3 0,3 -0.828,3 -1.5,2.329 -1.5,1.5 -1.5,0.672 -0.828,0 0,0"
         style="fill:#231f20;fill-opacity:1;fill-rule:nonzero;stroke:none"
         id="path4161" />
    </g>
    <g
       id="g4163"
       transform="matrix(1.25,0,0,-1.25,710.68446,476.29189)">
      <path
         inkscape:connector-curvature="0"
         d="M 0,0 0,0.25 C 0.691,0.251 1.249,0.81 1.25,1.5 1.249,2.191 0.691,2.749 0,2.75 -0.69,2.749 -1.249,2.191 -1.25,1.5 -1.249,0.81 -0.69,0.251 0,0.25 L 0,0 0,-0.25 c -0.966,0 -1.75,0.784 -1.75,1.75 0,0.967 0.784,1.75 1.75,1.75 C 0.967,3.25 1.75,2.467 1.75,1.5 1.75,0.534 0.967,-0.25 0,-0.25 L 0,0 z"
         style="fill:#231f20;fill-opacity:1;fill-rule:nonzero;stroke:none"
         id="path4165" />
    </g>
    <g
       id="g4167"
       transform="matrix(1.25,0,0,-1.25,695.87196,476.29189)">
      <path
         inkscape:connector-curvature="0"
         d="M 0,0 C 0.829,0 1.5,0.672 1.5,1.5 1.5,2.329 0.829,3 0,3 -0.829,3 -1.5,2.329 -1.5,1.5 -1.5,0.672 -0.829,0 0,0"
         style="fill:#231f20;fill-opacity:1;fill-rule:nonzero;stroke:none"
         id="path4169" />
    </g>
    <g
       id="g4171"
       transform="matrix(1.25,0,0,-1.25,695.87196,476.29189)">
      <path
         inkscape:connector-curvature="0"
         d="M 0,0 0,0.25 C 0.691,0.251 1.249,0.81 1.25,1.5 1.249,2.191 0.691,2.749 0,2.75 -0.691,2.749 -1.249,2.191 -1.25,1.5 -1.249,0.81 -0.691,0.251 0,0.25 L 0,0 0,-0.25 c -0.967,0 -1.75,0.784 -1.75,1.75 0,0.967 0.783,1.75 1.75,1.75 C 0.967,3.25 1.75,2.467 1.75,1.5 1.75,0.534 0.967,-0.25 0,-0.25 L 0,0 z"
         style="fill:#231f20;fill-opacity:1;fill-rule:nonzero;stroke:none"
         id="path4173" />
    </g>
    <g
       id="g4175"
       transform="matrix(1.25,0,0,-1.25,681.06071,476.29189)">
      <path
         inkscape:connector-curvature="0"
         d="M 0,0 C 0.829,0 1.5,0.672 1.5,1.5 1.5,2.329 0.829,3 0,3 -0.828,3 -1.5,2.329 -1.5,1.5 -1.5,0.672 -0.828,0 0,0"
         style="fill:#231f20;fill-opacity:1;fill-rule:nonzero;stroke:none"
         id="path4177" />
    </g>
  </g>
</svg>
