<?xml version="1.0" encoding="UTF-8" standalone="no"?>
<!-- Created with Inkscape (http://www.inkscape.org/) -->

<svg
   xmlns:dc="http://purl.org/dc/elements/1.1/"
   xmlns:cc="http://creativecommons.org/ns#"
   xmlns:rdf="http://www.w3.org/1999/02/22-rdf-syntax-ns#"
   xmlns:svg="http://www.w3.org/2000/svg"
   xmlns="http://www.w3.org/2000/svg"
   xmlns:sodipodi="http://sodipodi.sourceforge.net/DTD/sodipodi-0.dtd"
   xmlns:inkscape="http://www.inkscape.org/namespaces/inkscape"
   width="314.58249"
   height="95.004982"
   id="svg4753"
   version="1.1"
   inkscape:version="0.48.3.1 r9886"
   sodipodi:docname="Documento nuevo 5">
  <defs
     id="defs4755">
    <clipPath
       clipPathUnits="userSpaceOnUse"
       id="clipPath4286">
      <path
         inkscape:connector-curvature="0"
         d="m 362.823,692.913 -251.808,0 0,-77.343 251.808,0 0,77.343 z"
         id="path4288" />
    </clipPath>
  </defs>
  <sodipodi:namedview
     id="base"
     pagecolor="#ffffff"
     bordercolor="#666666"
     borderopacity="1.0"
     inkscape:pageopacity="0.0"
     inkscape:pageshadow="2"
     inkscape:zoom="1.979899"
     inkscape:cx="183.52191"
     inkscape:cy="94.605698"
     inkscape:document-units="px"
     inkscape:current-layer="layer1"
     showgrid="false"
     fit-margin-top="0"
     fit-margin-left="0"
     fit-margin-right="0"
     fit-margin-bottom="0"
     inkscape:window-width="1920"
     inkscape:window-height="1021"
     inkscape:window-x="0"
     inkscape:window-y="27"
     inkscape:window-maximized="1" />
  <metadata
     id="metadata4758">
    <rdf:RDF>
      <cc:Work
         rdf:about="">
        <dc:format>image/svg+xml</dc:format>
        <dc:type
           rdf:resource="http://purl.org/dc/dcmitype/StillImage" />
        <dc:title></dc:title>
      </cc:Work>
    </rdf:RDF>
  </metadata>
  <g
     inkscape:label="Capa 1"
     inkscape:groupmode="layer"
     id="layer1"
     transform="translate(-168.42303,-430.57401)">
    <g
       id="g4068"
       transform="matrix(1.25,0,0,-1.25,483.00553,507.04645)">
      <path
         inkscape:connector-curvature="0"
         d="m 0,0 -251.666,0 0,0.5 L 0,0.5"
         style="fill:#231f20;fill-opacity:1;fill-rule:nonzero;stroke:none"
         id="path4070" />
    </g>
    <text
       style="font-size:15px"
       y="517.76648"
       x="189.67303"
       id="text4072">
      <tspan
         style="font-size:10px;font-variant:normal;font-weight:normal;writing-mode:lr-tb;fill:#231f20;fill-opacity:1;fill-rule:nonzero;stroke:none;font-family:Times New Roman;-inkscape-font-specification:TimesTen-Roman"
         x="189.67303 194.67303 215.34305 220.34305 241.01303 246.01303 266.68301 271.68301 253.84305 258.84305 228.17307 233.17307 202.50305 215.33304 307.67307 320.50302 333.33304 346.16306 358.99301 371.82303 384.65305"
         y="517.76648"
         sodipodi:role="line"
         id="tspan4074">–9–7–5–3–4–6–80123456</tspan>
      <tspan
         style="font-size:10px;font-variant:normal;font-weight:normal;writing-mode:lr-tb;fill:#231f20;fill-opacity:1;fill-rule:nonzero;stroke:none;font-family:Times New Roman;-inkscape-font-specification:TimesTen-Roman"
         x="397.59305 409.82303 423.42307 433.00308 438.00308 446.07303 451.07303"
         y="503.12643"
         sodipodi:role="line"
         id="tspan4076">7891011</tspan>
      <tspan
         style="font-size:10px;font-variant:normal;font-weight:normal;writing-mode:lr-tb;fill:#231f20;fill-opacity:1;fill-rule:nonzero;stroke:none;font-family:Times New Roman;-inkscape-font-specification:TimesTen-Roman"
         x="292.34305 297.34305 279.51303 284.51303"
         y="517.76648"
         sodipodi:role="line"
         id="tspan4078">–1–2</tspan>
    </text>
    <text
       style="font-size:15px"
       y="437.34647"
       x="314.54306"
       id="text4080">
      <tspan
         style="font-size:10px;font-style:italic;font-variant:normal;writing-mode:lr-tb;fill:#231f20;fill-opacity:1;fill-rule:nonzero;stroke:none;font-family:Times New Roman;-inkscape-font-specification:TimesTen-Italic"
         x="314.54306"
         y="437.34647"
         id="tspan4082">x</tspan>
    </text>
    <text
       style="font-size:15px"
       y="437.34647"
       x="320.54306"
       id="text4084">
      <tspan
         style="font-size:10px;font-variant:normal;font-weight:normal;writing-mode:lr-tb;fill:#231f20;fill-opacity:1;fill-rule:nonzero;stroke:none;font-family:Times New Roman;-inkscape-font-specification:TimesTen-Roman"
         x="320.54306 323.87302 328.87302"
         y="437.34647"
         sodipodi:role="line"
         id="tspan4086">[0]</tspan>
    </text>
    <text
       style="font-size:15px"
       y="450.67642"
       x="327.93301"
       id="text4088">
      <tspan
         style="font-size:10px;font-style:italic;font-variant:normal;writing-mode:lr-tb;fill:#231f20;fill-opacity:1;fill-rule:nonzero;stroke:none;font-family:Times New Roman;-inkscape-font-specification:TimesTen-Italic"
         x="327.93301"
         y="450.67642"
         id="tspan4090">x</tspan>
    </text>
    <text
       style="font-size:15px"
       y="450.67642"
       x="333.93301"
       id="text4092">
      <tspan
         style="font-size:10px;font-variant:normal;font-weight:normal;writing-mode:lr-tb;fill:#231f20;fill-opacity:1;fill-rule:nonzero;stroke:none;font-family:Times New Roman;-inkscape-font-specification:TimesTen-Roman"
         x="333.93301 337.26303 342.26303"
         y="450.67642"
         sodipodi:role="line"
         id="tspan4094">[1]</tspan>
    </text>
    <text
       style="font-size:15px"
       y="462.54642"
       x="340.79306"
       id="text4096">
      <tspan
         style="font-size:10px;font-style:italic;font-variant:normal;writing-mode:lr-tb;fill:#231f20;fill-opacity:1;fill-rule:nonzero;stroke:none;font-family:Times New Roman;-inkscape-font-specification:TimesTen-Italic"
         x="340.79306"
         y="462.54642"
         id="tspan4098">x</tspan>
    </text>
    <text
       style="font-size:15px"
       y="462.54642"
       x="346.79306"
       id="text4100">
      <tspan
         style="font-size:10px;font-variant:normal;font-weight:normal;writing-mode:lr-tb;fill:#231f20;fill-opacity:1;fill-rule:nonzero;stroke:none;font-family:Times New Roman;-inkscape-font-specification:TimesTen-Roman"
         x="346.79306 350.12302 355.12302"
         y="462.54642"
         sodipodi:role="line"
         id="tspan4102">[2]</tspan>
    </text>
    <text
       style="font-size:15px"
       y="451.60641"
       x="426.97305"
       id="text4104">
      <tspan
         style="font-size:10px;font-style:italic;font-variant:normal;writing-mode:lr-tb;fill:#231f20;fill-opacity:1;fill-rule:nonzero;stroke:none;font-family:Times New Roman;-inkscape-font-specification:TimesTen-Italic"
         x="426.97305"
         y="451.60641"
         id="tspan4106">x</tspan>
    </text>
    <text
       style="font-size:15px"
       y="451.60641"
       x="432.97305"
       id="text4108">
      <tspan
         style="font-size:10px;font-variant:normal;font-weight:normal;writing-mode:lr-tb;fill:#231f20;fill-opacity:1;fill-rule:nonzero;stroke:none;font-family:Times New Roman;-inkscape-font-specification:TimesTen-Roman"
         x="432.97305"
         y="451.60641"
         id="tspan4110">[</tspan>
    </text>
    <text
       style="font-size:15px"
       y="451.60641"
       x="436.30307"
       id="text4112">
      <tspan
         style="font-size:10px;font-style:italic;font-variant:normal;writing-mode:lr-tb;fill:#231f20;fill-opacity:1;fill-rule:nonzero;stroke:none;font-family:Times New Roman;-inkscape-font-specification:TimesTen-Italic"
         x="436.30307"
         y="451.60641"
         id="tspan4114">n</tspan>
    </text>
    <text
       style="font-size:15px"
       y="451.60641"
       x="441.86307"
       id="text4116">
      <tspan
         style="font-size:10px;font-variant:normal;font-weight:normal;writing-mode:lr-tb;fill:#231f20;fill-opacity:1;fill-rule:nonzero;stroke:none;font-family:Times New Roman;-inkscape-font-specification:TimesTen-Roman"
         x="441.86307"
         y="451.60641"
         id="tspan4118">]</tspan>
    </text>
    <text
       style="font-size:15px"
       y="441.50644"
       x="281.83304"
       id="text4120">
      <tspan
         style="font-size:10px;font-style:italic;font-variant:normal;writing-mode:lr-tb;fill:#231f20;fill-opacity:1;fill-rule:nonzero;stroke:none;font-family:Times New Roman;-inkscape-font-specification:TimesTen-Italic"
         x="281.83304"
         y="441.50644"
         id="tspan4122">x</tspan>
    </text>
    <text
       style="font-size:15px"
       y="441.50644"
       x="287.83304"
       id="text4124">
      <tspan
         style="font-size:10px;font-variant:normal;font-weight:normal;writing-mode:lr-tb;fill:#231f20;fill-opacity:1;fill-rule:nonzero;stroke:none;font-family:Times New Roman;-inkscape-font-specification:TimesTen-Roman"
         x="287.83304 291.16306 296.16306 301.16306"
         y="441.50644"
         sodipodi:role="line"
         id="tspan4126">[–1]</tspan>
    </text>
    <text
       style="font-size:15px"
       y="454.83646"
       x="257.87302"
       id="text4128">
      <tspan
         style="font-size:10px;font-style:italic;font-variant:normal;writing-mode:lr-tb;fill:#231f20;fill-opacity:1;fill-rule:nonzero;stroke:none;font-family:Times New Roman;-inkscape-font-specification:TimesTen-Italic"
         x="257.87302"
         y="454.83646"
         id="tspan4130">x</tspan>
    </text>
    <text
       style="font-size:15px"
       y="454.83646"
       x="263.87302"
       id="text4132">
      <tspan
         style="font-size:10px;font-variant:normal;font-weight:normal;writing-mode:lr-tb;fill:#231f20;fill-opacity:1;fill-rule:nonzero;stroke:none;font-family:Times New Roman;-inkscape-font-specification:TimesTen-Roman"
         x="263.87302 267.20303 272.20303 277.20303"
         y="454.83646"
         sodipodi:role="line"
         id="tspan4134">[–2]</tspan>
    </text>
    <text
       style="font-size:15px"
       y="517.75647"
       x="477.62308"
       id="text4136">
      <tspan
         style="font-size:10px;font-style:italic;font-variant:normal;writing-mode:lr-tb;fill:#231f20;fill-opacity:1;fill-rule:nonzero;stroke:none;font-family:Times New Roman;-inkscape-font-specification:TimesTen-Italic"
         x="477.62308"
         y="517.75647"
         id="tspan4138">n</tspan>
    </text>
    <path
       inkscape:connector-curvature="0"
       d="m 194.49053,495.6827 1.25,0 0,11.1975 -1.25,0 0,-11.1975 z m 12.8075,-2.52 1.25,0 0,13.7175 -1.25,0 0,-13.7175 z m 12.80875,-4.14625 1.25,0 0,17.86375 -1.25,0 0,-17.86375 z m 12.8075,-4.94875 1.25,0 0,22.8125 -1.25,0 0,-22.8125 z m 12.80875,-5.905 1.25,0 0,28.7175 -1.25,0 0,-28.7175 z m 12.80875,-6.5 1.25,0 0,35.2175 -1.25,0 0,-35.2175 z m 12.80875,-7.875 1.25,0 0,43.0925 -1.25,0 0,-43.0925 z m 12.8075,-7.875 1.25,0 0,50.9675 -1.25,0 0,-50.9675 z m 12.80875,-8.14625 1.25,0 0,59.11375 -1.25,0 0,-59.11375 z m 12.8075,-8.95875 1.25,0 0,68.0725 -1.25,0 0,-68.0725 z m 12.80875,12.02125 1.25,0 0,56.05125 -1.25,0 0,-56.05125 z m 12.80875,12.145 1.25,0 0,43.90625 -1.25,0 0,-43.90625 z m 12.8075,11.39625 1.25,0 0,32.51 -1.25,0 0,-32.51 z m 12.81,12.52125 1.25,0 0,19.98875 -1.25,0 0,-19.98875 z m 12.8075,11.5 1.25,0 0,8.48875 -1.25,0 0,-8.48875 z m 12.8075,3.9575 1.25,0 0,4.53125 -1.25,0 0,-4.53125 z m 14.05875,8.95875 -1.25,0 0,-4.4275 1.25,0 0,4.4275 z m 12.80875,12.08375 -1.25,0 0,-16.51125 1.25,0 0,16.51125 z m 12.80875,-2.85375 -1.25,0 0,-13.6575 1.25,0 0,13.6575 z m 12.8075,-3.39625 -1.25,0 0,-10.26125 1.25,0 0,10.26125 z m 12.8075,-3.125 -1.25,0 0,-7.13625 1.25,0 0,7.13625 z"
       style="fill:#231f20;fill-opacity:1;fill-rule:nonzero;stroke:none"
       id="path4140" />
    <g
       id="g4142"
       transform="matrix(1.25,0,0,-1.25,195.50679,497.5577)">
      <path
         inkscape:connector-curvature="0"
         d="M 0,0 C 0.828,0 1.5,0.671 1.5,1.5 1.5,2.328 0.828,3 0,3 -0.829,3 -1.5,2.328 -1.5,1.5 -1.5,0.671 -0.829,0 0,0"
         style="fill:#231f20;fill-opacity:1;fill-rule:nonzero;stroke:none"
         id="path4144" />
    </g>
    <g
       id="g4146"
       transform="matrix(1.25,0,0,-1.25,195.50679,497.5577)">
      <path
         inkscape:connector-curvature="0"
         d="M 0,0 0,0.25 C 0.69,0.251 1.249,0.809 1.25,1.5 1.249,2.19 0.69,2.749 0,2.75 -0.691,2.749 -1.249,2.19 -1.25,1.5 -1.249,0.809 -0.691,0.251 0,0.25 L 0,0 0,-0.25 c -0.967,0 -1.75,0.783 -1.75,1.75 0,0.966 0.783,1.75 1.75,1.75 C 0.966,3.25 1.75,2.466 1.75,1.5 1.75,0.533 0.966,-0.25 0,-0.25 L 0,0 z"
         style="fill:#231f20;fill-opacity:1;fill-rule:nonzero;stroke:none"
         id="path4148" />
    </g>
    <g
       id="g4150"
       transform="matrix(1.25,0,0,-1.25,208.29552,495.03769)">
      <path
         inkscape:connector-curvature="0"
         d="M 0,0 C 0.828,0 1.5,0.672 1.5,1.5 1.5,2.329 0.828,3 0,3 -0.829,3 -1.5,2.329 -1.5,1.5 -1.5,0.672 -0.829,0 0,0"
         style="fill:#231f20;fill-opacity:1;fill-rule:nonzero;stroke:none"
         id="path4152" />
    </g>
    <g
       id="g4154"
       transform="matrix(1.25,0,0,-1.25,208.29552,495.03769)">
      <path
         inkscape:connector-curvature="0"
         d="M 0,0 0,0.25 C 0.69,0.251 1.249,0.81 1.25,1.5 1.249,2.191 0.69,2.749 0,2.75 -0.691,2.749 -1.249,2.191 -1.25,1.5 -1.249,0.81 -0.691,0.251 0,0.25 L 0,0 0,-0.25 c -0.967,0 -1.75,0.784 -1.75,1.75 0,0.967 0.783,1.75 1.75,1.75 C 0.966,3.25 1.75,2.467 1.75,1.5 1.75,0.534 0.966,-0.25 0,-0.25 L 0,0 z"
         style="fill:#231f20;fill-opacity:1;fill-rule:nonzero;stroke:none"
         id="path4156" />
    </g>
    <g
       id="g4158"
       transform="matrix(1.25,0,0,-1.25,221.08428,490.89144)">
      <path
         inkscape:connector-curvature="0"
         d="M 0,0 C 0.828,0 1.5,0.671 1.5,1.5 1.5,2.329 0.828,3 0,3 -0.829,3 -1.5,2.329 -1.5,1.5 -1.5,0.671 -0.829,0 0,0"
         style="fill:#231f20;fill-opacity:1;fill-rule:nonzero;stroke:none"
         id="path4160" />
    </g>
    <g
       id="g4162"
       transform="matrix(1.25,0,0,-1.25,221.08428,490.89144)">
      <path
         inkscape:connector-curvature="0"
         d="M 0,0 0,0.25 C 0.69,0.251 1.249,0.809 1.25,1.5 1.249,2.191 0.69,2.749 0,2.75 -0.691,2.749 -1.249,2.191 -1.25,1.5 -1.249,0.809 -0.691,0.251 0,0.25 L 0,0 0,-0.25 c -0.967,0 -1.75,0.783 -1.75,1.75 0,0.967 0.783,1.75 1.75,1.75 C 0.966,3.25 1.75,2.467 1.75,1.5 1.75,0.533 0.966,-0.25 0,-0.25 L 0,0 z"
         style="fill:#231f20;fill-opacity:1;fill-rule:nonzero;stroke:none"
         id="path4164" />
    </g>
    <g
       id="g4166"
       transform="matrix(1.25,0,0,-1.25,233.87303,485.94269)">
      <path
         inkscape:connector-curvature="0"
         d="M 0,0 C 0.828,0 1.5,0.671 1.5,1.5 1.5,2.328 0.828,3 0,3 -0.829,3 -1.5,2.328 -1.5,1.5 -1.5,0.671 -0.829,0 0,0"
         style="fill:#231f20;fill-opacity:1;fill-rule:nonzero;stroke:none"
         id="path4168" />
    </g>
    <g
       id="g4170"
       transform="matrix(1.25,0,0,-1.25,233.87303,485.94269)">
      <path
         inkscape:connector-curvature="0"
         d="M 0,0 0,0.25 C 0.69,0.251 1.249,0.809 1.25,1.5 1.249,2.19 0.69,2.749 0,2.75 -0.691,2.749 -1.249,2.19 -1.25,1.5 -1.249,0.809 -0.691,0.251 0,0.25 L 0,0 0,-0.25 c -0.967,0 -1.75,0.783 -1.75,1.75 0,0.966 0.783,1.75 1.75,1.75 C 0.966,3.25 1.75,2.466 1.75,1.5 1.75,0.533 0.966,-0.25 0,-0.25 L 0,0 z"
         style="fill:#231f20;fill-opacity:1;fill-rule:nonzero;stroke:none"
         id="path4172" />
    </g>
    <g
       id="g4174"
       transform="matrix(1.25,0,0,-1.25,246.66178,480.03769)">
      <path
         inkscape:connector-curvature="0"
         d="M 0,0 C 0.828,0 1.5,0.672 1.5,1.5 1.5,2.329 0.828,3 0,3 -0.829,3 -1.5,2.329 -1.5,1.5 -1.5,0.672 -0.829,0 0,0"
         style="fill:#231f20;fill-opacity:1;fill-rule:nonzero;stroke:none"
         id="path4176" />
    </g>
    <g
       id="g4178"
       transform="matrix(1.25,0,0,-1.25,246.66178,480.03769)">
      <path
         inkscape:connector-curvature="0"
         d="M 0,0 0,0.25 C 0.69,0.251 1.249,0.81 1.25,1.5 1.249,2.191 0.69,2.749 0,2.75 -0.691,2.749 -1.249,2.191 -1.25,1.5 -1.249,0.81 -0.691,0.251 0,0.25 L 0,0 0,-0.25 c -0.967,0 -1.75,0.784 -1.75,1.75 0,0.967 0.783,1.75 1.75,1.75 C 0.966,3.25 1.75,2.467 1.75,1.5 1.75,0.534 0.966,-0.25 0,-0.25 L 0,0 z"
         style="fill:#231f20;fill-opacity:1;fill-rule:nonzero;stroke:none"
         id="path4180" />
    </g>
    <g
       id="g4182"
       transform="matrix(1.25,0,0,-1.25,259.45054,473.5377)">
      <path
         inkscape:connector-curvature="0"
         d="M 0,0 C 0.828,0 1.5,0.672 1.5,1.5 1.5,2.329 0.828,3 0,3 -0.829,3 -1.5,2.329 -1.5,1.5 -1.5,0.672 -0.829,0 0,0"
         style="fill:#231f20;fill-opacity:1;fill-rule:nonzero;stroke:none"
         id="path4184" />
    </g>
    <g
       id="g4186"
       transform="matrix(1.25,0,0,-1.25,259.45054,473.5377)">
      <path
         inkscape:connector-curvature="0"
         d="M 0,0 0,0.25 C 0.69,0.251 1.249,0.81 1.25,1.5 1.249,2.191 0.69,2.749 0,2.75 -0.691,2.749 -1.249,2.191 -1.25,1.5 -1.249,0.81 -0.691,0.251 0,0.25 L 0,0 0,-0.25 c -0.967,0 -1.75,0.784 -1.75,1.75 0,0.967 0.783,1.75 1.75,1.75 C 0.966,3.25 1.75,2.467 1.75,1.5 1.75,0.534 0.966,-0.25 0,-0.25 L 0,0 z"
         style="fill:#231f20;fill-opacity:1;fill-rule:nonzero;stroke:none"
         id="path4188" />
    </g>
    <g
       id="g4190"
       transform="matrix(1.25,0,0,-1.25,272.23927,465.66269)">
      <path
         inkscape:connector-curvature="0"
         d="M 0,0 C 0.828,0 1.5,0.672 1.5,1.5 1.5,2.329 0.828,3 0,3 -0.829,3 -1.5,2.329 -1.5,1.5 -1.5,0.672 -0.829,0 0,0"
         style="fill:#231f20;fill-opacity:1;fill-rule:nonzero;stroke:none"
         id="path4192" />
    </g>
    <g
       id="g4194"
       transform="matrix(1.25,0,0,-1.25,272.23927,465.66269)">
      <path
         inkscape:connector-curvature="0"
         d="M 0,0 0,0.25 C 0.69,0.251 1.249,0.81 1.25,1.5 1.249,2.191 0.69,2.749 0,2.75 -0.691,2.749 -1.249,2.191 -1.25,1.5 -1.249,0.81 -0.691,0.251 0,0.25 L 0,0 0,-0.25 c -0.967,0 -1.75,0.784 -1.75,1.75 0,0.967 0.783,1.75 1.75,1.75 C 0.966,3.25 1.75,2.467 1.75,1.5 1.75,0.534 0.966,-0.25 0,-0.25 L 0,0 z"
         style="fill:#231f20;fill-opacity:1;fill-rule:nonzero;stroke:none"
         id="path4196" />
    </g>
    <g
       id="g4198"
       transform="matrix(1.25,0,0,-1.25,285.03928,457.78771)">
      <path
         inkscape:connector-curvature="0"
         d="M 0,0 C 0.828,0 1.5,0.672 1.5,1.5 1.5,2.329 0.828,3 0,3 -0.829,3 -1.5,2.329 -1.5,1.5 -1.5,0.672 -0.829,0 0,0"
         style="fill:#231f20;fill-opacity:1;fill-rule:nonzero;stroke:none"
         id="path4200" />
    </g>
    <g
       id="g4202"
       transform="matrix(1.25,0,0,-1.25,285.03928,457.78771)">
      <path
         inkscape:connector-curvature="0"
         d="M 0,0 0,0.25 C 0.69,0.251 1.249,0.81 1.25,1.5 1.249,2.191 0.69,2.749 0,2.75 -0.691,2.749 -1.249,2.191 -1.25,1.5 -1.249,0.81 -0.691,0.251 0,0.25 L 0,0 0,-0.25 c -0.967,0 -1.75,0.784 -1.75,1.75 0,0.967 0.783,1.75 1.75,1.75 C 0.966,3.25 1.75,2.467 1.75,1.5 1.75,0.534 0.966,-0.25 0,-0.25 L 0,0 z"
         style="fill:#231f20;fill-opacity:1;fill-rule:nonzero;stroke:none"
         id="path4204" />
    </g>
    <g
       id="g4206"
       transform="matrix(1.25,0,0,-1.25,297.81678,449.64144)">
      <path
         inkscape:connector-curvature="0"
         d="M 0,0 C 0.828,0 1.5,0.671 1.5,1.5 1.5,2.329 0.828,3 0,3 -0.828,3 -1.5,2.329 -1.5,1.5 -1.5,0.671 -0.828,0 0,0"
         style="fill:#231f20;fill-opacity:1;fill-rule:nonzero;stroke:none"
         id="path4208" />
    </g>
    <g
       id="g4210"
       transform="matrix(1.25,0,0,-1.25,297.81678,449.64144)">
      <path
         inkscape:connector-curvature="0"
         d="M 0,0 0,0.25 C 0.69,0.251 1.249,0.809 1.25,1.5 1.249,2.191 0.69,2.749 0,2.75 -0.69,2.749 -1.249,2.191 -1.25,1.5 -1.249,0.809 -0.69,0.251 0,0.25 L 0,0 0,-0.25 c -0.966,0 -1.75,0.783 -1.75,1.75 0,0.967 0.784,1.75 1.75,1.75 C 0.966,3.25 1.75,2.467 1.75,1.5 1.75,0.533 0.966,-0.25 0,-0.25 L 0,0 z"
         style="fill:#231f20;fill-opacity:1;fill-rule:nonzero;stroke:none"
         id="path4212" />
    </g>
    <g
       id="g4214"
       transform="matrix(1.25,0,0,-1.25,310.60553,440.6827)">
      <path
         inkscape:connector-curvature="0"
         d="M 0,0 C 0.828,0 1.5,0.671 1.5,1.5 1.5,2.328 0.828,3 0,3 -0.829,3 -1.5,2.328 -1.5,1.5 -1.5,0.671 -0.829,0 0,0"
         style="fill:#231f20;fill-opacity:1;fill-rule:nonzero;stroke:none"
         id="path4216" />
    </g>
    <g
       id="g4218"
       transform="matrix(1.25,0,0,-1.25,310.60553,440.6827)">
      <path
         inkscape:connector-curvature="0"
         d="M 0,0 0,0.25 C 0.69,0.251 1.249,0.809 1.25,1.5 1.249,2.19 0.69,2.749 0,2.75 -0.691,2.749 -1.249,2.19 -1.25,1.5 -1.249,0.809 -0.691,0.251 0,0.25 L 0,0 0,-0.25 c -0.967,0 -1.75,0.783 -1.75,1.75 0,0.966 0.783,1.75 1.75,1.75 C 0.966,3.25 1.75,2.466 1.75,1.5 1.75,0.533 0.966,-0.25 0,-0.25 L 0,0 z"
         style="fill:#231f20;fill-opacity:1;fill-rule:nonzero;stroke:none"
         id="path4220" />
    </g>
    <g
       id="g4222"
       transform="matrix(1.25,0,0,-1.25,323.39428,452.70395)">
      <path
         inkscape:connector-curvature="0"
         d="M 0,0 C 0.828,0 1.5,0.672 1.5,1.5 1.5,2.328 0.828,3 0,3 -0.829,3 -1.5,2.328 -1.5,1.5 -1.5,0.672 -0.829,0 0,0"
         style="fill:#231f20;fill-opacity:1;fill-rule:nonzero;stroke:none"
         id="path4224" />
    </g>
    <g
       id="g4226"
       transform="matrix(1.25,0,0,-1.25,323.39428,452.70395)">
      <path
         inkscape:connector-curvature="0"
         d="M 0,0 0,0.25 C 0.69,0.251 1.249,0.81 1.25,1.5 1.249,2.19 0.69,2.749 0,2.75 -0.691,2.749 -1.249,2.19 -1.25,1.5 -1.249,0.81 -0.691,0.251 0,0.25 L 0,0 0,-0.25 c -0.967,0 -1.75,0.784 -1.75,1.75 0,0.966 0.783,1.75 1.75,1.75 C 0.966,3.25 1.75,2.466 1.75,1.5 1.75,0.534 0.966,-0.25 0,-0.25 L 0,0 z"
         style="fill:#231f20;fill-opacity:1;fill-rule:nonzero;stroke:none"
         id="path4228" />
    </g>
    <g
       id="g4230"
       transform="matrix(1.25,0,0,-1.25,336.18304,464.84894)">
      <path
         inkscape:connector-curvature="0"
         d="M 0,0 C 0.828,0 1.5,0.671 1.5,1.5 1.5,2.328 0.828,3 0,3 -0.829,3 -1.5,2.328 -1.5,1.5 -1.5,0.671 -0.829,0 0,0"
         style="fill:#231f20;fill-opacity:1;fill-rule:nonzero;stroke:none"
         id="path4232" />
    </g>
    <g
       id="g4234"
       transform="matrix(1.25,0,0,-1.25,336.18304,464.84894)">
      <path
         inkscape:connector-curvature="0"
         d="M 0,0 0,0.25 C 0.69,0.251 1.249,0.809 1.25,1.5 1.249,2.19 0.69,2.749 0,2.75 -0.691,2.749 -1.249,2.19 -1.25,1.5 -1.249,0.809 -0.691,0.251 0,0.25 L 0,0 0,-0.25 c -0.967,0 -1.75,0.783 -1.75,1.75 0,0.966 0.783,1.75 1.75,1.75 C 0.966,3.25 1.75,2.466 1.75,1.5 1.75,0.533 0.966,-0.25 0,-0.25 L 0,0 z"
         style="fill:#231f20;fill-opacity:1;fill-rule:nonzero;stroke:none"
         id="path4236" />
    </g>
    <g
       id="g4238"
       transform="matrix(1.25,0,0,-1.25,348.96928,476.2452)">
      <path
         inkscape:connector-curvature="0"
         d="M 0,0 C 0.828,0 1.5,0.671 1.5,1.5 1.5,2.328 0.828,3 0,3 -0.829,3 -1.5,2.328 -1.5,1.5 -1.5,0.671 -0.829,0 0,0"
         style="fill:#231f20;fill-opacity:1;fill-rule:nonzero;stroke:none"
         id="path4240" />
    </g>
    <g
       id="g4242"
       transform="matrix(1.25,0,0,-1.25,348.96928,476.2452)">
      <path
         inkscape:connector-curvature="0"
         d="M 0,0 0,0.25 C 0.69,0.251 1.249,0.809 1.25,1.5 1.249,2.19 0.69,2.749 0,2.75 -0.691,2.749 -1.249,2.19 -1.25,1.5 -1.249,0.809 -0.691,0.251 0,0.25 L 0,0 0,-0.25 c -0.967,0 -1.75,0.783 -1.75,1.75 0,0.966 0.783,1.75 1.75,1.75 C 0.966,3.25 1.75,2.466 1.75,1.5 1.75,0.533 0.966,-0.25 0,-0.25 L 0,0 z"
         style="fill:#231f20;fill-opacity:1;fill-rule:nonzero;stroke:none"
         id="path4244" />
    </g>
    <g
       id="g4246"
       transform="matrix(1.25,0,0,-1.25,361.76053,488.76645)">
      <path
         inkscape:connector-curvature="0"
         d="M 0,0 C 0.828,0 1.5,0.672 1.5,1.5 1.5,2.328 0.828,3 0,3 -0.829,3 -1.5,2.328 -1.5,1.5 -1.5,0.672 -0.829,0 0,0"
         style="fill:#231f20;fill-opacity:1;fill-rule:nonzero;stroke:none"
         id="path4248" />
    </g>
    <g
       id="g4250"
       transform="matrix(1.25,0,0,-1.25,361.76053,488.76645)">
      <path
         inkscape:connector-curvature="0"
         d="M 0,0 0,0.25 C 0.69,0.251 1.249,0.81 1.25,1.5 1.249,2.19 0.69,2.749 0,2.75 -0.691,2.749 -1.249,2.19 -1.25,1.5 -1.249,0.81 -0.691,0.251 0,0.25 L 0,0 0,-0.25 c -0.967,0 -1.75,0.784 -1.75,1.75 0,0.966 0.783,1.75 1.75,1.75 C 0.966,3.25 1.75,2.466 1.75,1.5 1.75,0.534 0.966,-0.25 0,-0.25 L 0,0 z"
         style="fill:#231f20;fill-opacity:1;fill-rule:nonzero;stroke:none"
         id="path4252" />
    </g>
    <g
       id="g4254"
       transform="matrix(1.25,0,0,-1.25,374.54802,500.26644)">
      <path
         inkscape:connector-curvature="0"
         d="M 0,0 C 0.829,0 1.5,0.671 1.5,1.5 1.5,2.329 0.829,3 0,3 -0.828,3 -1.5,2.329 -1.5,1.5 -1.5,0.671 -0.828,0 0,0"
         style="fill:#231f20;fill-opacity:1;fill-rule:nonzero;stroke:none"
         id="path4256" />
    </g>
    <g
       id="g4258"
       transform="matrix(1.25,0,0,-1.25,374.54802,500.26644)">
      <path
         inkscape:connector-curvature="0"
         d="M 0,0 0,0.25 C 0.691,0.251 1.249,0.809 1.25,1.5 1.249,2.191 0.691,2.749 0,2.75 -0.69,2.749 -1.249,2.191 -1.25,1.5 -1.249,0.809 -0.69,0.251 0,0.25 L 0,0 0,-0.25 c -0.966,0 -1.75,0.783 -1.75,1.75 0,0.967 0.784,1.75 1.75,1.75 C 0.967,3.25 1.75,2.467 1.75,1.5 1.75,0.533 0.967,-0.25 0,-0.25 L 0,0 z"
         style="fill:#231f20;fill-opacity:1;fill-rule:nonzero;stroke:none"
         id="path4260" />
    </g>
    <g
       id="g4262"
       transform="matrix(1.25,0,0,-1.25,387.33803,504.22394)">
      <path
         inkscape:connector-curvature="0"
         d="M 0,0 C 0.828,0 1.5,0.671 1.5,1.5 1.5,2.328 0.828,3 0,3 -0.829,3 -1.5,2.328 -1.5,1.5 -1.5,0.671 -0.829,0 0,0"
         style="fill:#231f20;fill-opacity:1;fill-rule:nonzero;stroke:none"
         id="path4264" />
    </g>
    <g
       id="g4266"
       transform="matrix(1.25,0,0,-1.25,387.33803,504.22394)">
      <path
         inkscape:connector-curvature="0"
         d="M 0,0 0,0.25 C 0.69,0.251 1.249,0.809 1.25,1.5 1.249,2.19 0.69,2.749 0,2.75 -0.691,2.749 -1.249,2.19 -1.25,1.5 -1.249,0.809 -0.691,0.251 0,0.25 L 0,0 0,-0.25 c -0.967,0 -1.75,0.783 -1.75,1.75 0,0.966 0.783,1.75 1.75,1.75 C 0.966,3.25 1.75,2.466 1.75,1.5 1.75,0.533 0.966,-0.25 0,-0.25 L 0,0 z"
         style="fill:#231f20;fill-opacity:1;fill-rule:nonzero;stroke:none"
         id="path4268" />
    </g>
    <g
       id="g4270"
       transform="matrix(1.25,0,0,-1.25,400.12679,513.1827)">
      <path
         inkscape:connector-curvature="0"
         d="M 0,0 C 0.827,0 1.5,0.671 1.5,1.5 1.5,2.328 0.827,3 0,3 -0.829,3 -1.5,2.328 -1.5,1.5 -1.5,0.671 -0.829,0 0,0"
         style="fill:#231f20;fill-opacity:1;fill-rule:nonzero;stroke:none"
         id="path4272" />
    </g>
    <g
       id="g4274"
       transform="matrix(1.25,0,0,-1.25,400.12679,513.1827)">
      <path
         inkscape:connector-curvature="0"
         d="M 0,0 0,0.25 C 0.689,0.251 1.249,0.809 1.25,1.5 1.249,2.189 0.689,2.749 0,2.75 -0.691,2.749 -1.249,2.19 -1.25,1.5 -1.249,0.809 -0.691,0.251 0,0.25 L 0,0 0,-0.25 c -0.967,0 -1.75,0.783 -1.75,1.75 0,0.966 0.783,1.75 1.75,1.75 C 0.965,3.25 1.75,2.466 1.75,1.5 1.75,0.533 0.965,-0.25 0,-0.25 L 0,0 z"
         style="fill:#231f20;fill-opacity:1;fill-rule:nonzero;stroke:none"
         id="path4276" />
    </g>
    <g
       id="g4278"
       transform="matrix(1.25,0,0,-1.25,412.90429,525.26644)">
      <path
         inkscape:connector-curvature="0"
         d="M 0,0 C 0.828,0 1.5,0.671 1.5,1.5 1.5,2.329 0.828,3 0,3 -0.829,3 -1.5,2.329 -1.5,1.5 -1.5,0.671 -0.829,0 0,0"
         style="fill:#231f20;fill-opacity:1;fill-rule:nonzero;stroke:none"
         id="path4280" />
    </g>
    <g
       transform="matrix(1.25,0,0,-1.25,29.654283,1295.0415)"
       id="g4282">
      <g
         id="g4284"
         clip-path="url(#clipPath4286)">
        <g
           id="g4290"
           transform="translate(306.60001,615.82001)">
          <path
             inkscape:connector-curvature="0"
             d="M 0,0 0,0.25 C 0.69,0.251 1.249,0.809 1.25,1.5 1.249,2.191 0.69,2.749 0,2.75 -0.691,2.749 -1.249,2.191 -1.25,1.5 -1.249,0.809 -0.691,0.251 0,0.25 L 0,0 0,-0.25 c -0.967,0 -1.75,0.783 -1.75,1.75 0,0.967 0.783,1.75 1.75,1.75 C 0.966,3.25 1.75,2.467 1.75,1.5 1.75,0.533 0.966,-0.25 0,-0.25 L 0,0 z"
             style="fill:#231f20;fill-opacity:1;fill-rule:nonzero;stroke:none"
             id="path4292" />
        </g>
      </g>
    </g>
    <g
       id="g4294"
       transform="matrix(1.25,0,0,-1.25,425.70303,522.4127)">
      <path
         inkscape:connector-curvature="0"
         d="M 0,0 C 0.829,0 1.5,0.672 1.5,1.5 1.5,2.329 0.829,3 0,3 -0.828,3 -1.5,2.329 -1.5,1.5 -1.5,0.672 -0.828,0 0,0"
         style="fill:#231f20;fill-opacity:1;fill-rule:nonzero;stroke:none"
         id="path4296" />
    </g>
    <g
       id="g4298"
       transform="matrix(1.25,0,0,-1.25,425.70303,522.4127)">
      <path
         inkscape:connector-curvature="0"
         d="M 0,0 0,0.25 C 0.691,0.251 1.249,0.81 1.25,1.5 1.249,2.191 0.691,2.749 0,2.75 -0.69,2.749 -1.249,2.191 -1.25,1.5 -1.249,0.81 -0.69,0.251 0,0.25 L 0,0 0,-0.25 c -0.966,0 -1.75,0.784 -1.75,1.75 0,0.967 0.784,1.75 1.75,1.75 C 0.967,3.25 1.75,2.467 1.75,1.5 1.75,0.534 0.967,-0.25 0,-0.25 L 0,0 z"
         style="fill:#231f20;fill-opacity:1;fill-rule:nonzero;stroke:none"
         id="path4300" />
    </g>
    <g
       id="g4302"
       transform="matrix(1.25,0,0,-1.25,438.48178,519.01644)">
      <path
         inkscape:connector-curvature="0"
         d="M 0,0 C 0.828,0 1.5,0.671 1.5,1.5 1.5,2.329 0.828,3 0,3 -0.828,3 -1.5,2.329 -1.5,1.5 -1.5,0.671 -0.828,0 0,0"
         style="fill:#231f20;fill-opacity:1;fill-rule:nonzero;stroke:none"
         id="path4304" />
    </g>
    <g
       id="g4306"
       transform="matrix(1.25,0,0,-1.25,438.48178,519.01644)">
      <path
         inkscape:connector-curvature="0"
         d="M 0,0 0,0.25 C 0.69,0.251 1.249,0.809 1.25,1.5 1.249,2.191 0.69,2.749 0,2.75 -0.69,2.749 -1.249,2.191 -1.25,1.5 -1.249,0.809 -0.69,0.251 0,0.25 L 0,0 0,-0.25 c -0.966,0 -1.75,0.783 -1.75,1.75 0,0.967 0.784,1.75 1.75,1.75 C 0.966,3.25 1.75,2.467 1.75,1.5 1.75,0.533 0.966,-0.25 0,-0.25 L 0,0 z"
         style="fill:#231f20;fill-opacity:1;fill-rule:nonzero;stroke:none"
         id="path4308" />
    </g>
    <g
       id="g4310"
       transform="matrix(1.25,0,0,-1.25,451.28052,515.89144)">
      <path
         inkscape:connector-curvature="0"
         d="M 0,0 C 0.829,0 1.5,0.671 1.5,1.5 1.5,2.329 0.829,3 0,3 -0.827,3 -1.5,2.329 -1.5,1.5 -1.5,0.671 -0.827,0 0,0"
         style="fill:#231f20;fill-opacity:1;fill-rule:nonzero;stroke:none"
         id="path4312" />
    </g>
    <g
       id="g4314"
       transform="matrix(1.25,0,0,-1.25,451.28052,515.89144)">
      <path
         inkscape:connector-curvature="0"
         d="M 0,0 0,0.25 C 0.691,0.251 1.249,0.809 1.25,1.5 1.249,2.191 0.691,2.749 0,2.75 -0.689,2.749 -1.249,2.19 -1.25,1.5 -1.249,0.809 -0.689,0.251 0,0.25 L 0,0 0,-0.25 c -0.965,0 -1.75,0.783 -1.75,1.75 0,0.967 0.785,1.75 1.75,1.75 C 0.967,3.25 1.75,2.467 1.75,1.5 1.75,0.533 0.967,-0.25 0,-0.25 L 0,0 z"
         style="fill:#231f20;fill-opacity:1;fill-rule:nonzero;stroke:none"
         id="path4316" />
    </g>
  </g>
</svg>
