<?xml version="1.0" encoding="UTF-8" standalone="no"?>
<!-- Created with Inkscape (http://www.inkscape.org/) -->

<svg
   xmlns:dc="http://purl.org/dc/elements/1.1/"
   xmlns:cc="http://creativecommons.org/ns#"
   xmlns:rdf="http://www.w3.org/1999/02/22-rdf-syntax-ns#"
   xmlns:svg="http://www.w3.org/2000/svg"
   xmlns="http://www.w3.org/2000/svg"
   xmlns:sodipodi="http://sodipodi.sourceforge.net/DTD/sodipodi-0.dtd"
   xmlns:inkscape="http://www.inkscape.org/namespaces/inkscape"
   width="163.5558"
   height="99.673752"
   id="svg4428"
   version="1.1"
   inkscape:version="0.48.3.1 r9886"
   sodipodi:docname="Documento nuevo 3">
  <defs
     id="defs4430">
    <clipPath
       clipPathUnits="userSpaceOnUse"
       id="clipPath254">
      <path
         inkscape:connector-curvature="0"
         d="m 333.701,693.269 -131.006,0 0,-79.739 131.006,0 0,79.739 z"
         id="path256" />
    </clipPath>
    <clipPath
       clipPathUnits="userSpaceOnUse"
       id="clipPath176">
      <path
         inkscape:connector-curvature="0"
         d="m 333.701,693.269 -131.006,0 0,-79.739 131.006,0 0,79.739 z"
         id="path178" />
    </clipPath>
  </defs>
  <sodipodi:namedview
     id="base"
     pagecolor="#ffffff"
     bordercolor="#666666"
     borderopacity="1.0"
     inkscape:pageopacity="0.0"
     inkscape:pageshadow="2"
     inkscape:zoom="3.959798"
     inkscape:cx="142.95198"
     inkscape:cy="61.478578"
     inkscape:document-units="px"
     inkscape:current-layer="layer1"
     showgrid="false"
     fit-margin-top="0"
     fit-margin-left="0"
     fit-margin-right="0"
     fit-margin-bottom="0"
     inkscape:window-width="1920"
     inkscape:window-height="1021"
     inkscape:window-x="0"
     inkscape:window-y="27"
     inkscape:window-maximized="1" />
  <metadata
     id="metadata4433">
    <rdf:RDF>
      <cc:Work
         rdf:about="">
        <dc:format>image/svg+xml</dc:format>
        <dc:type
           rdf:resource="http://purl.org/dc/dcmitype/StillImage" />
        <dc:title></dc:title>
      </cc:Work>
    </rdf:RDF>
  </metadata>
  <g
     inkscape:label="Capa 1"
     inkscape:groupmode="layer"
     id="layer1"
     transform="translate(-268.22211,-482.52535)">
    <text
       style="font-size:15px"
       y="571.53979"
       x="385.38367"
       id="text132">
      <tspan
         style="font-size:10px;font-style:italic;font-variant:normal;writing-mode:lr-tb;fill:#231f20;fill-opacity:1;fill-rule:nonzero;stroke:none;font-family:Times New Roman;-inkscape-font-specification:Times-Italic"
         x="385.38367"
         y="571.53979"
         id="tspan134">y</tspan>
    </text>
    <text
       style="font-size:15px"
       y="571.53979"
       x="390.82367"
       id="text136">
      <tspan
         style="font-size:10px;font-variant:normal;font-weight:normal;writing-mode:lr-tb;fill:#231f20;fill-opacity:1;fill-rule:nonzero;stroke:none;font-family:Times New Roman;-inkscape-font-specification:Times-Roman"
         x="390.82367"
         y="571.53979"
         id="tspan138">[</tspan>
    </text>
    <text
       style="font-size:15px"
       y="571.53979"
       x="394.15366"
       id="text140">
      <tspan
         style="font-size:10px;font-style:italic;font-variant:normal;writing-mode:lr-tb;fill:#231f20;fill-opacity:1;fill-rule:nonzero;stroke:none;font-family:Times New Roman;-inkscape-font-specification:Times-Italic"
         x="394.15366"
         y="571.53979"
         id="tspan142">n</tspan>
    </text>
    <text
       style="font-size:15px"
       y="571.53979"
       x="401.65366"
       id="text144">
      <tspan
         style="font-size:10px;font-variant:normal;font-weight:normal;writing-mode:lr-tb;fill:#231f20;fill-opacity:1;fill-rule:nonzero;stroke:none;font-family:Times New Roman;-inkscape-font-specification:Times-Roman"
         x="401.65366 406.65366 409.15366 414.15366"
         y="571.53979"
         sodipodi:role="line"
         id="tspan146">– 1]</tspan>
    </text>
    <text
       style="font-size:15px"
       y="506.27982"
       x="268.57367"
       id="text148">
      <tspan
         style="font-size:10px;font-style:italic;font-variant:normal;writing-mode:lr-tb;fill:#231f20;fill-opacity:1;fill-rule:nonzero;stroke:none;font-family:Times New Roman;-inkscape-font-specification:Times-Italic"
         x="268.57367"
         y="506.27982"
         id="tspan150">x</tspan>
    </text>
    <text
       style="font-size:15px"
       y="506.27982"
       x="274.01367"
       id="text152">
      <tspan
         style="font-size:10px;font-variant:normal;font-weight:normal;writing-mode:lr-tb;fill:#231f20;fill-opacity:1;fill-rule:nonzero;stroke:none;font-family:Times New Roman;-inkscape-font-specification:Times-Roman"
         x="274.01367"
         y="506.27982"
         id="tspan154">[</tspan>
    </text>
    <text
       style="font-size:15px"
       y="506.27982"
       x="277.34366"
       id="text156">
      <tspan
         style="font-size:10px;font-style:italic;font-variant:normal;writing-mode:lr-tb;fill:#231f20;fill-opacity:1;fill-rule:nonzero;stroke:none;font-family:Times New Roman;-inkscape-font-specification:Times-Italic"
         x="277.34366"
         y="506.27982"
         id="tspan158">n</tspan>
    </text>
    <text
       style="font-size:15px"
       y="506.27982"
       x="282.34366"
       id="text160">
      <tspan
         style="font-size:10px;font-variant:normal;font-weight:normal;writing-mode:lr-tb;fill:#231f20;fill-opacity:1;fill-rule:nonzero;stroke:none;font-family:Times New Roman;-inkscape-font-specification:Times-Roman"
         x="282.34366"
         y="506.27982"
         id="tspan162">]</tspan>
    </text>
    <g
       id="g164"
       transform="matrix(1.25,0,0,-1.25,269.67665,492.54281)">
      <path
         inkscape:connector-curvature="0"
         d="m 0,0 17.8,0 0,-1 L 0,-1"
         style="fill:#231f20;fill-opacity:1;fill-rule:nonzero;stroke:none"
         id="path166" />
    </g>
    <g
       id="g168"
       transform="matrix(1.25,0,0,-1.25,291.22542,493.16781)">
      <path
         inkscape:connector-curvature="0"
         d="M 0,0 -1.205,1.981 -1.137,2.026 2.094,0.743 C 3.22,0.495 4.346,0.247 5.472,0 4.346,-0.248 3.22,-0.495 2.094,-0.744 L -1.137,-2.027 -1.205,-1.993 0,0"
         style="fill:#231f20;fill-opacity:1;fill-rule:nonzero;stroke:none"
         id="path170" />
    </g>
    <g
       transform="matrix(1.25,0,0,-1.25,14.939155,1349.1116)"
       id="g172">
      <g
         id="g174"
         clip-path="url(#clipPath176)">
        <g
           id="g180"
           transform="translate(235.01401,671.83)">
          <path
             inkscape:connector-curvature="0"
             d="m 0,0 0,-57.3 57.379,0 0,34.194 1,0 0,-35.194 L -1,-58.3 -1,0 0,0 z"
             style="fill:#231f20;fill-opacity:1;fill-rule:nonzero;stroke:none"
             id="path182" />
        </g>
      </g>
    </g>
    <g
       id="g184"
       transform="matrix(1.25,0,0,-1.25,308.08167,510.02531)">
      <path
         inkscape:connector-curvature="0"
         d="m 0,0 -1.981,-1.205 -0.045,0.068 1.283,3.231 C -0.495,3.22 -0.247,4.346 0,5.472 0.248,4.346 0.496,3.22 0.744,2.094 L 2.027,-1.137 1.993,-1.205 0,0"
         style="fill:#231f20;fill-opacity:1;fill-rule:nonzero;stroke:none"
         id="path186" />
    </g>
    <g
       id="g188"
       transform="matrix(1.25,0,0,-1.25,318.09916,492.54281)">
      <path
         inkscape:connector-curvature="0"
         d="m 0,0 86.032,0 0,-1 L 0,-1"
         style="fill:#231f20;fill-opacity:1;fill-rule:nonzero;stroke:none"
         id="path190" />
    </g>
    <g
       id="g192"
       transform="matrix(1.25,0,0,-1.25,424.93666,493.16781)">
      <path
         inkscape:connector-curvature="0"
         d="M 0,0 -1.204,1.981 -1.136,2.026 2.095,0.743 C 3.22,0.495 4.346,0.247 5.473,0 4.346,-0.248 3.22,-0.495 2.095,-0.744 L -1.136,-2.027 -1.204,-1.993 0,0"
         style="fill:#231f20;fill-opacity:1;fill-rule:nonzero;stroke:none"
         id="path194" />
    </g>
    <g
       id="g196"
       transform="matrix(1.25,0,0,-1.25,381.7054,493.16781)">
      <path
         inkscape:connector-curvature="0"
         d="m 0,0 0,-18.801 -1,0 L -1,0"
         style="fill:#231f20;fill-opacity:1;fill-rule:nonzero;stroke:none"
         id="path198" />
    </g>
    <g
       id="g200"
       transform="matrix(1.25,0,0,-1.25,381.0804,515.96781)">
      <path
         inkscape:connector-curvature="0"
         d="M 0,0 1.982,1.205 2.027,1.138 0.743,-2.093 C 0.496,-3.219 0.248,-4.345 0,-5.471 c -0.247,1.126 -0.495,2.252 -0.743,3.378 L -2.026,1.138 -1.993,1.205 0,0"
         style="fill:#231f20;fill-opacity:1;fill-rule:nonzero;stroke:none"
         id="path202" />
    </g>
    <path
       inkscape:connector-curvature="0"
       d="m 350.23541,552.84156 61.64125,0 0,-30.035 -61.64125,0 0,30.035 z"
       style="fill:#ffffff;fill-opacity:1;fill-rule:nonzero;stroke:none"
       id="path204" />
    <g
       id="g206"
       transform="matrix(1.25,0,0,-1.25,350.23541,552.84155)">
      <path
         inkscape:connector-curvature="0"
         d="m 0,0 0,0.5 48.813,0 0,23.028 -48.313,0 L 0.5,0 0,0 0,0.5 0,0 l -0.5,0 0,24.528 50.313,0 0,-25.028 -50.313,0 0,0.5 0.5,0 z"
         style="fill:#231f20;fill-opacity:1;fill-rule:nonzero;stroke:none"
         id="path208" />
    </g>
    <text
       style="font-size:15px"
       y="535.32404"
       x="359.2554"
       id="text210">
      <tspan
         style="font-size:10px;font-variant:normal;font-weight:normal;writing-mode:lr-tb;fill:#231f20;fill-opacity:1;fill-rule:nonzero;stroke:none;font-family:Times New Roman;-inkscape-font-specification:Times-Roman"
         x="359.2554 365.92542 370.36542 373.14542 377.58542 380.91541 385.91541 390.91541 393.41541 398.41541"
         y="535.32404"
         sodipodi:role="line"
         id="tspan212">Retardo de</tspan>
    </text>
    <text
       style="font-size:15px"
       y="546.57404"
       x="356.7554"
       id="text214">
      <tspan
         style="font-size:10px;font-variant:normal;font-weight:normal;writing-mode:lr-tb;fill:#231f20;fill-opacity:1;fill-rule:nonzero;stroke:none;font-family:Times New Roman;-inkscape-font-specification:Times-Roman"
         x="356.7554"
         y="546.57404"
         id="tspan216">u</tspan>
    </text>
    <text
       style="font-size:15px"
       y="546.57404"
       x="361.7554"
       id="text218">
      <tspan
         style="font-size:10px;font-variant:normal;font-weight:normal;writing-mode:lr-tb;fill:#231f20;fill-opacity:1;fill-rule:nonzero;stroke:none;font-family:Times New Roman;-inkscape-font-specification:Times-Roman"
         x="361.7554 366.7554 371.1954 373.6954"
         y="546.57404"
         sodipodi:role="line"
         id="tspan220">na m</tspan>
    </text>
    <text
       style="font-size:15px"
       y="546.57404"
       x="381.4754"
       id="text222">
      <tspan
         style="font-size:10px;font-variant:normal;font-weight:normal;writing-mode:lr-tb;fill:#231f20;fill-opacity:1;fill-rule:nonzero;stroke:none;font-family:Times New Roman;-inkscape-font-specification:Times-Roman"
         x="381.4754"
         y="546.57404"
         id="tspan224">u</tspan>
    </text>
    <text
       style="font-size:15px"
       y="546.57404"
       x="386.4754"
       id="text226">
      <tspan
         style="font-size:10px;font-variant:normal;font-weight:normal;writing-mode:lr-tb;fill:#231f20;fill-opacity:1;fill-rule:nonzero;stroke:none;font-family:Times New Roman;-inkscape-font-specification:Times-Roman"
         x="386.4754 390.91541 394.80542 397.58542 400.91541"
         y="546.57404"
         sodipodi:role="line"
         id="tspan228">estra</tspan>
    </text>
    <text
       style="font-size:15px"
       y="506.28406"
       x="414.96542"
       id="text230">
      <tspan
         style="font-size:10px;font-style:italic;font-variant:normal;writing-mode:lr-tb;fill:#231f20;fill-opacity:1;fill-rule:nonzero;stroke:none;font-family:Times New Roman;-inkscape-font-specification:Times-Italic"
         x="414.96542"
         y="506.28406"
         id="tspan232">y</tspan>
    </text>
    <text
       style="font-size:15px"
       y="506.28406"
       x="420.40543"
       id="text234">
      <tspan
         style="font-size:10px;font-variant:normal;font-weight:normal;writing-mode:lr-tb;fill:#231f20;fill-opacity:1;fill-rule:nonzero;stroke:none;font-family:Times New Roman;-inkscape-font-specification:Times-Roman"
         x="420.40543"
         y="506.28406"
         id="tspan236">[</tspan>
    </text>
    <text
       style="font-size:15px"
       y="506.28406"
       x="423.73541"
       id="text238">
      <tspan
         style="font-size:10px;font-style:italic;font-variant:normal;writing-mode:lr-tb;fill:#231f20;fill-opacity:1;fill-rule:nonzero;stroke:none;font-family:Times New Roman;-inkscape-font-specification:Times-Italic"
         x="423.73541"
         y="506.28406"
         id="tspan240">n</tspan>
    </text>
    <text
       style="font-size:15px"
       y="506.28406"
       x="428.73541"
       id="text242">
      <tspan
         style="font-size:10px;font-variant:normal;font-weight:normal;writing-mode:lr-tb;fill:#231f20;fill-opacity:1;fill-rule:nonzero;stroke:none;font-family:Times New Roman;-inkscape-font-specification:Times-Roman"
         x="428.73541"
         y="506.28406"
         id="tspan244">]</tspan>
    </text>
    <g
       id="g246"
       transform="matrix(1.25,0,0,-1.25,308.08167,503.18531)">
      <path
         inkscape:connector-curvature="0"
         d="m 0,0 c 4.426,0 8.014,3.588 8.014,8.014 0,4.425 -3.588,8.014 -8.014,8.014 -4.425,0 -8.013,-3.589 -8.013,-8.014 C -8.013,3.588 -4.425,0 0,0"
         style="fill:#ffffff;fill-opacity:1;fill-rule:nonzero;stroke:none"
         id="path248" />
    </g>
    <g
       transform="matrix(1.25,0,0,-1.25,14.939155,1349.1116)"
       id="g250">
      <g
         id="g252"
         clip-path="url(#clipPath254)">
        <g
           id="g258"
           transform="translate(234.51401,676.741)">
          <path
             inkscape:connector-curvature="0"
             d="m 0,0 0,0.5 c 2.077,0 3.952,0.84 5.313,2.201 1.361,1.361 2.201,3.236 2.201,5.313 0,2.076 -0.84,3.951 -2.201,5.313 -1.361,1.36 -3.237,2.201 -5.313,2.201 -2.076,0 -3.951,-0.841 -5.312,-2.201 -1.361,-1.362 -2.201,-3.237 -2.201,-5.313 0,-2.077 0.84,-3.952 2.201,-5.313 C -3.951,1.34 -2.076,0.5 0,0.5 L 0,0 0,-0.5 c -4.701,0 -8.513,3.812 -8.513,8.514 0,4.701 3.812,8.514 8.513,8.514 4.702,0 8.514,-3.813 8.514,-8.514 C 8.514,3.312 4.702,-0.5 0,-0.5 L 0,0 z"
             style="fill:#231f20;fill-opacity:1;fill-rule:nonzero;stroke:none"
             id="path260" />
        </g>
      </g>
    </g>
    <text
       style="font-size:15px"
       y="495.70605"
       x="304.86292"
       id="text262">
      <tspan
         style="font-size:10px;font-variant:normal;font-weight:normal;writing-mode:lr-tb;fill:#231f20;fill-opacity:1;fill-rule:nonzero;stroke:none;font-family:Times New Roman;-inkscape-font-specification:Times-Roman"
         x="304.86292"
         y="495.70605"
         id="tspan264">+</tspan>
    </text>
  </g>
</svg>
