<?xml version="1.0" encoding="UTF-8" standalone="no"?>
<!-- Created with Inkscape (http://www.inkscape.org/) -->

<svg
   xmlns:dc="http://purl.org/dc/elements/1.1/"
   xmlns:cc="http://creativecommons.org/ns#"
   xmlns:rdf="http://www.w3.org/1999/02/22-rdf-syntax-ns#"
   xmlns:svg="http://www.w3.org/2000/svg"
   xmlns="http://www.w3.org/2000/svg"
   xmlns:sodipodi="http://sodipodi.sourceforge.net/DTD/sodipodi-0.dtd"
   xmlns:inkscape="http://www.inkscape.org/namespaces/inkscape"
   width="393.59473"
   height="89.687531"
   id="svg5624"
   version="1.1"
   inkscape:version="0.48.3.1 r9886"
   sodipodi:docname="Documento nuevo 11">
  <defs
     id="defs5626">
    <clipPath
       clipPathUnits="userSpaceOnUse"
       id="clipPath3199">
      <path
         inkscape:connector-curvature="0"
         d="m 488.243,693.24 -354.068,0 0,-495.75 354.068,0 0,495.75 z"
         id="path3201" />
    </clipPath>
  </defs>
  <sodipodi:namedview
     id="base"
     pagecolor="#ffffff"
     bordercolor="#666666"
     borderopacity="1.0"
     inkscape:pageopacity="0.0"
     inkscape:pageshadow="2"
     inkscape:zoom="2.8"
     inkscape:cx="342.06478"
     inkscape:cy="-23.285095"
     inkscape:document-units="px"
     inkscape:current-layer="layer1"
     showgrid="false"
     fit-margin-top="0"
     fit-margin-left="0"
     fit-margin-right="0"
     fit-margin-bottom="0"
     inkscape:window-width="1920"
     inkscape:window-height="1021"
     inkscape:window-x="0"
     inkscape:window-y="27"
     inkscape:window-maximized="1" />
  <metadata
     id="metadata5629">
    <rdf:RDF>
      <cc:Work
         rdf:about="">
        <dc:format>image/svg+xml</dc:format>
        <dc:type
           rdf:resource="http://purl.org/dc/dcmitype/StillImage" />
        <dc:title></dc:title>
      </cc:Work>
    </rdf:RDF>
  </metadata>
  <g
     inkscape:label="Capa 1"
     inkscape:groupmode="layer"
     id="layer1"
     transform="translate(-153.20264,-487.5184)">
    <g
       id="g3115"
       transform="matrix(1.25,0,0,-1.25,332.26514,545.01843)">
      <path
         inkscape:connector-curvature="0"
         d="m 0,0 -143.25,0 0,0.5 L 0,0.5"
         style="fill:#231f20;fill-opacity:1;fill-rule:nonzero;stroke:none"
         id="path3117" />
    </g>
    <text
       style="font-size:15px"
       y="515.01471"
       x="287.81702"
       id="text3129">
      <tspan
         style="font-size:10px;font-style:italic;font-variant:normal;writing-mode:lr-tb;fill:#231f20;fill-opacity:1;fill-rule:nonzero;stroke:none;font-family:Times New Roman;-inkscape-font-specification:TimesTen-Italic"
         x="287.81702"
         y="515.01471"
         id="tspan3131">x</tspan>
    </text>
    <text
       style="font-size:15px"
       y="515.01471"
       x="292.81702"
       id="text3133">
      <tspan
         style="font-size:10px;font-variant:normal;font-weight:normal;writing-mode:lr-tb;fill:#231f20;fill-opacity:1;fill-rule:nonzero;stroke:none;font-family:Times New Roman;-inkscape-font-specification:TimesTen-Roman"
         x="292.81702"
         y="515.01471"
         id="tspan3135">[</tspan>
    </text>
    <text
       style="font-size:15px"
       y="515.01471"
       x="296.147"
       id="text3137">
      <tspan
         style="font-size:10px;font-style:italic;font-variant:normal;writing-mode:lr-tb;fill:#231f20;fill-opacity:1;fill-rule:nonzero;stroke:none;font-family:Times New Roman;-inkscape-font-specification:TimesTen-Italic"
         x="296.147"
         y="515.01471"
         id="tspan3139">n</tspan>
    </text>
    <text
       style="font-size:15px"
       y="515.01471"
       x="301.707"
       id="text3141">
      <tspan
         style="font-size:10px;font-variant:normal;font-weight:normal;writing-mode:lr-tb;fill:#231f20;fill-opacity:1;fill-rule:nonzero;stroke:none;font-family:Times New Roman;-inkscape-font-specification:TimesTen-Roman"
         x="301.707"
         y="515.01471"
         id="tspan3143">]</tspan>
    </text>
    <text
       style="font-size:15px"
       y="555.43469"
       x="327.81702"
       id="text3145">
      <tspan
         style="font-size:10px;font-style:italic;font-variant:normal;writing-mode:lr-tb;fill:#231f20;fill-opacity:1;fill-rule:nonzero;stroke:none;font-family:Times New Roman;-inkscape-font-specification:TimesTen-Italic"
         x="327.81702"
         y="555.43469"
         id="tspan3147">n</tspan>
    </text>
    <path
       inkscape:connector-curvature="0"
       d="m 287.05389,575.01844 -1.25,0 0,-30.16625 1.25,0 0,30.16625 z m -45.68625,-85.3125 1.25,0 0,55.14625 -1.25,0 0,-55.14625 z m -29.62375,11.875 1.25,0 0,43.27125 -1.25,0 0,-43.27125 z"
       style="fill:#231f20;fill-opacity:1;fill-rule:nonzero;stroke:none"
       id="path3149" />
    <g
       id="g3151"
       transform="matrix(1.25,0,0,-1.25,316.05514,546.58093)">
      <path
         inkscape:connector-curvature="0"
         d="M 0,0 C 0.829,0 1.5,0.671 1.5,1.5 1.5,2.329 0.829,3 0,3 -0.828,3 -1.5,2.329 -1.5,1.5 -1.5,0.671 -0.828,0 0,0"
         style="fill:#231f20;fill-opacity:1;fill-rule:nonzero;stroke:none"
         id="path3153" />
    </g>
    <g
       id="g3155"
       transform="matrix(1.25,0,0,-1.25,316.05514,546.58093)">
      <path
         inkscape:connector-curvature="0"
         d="M 0,0 0,0.25 C 0.691,0.251 1.249,0.809 1.25,1.5 1.249,2.191 0.691,2.749 0,2.75 -0.69,2.749 -1.249,2.191 -1.25,1.5 -1.249,0.809 -0.69,0.251 0,0.25 L 0,0 0,-0.25 c -0.966,0 -1.75,0.783 -1.75,1.75 0,0.967 0.784,1.75 1.75,1.75 C 0.967,3.25 1.75,2.467 1.75,1.5 1.75,0.533 0.967,-0.25 0,-0.25 L 0,0 z"
         style="fill:#231f20;fill-opacity:1;fill-rule:nonzero;stroke:none"
         id="path3157" />
    </g>
    <g
       id="g3159"
       transform="matrix(1.25,0,0,-1.25,301.24263,546.58093)">
      <path
         inkscape:connector-curvature="0"
         d="M 0,0 C 0.828,0 1.5,0.671 1.5,1.5 1.5,2.329 0.828,3 0,3 -0.829,3 -1.5,2.329 -1.5,1.5 -1.5,0.671 -0.829,0 0,0"
         style="fill:#231f20;fill-opacity:1;fill-rule:nonzero;stroke:none"
         id="path3161" />
    </g>
    <g
       id="g3163"
       transform="matrix(1.25,0,0,-1.25,301.24263,546.58093)">
      <path
         inkscape:connector-curvature="0"
         d="M 0,0 0,0.25 C 0.69,0.251 1.249,0.809 1.25,1.5 1.249,2.191 0.69,2.749 0,2.75 -0.691,2.749 -1.249,2.191 -1.25,1.5 -1.249,0.809 -0.691,0.251 0,0.25 L 0,0 0,-0.25 c -0.967,0 -1.75,0.783 -1.75,1.75 0,0.967 0.783,1.75 1.75,1.75 C 0.966,3.25 1.75,2.467 1.75,1.5 1.75,0.533 0.966,-0.25 0,-0.25 L 0,0 z"
         style="fill:#231f20;fill-opacity:1;fill-rule:nonzero;stroke:none"
         id="path3165" />
    </g>
    <g
       id="g3167"
       transform="matrix(1.25,0,0,-1.25,286.42889,576.89343)">
      <path
         inkscape:connector-curvature="0"
         d="M 0,0 C 0.828,0 1.5,0.671 1.5,1.5 1.5,2.329 0.828,3 0,3 -0.829,3 -1.5,2.329 -1.5,1.5 -1.5,0.671 -0.829,0 0,0"
         style="fill:#231f20;fill-opacity:1;fill-rule:nonzero;stroke:none"
         id="path3169" />
    </g>
    <g
       id="g3171"
       transform="matrix(1.25,0,0,-1.25,286.42889,576.89343)">
      <path
         inkscape:connector-curvature="0"
         d="M 0,0 0,0.25 C 0.69,0.251 1.249,0.809 1.25,1.5 1.249,2.191 0.69,2.749 0,2.75 -0.691,2.749 -1.249,2.191 -1.25,1.5 -1.249,0.809 -0.691,0.251 0,0.25 L 0,0 0,-0.25 c -0.967,0 -1.75,0.783 -1.75,1.75 0,0.967 0.783,1.75 1.75,1.75 C 0.966,3.25 1.75,2.467 1.75,1.5 1.75,0.533 0.966,-0.25 0,-0.25 L 0,0 z"
         style="fill:#231f20;fill-opacity:1;fill-rule:nonzero;stroke:none"
         id="path3173" />
    </g>
    <g
       id="g3175"
       transform="matrix(1.25,0,0,-1.25,271.61764,546.58093)">
      <path
         inkscape:connector-curvature="0"
         d="M 0,0 C 0.828,0 1.5,0.671 1.5,1.5 1.5,2.329 0.828,3 0,3 -0.829,3 -1.5,2.329 -1.5,1.5 -1.5,0.671 -0.829,0 0,0"
         style="fill:#231f20;fill-opacity:1;fill-rule:nonzero;stroke:none"
         id="path3177" />
    </g>
    <g
       id="g3179"
       transform="matrix(1.25,0,0,-1.25,271.61764,546.58093)">
      <path
         inkscape:connector-curvature="0"
         d="M 0,0 0,0.25 C 0.69,0.251 1.249,0.809 1.25,1.5 1.249,2.191 0.69,2.749 0,2.75 -0.691,2.749 -1.249,2.191 -1.25,1.5 -1.249,0.809 -0.691,0.251 0,0.25 L 0,0 0,-0.25 c -0.967,0 -1.75,0.783 -1.75,1.75 0,0.967 0.783,1.75 1.75,1.75 C 0.966,3.25 1.75,2.467 1.75,1.5 1.75,0.533 0.966,-0.25 0,-0.25 L 0,0 z"
         style="fill:#231f20;fill-opacity:1;fill-rule:nonzero;stroke:none"
         id="path3181" />
    </g>
    <g
       id="g3183"
       transform="matrix(1.25,0,0,-1.25,256.80389,546.58093)">
      <path
         inkscape:connector-curvature="0"
         d="M 0,0 C 0.829,0 1.5,0.671 1.5,1.5 1.5,2.329 0.829,3 0,3 -0.828,3 -1.5,2.329 -1.5,1.5 -1.5,0.671 -0.828,0 0,0"
         style="fill:#231f20;fill-opacity:1;fill-rule:nonzero;stroke:none"
         id="path3185" />
    </g>
    <g
       id="g3187"
       transform="matrix(1.25,0,0,-1.25,256.80389,546.58093)">
      <path
         inkscape:connector-curvature="0"
         d="M 0,0 0,0.25 C 0.691,0.251 1.249,0.809 1.25,1.5 1.249,2.191 0.691,2.749 0,2.75 -0.69,2.749 -1.249,2.191 -1.25,1.5 -1.249,0.809 -0.69,0.251 0,0.25 L 0,0 0,-0.25 c -0.966,0 -1.75,0.783 -1.75,1.75 0,0.967 0.784,1.75 1.75,1.75 C 0.967,3.25 1.75,2.467 1.75,1.5 1.75,0.533 0.967,-0.25 0,-0.25 L 0,0 z"
         style="fill:#231f20;fill-opacity:1;fill-rule:nonzero;stroke:none"
         id="path3189" />
    </g>
    <g
       id="g3191"
       transform="matrix(1.25,0,0,-1.25,241.99264,491.58093)">
      <path
         inkscape:connector-curvature="0"
         d="M 0,0 C 0.829,0 1.5,0.671 1.5,1.5 1.5,2.329 0.829,3 0,3 -0.828,3 -1.5,2.329 -1.5,1.5 -1.5,0.671 -0.828,0 0,0"
         style="fill:#231f20;fill-opacity:1;fill-rule:nonzero;stroke:none"
         id="path3193" />
    </g>
    <g
       transform="matrix(1.25,0,0,-1.25,-14.516113,1354.0684)"
       id="g3195">
      <g
         id="g3197"
         clip-path="url(#clipPath3199)">
        <g
           id="g3203"
           transform="translate(205.207,689.99001)">
          <path
             inkscape:connector-curvature="0"
             d="M 0,0 0,0.25 C 0.691,0.251 1.249,0.809 1.25,1.5 1.249,2.191 0.691,2.749 0,2.75 -0.69,2.749 -1.249,2.191 -1.25,1.5 -1.249,0.809 -0.69,0.251 0,0.25 L 0,0 0,-0.25 c -0.966,0 -1.75,0.783 -1.75,1.75 0,0.967 0.784,1.75 1.75,1.75 C 0.967,3.25 1.75,2.467 1.75,1.5 1.75,0.533 0.967,-0.25 0,-0.25 L 0,0 z"
             style="fill:#231f20;fill-opacity:1;fill-rule:nonzero;stroke:none"
             id="path3205" />
        </g>
      </g>
    </g>
    <g
       id="g3207"
       transform="matrix(1.25,0,0,-1.25,227.18013,546.58093)">
      <path
         inkscape:connector-curvature="0"
         d="M 0,0 C 0.828,0 1.5,0.671 1.5,1.5 1.5,2.329 0.828,3 0,3 -0.829,3 -1.5,2.329 -1.5,1.5 -1.5,0.671 -0.829,0 0,0"
         style="fill:#231f20;fill-opacity:1;fill-rule:nonzero;stroke:none"
         id="path3209" />
    </g>
    <g
       id="g3211"
       transform="matrix(1.25,0,0,-1.25,227.18013,546.58093)">
      <path
         inkscape:connector-curvature="0"
         d="M 0,0 0,0.25 C 0.69,0.251 1.249,0.809 1.25,1.5 1.249,2.191 0.69,2.749 0,2.75 -0.691,2.749 -1.249,2.191 -1.25,1.5 -1.249,0.809 -0.691,0.251 0,0.25 L 0,0 0,-0.25 c -0.967,0 -1.75,0.783 -1.75,1.75 0,0.967 0.783,1.75 1.75,1.75 C 0.966,3.25 1.75,2.467 1.75,1.5 1.75,0.533 0.966,-0.25 0,-0.25 L 0,0 z"
         style="fill:#231f20;fill-opacity:1;fill-rule:nonzero;stroke:none"
         id="path3213" />
    </g>
    <g
       id="g3215"
       transform="matrix(1.25,0,0,-1.25,212.36889,503.45593)">
      <path
         inkscape:connector-curvature="0"
         d="M 0,0 C 0.828,0 1.5,0.671 1.5,1.5 1.5,2.329 0.828,3 0,3 -0.829,3 -1.5,2.329 -1.5,1.5 -1.5,0.671 -0.829,0 0,0"
         style="fill:#231f20;fill-opacity:1;fill-rule:nonzero;stroke:none"
         id="path3217" />
    </g>
    <g
       id="g3219"
       transform="matrix(1.25,0,0,-1.25,212.36889,503.45593)">
      <path
         inkscape:connector-curvature="0"
         d="M 0,0 0,0.25 C 0.69,0.251 1.249,0.809 1.25,1.5 1.249,2.191 0.69,2.749 0,2.75 -0.691,2.749 -1.249,2.191 -1.25,1.5 -1.249,0.809 -0.691,0.251 0,0.25 L 0,0 0,-0.25 c -0.967,0 -1.75,0.783 -1.75,1.75 0,0.967 0.783,1.75 1.75,1.75 C 0.966,3.25 1.75,2.467 1.75,1.5 1.75,0.533 0.966,-0.25 0,-0.25 L 0,0 z"
         style="fill:#231f20;fill-opacity:1;fill-rule:nonzero;stroke:none"
         id="path3221" />
    </g>
    <g
       id="g3223"
       transform="matrix(1.25,0,0,-1.25,197.55514,546.58093)">
      <path
         inkscape:connector-curvature="0"
         d="M 0,0 C 0.828,0 1.5,0.671 1.5,1.5 1.5,2.329 0.828,3 0,3 -0.829,3 -1.5,2.329 -1.5,1.5 -1.5,0.671 -0.829,0 0,0"
         style="fill:#231f20;fill-opacity:1;fill-rule:nonzero;stroke:none"
         id="path3225" />
    </g>
    <g
       id="g3227"
       transform="matrix(1.25,0,0,-1.25,197.55514,546.58093)">
      <path
         inkscape:connector-curvature="0"
         d="M 0,0 0,0.25 C 0.69,0.251 1.249,0.809 1.25,1.5 1.249,2.191 0.69,2.749 0,2.75 -0.691,2.749 -1.249,2.191 -1.25,1.5 -1.249,0.809 -0.691,0.251 0,0.25 L 0,0 0,-0.25 c -0.967,0 -1.75,0.783 -1.75,1.75 0,0.967 0.783,1.75 1.75,1.75 C 0.966,3.25 1.75,2.467 1.75,1.5 1.75,0.533 0.966,-0.25 0,-0.25 L 0,0 z"
         style="fill:#231f20;fill-opacity:1;fill-rule:nonzero;stroke:none"
         id="path3229" />
    </g>
    <g
       id="g3231"
       transform="matrix(1.25,0,0,-1.25,182.74389,546.58093)">
      <path
         inkscape:connector-curvature="0"
         d="M 0,0 C 0.828,0 1.5,0.671 1.5,1.5 1.5,2.329 0.828,3 0,3 -0.828,3 -1.5,2.329 -1.5,1.5 -1.5,0.671 -0.828,0 0,0"
         style="fill:#231f20;fill-opacity:1;fill-rule:nonzero;stroke:none"
         id="path3233" />
    </g>
    <g
       id="g3235"
       transform="matrix(1.25,0,0,-1.25,182.74389,546.58093)">
      <path
         inkscape:connector-curvature="0"
         d="M 0,0 0,0.25 C 0.69,0.251 1.249,0.809 1.25,1.5 1.249,2.191 0.69,2.749 0,2.75 -0.69,2.749 -1.249,2.191 -1.25,1.5 -1.249,0.809 -0.69,0.251 0,0.25 L 0,0 0,-0.25 c -0.966,0 -1.75,0.783 -1.75,1.75 0,0.967 0.784,1.75 1.75,1.75 C 0.966,3.25 1.75,2.467 1.75,1.5 1.75,0.533 0.966,-0.25 0,-0.25 L 0,0 z"
         style="fill:#231f20;fill-opacity:1;fill-rule:nonzero;stroke:none"
         id="path3237" />
    </g>
    <g
       id="g3239"
       transform="matrix(1.25,0,0,-1.25,167.93014,546.58093)">
      <path
         inkscape:connector-curvature="0"
         d="M 0,0 C 0.829,0 1.5,0.671 1.5,1.5 1.5,2.329 0.829,3 0,3 -0.828,3 -1.5,2.329 -1.5,1.5 -1.5,0.671 -0.828,0 0,0"
         style="fill:#231f20;fill-opacity:1;fill-rule:nonzero;stroke:none"
         id="path3241" />
    </g>
    <path
       inkscape:connector-curvature="0"
       id="path3245"
       style="fill:#231f20;fill-opacity:1;fill-rule:nonzero;stroke:none"
       d="m 167.93014,546.58092 0,-0.3125 c 0.86375,-10e-4 1.56125,-0.69874 1.5625,-1.5625 -0.001,-0.86375 -0.69875,-1.56125 -1.5625,-1.5625 -0.8625,10e-4 -1.56125,0.69875 -1.5625,1.5625 0.001,0.86376 0.7,1.56126 1.5625,1.5625 l 0,0.3125 0,0.3125 c -1.2075,0 -2.1875,-0.97875 -2.1875,-2.1875 0,-1.20875 0.98,-2.1875 2.1875,-2.1875 1.20875,0 2.1875,0.97875 2.1875,2.1875 0,1.20875 -0.97875,2.1875 -2.1875,2.1875 l 0,-0.3125 z m 378.71,-1.5625 -179.0625,0 0,-0.625 179.0625,0 0,0.625 z" />
    <text
       style="font-size:15px"
       y="555.43469"
       x="453.93265"
       id="text3247">
      <tspan
         style="font-size:10px;font-variant:normal;font-weight:normal;writing-mode:lr-tb;fill:#231f20;fill-opacity:1;fill-rule:nonzero;stroke:none;font-family:Times New Roman;-inkscape-font-specification:TimesTen-Roman"
         x="453.93265 484.64264"
         y="555.43469"
         sodipodi:role="line"
         id="tspan3249">02</tspan>
      <tspan
         style="font-size:10px;font-variant:normal;font-weight:normal;writing-mode:lr-tb;fill:#231f20;fill-opacity:1;fill-rule:nonzero;stroke:none;font-family:Times New Roman;-inkscape-font-specification:TimesTen-Roman"
         x="446.64264"
         y="505.33469"
         id="tspan3251">1</tspan>
    </text>
    <text
       style="font-size:15px"
       y="515.02466"
       x="501.92264"
       id="text3253">
      <tspan
         style="font-size:10px;font-style:italic;font-variant:normal;writing-mode:lr-tb;fill:#231f20;fill-opacity:1;fill-rule:nonzero;stroke:none;font-family:Times New Roman;-inkscape-font-specification:TimesTen-Italic"
         x="501.92264"
         y="515.02466"
         id="tspan3255">h</tspan>
    </text>
    <text
       style="font-size:15px"
       y="515.02466"
       x="507.48264"
       id="text3257">
      <tspan
         style="font-size:10px;font-variant:normal;font-weight:normal;writing-mode:lr-tb;fill:#231f20;fill-opacity:1;fill-rule:nonzero;stroke:none;font-family:Times New Roman;-inkscape-font-specification:TimesTen-Roman"
         x="507.48264"
         y="515.02466"
         id="tspan3259">[</tspan>
    </text>
    <text
       style="font-size:15px"
       y="515.02466"
       x="510.81262"
       id="text3261">
      <tspan
         style="font-size:10px;font-style:italic;font-variant:normal;writing-mode:lr-tb;fill:#231f20;fill-opacity:1;fill-rule:nonzero;stroke:none;font-family:Times New Roman;-inkscape-font-specification:TimesTen-Italic"
         x="510.81262"
         y="515.02466"
         id="tspan3263">n</tspan>
    </text>
    <text
       style="font-size:15px"
       y="515.02466"
       x="516.37268"
       id="text3265">
      <tspan
         style="font-size:10px;font-variant:normal;font-weight:normal;writing-mode:lr-tb;fill:#231f20;fill-opacity:1;fill-rule:nonzero;stroke:none;font-family:Times New Roman;-inkscape-font-specification:TimesTen-Roman"
         x="516.37268"
         y="515.02466"
         id="tspan3267">]</tspan>
    </text>
    <text
       style="font-size:15px"
       y="555.4447"
       x="542.20264"
       id="text3269">
      <tspan
         style="font-size:10px;font-style:italic;font-variant:normal;writing-mode:lr-tb;fill:#231f20;fill-opacity:1;fill-rule:nonzero;stroke:none;font-family:Times New Roman;-inkscape-font-specification:TimesTen-Italic"
         x="542.20264"
         y="555.4447"
         id="tspan3271">n</tspan>
    </text>
    <path
       inkscape:connector-curvature="0"
       d="m 485.36764,532.20594 1.25,0 0,12.64625 -1.25,0 0,-12.64625 z m -14.81375,-15.625 1.25,0 0,28.27125 -1.25,0 0,-28.27125 z m -14.81125,-14.6875 1.25,0 0,42.95875 -1.25,0 0,-42.95875 z"
       style="fill:#231f20;fill-opacity:1;fill-rule:nonzero;stroke:none"
       id="path3273" />
    <g
       id="g3275"
       transform="matrix(1.25,0,0,-1.2499999,530.43014,546.58093)">
      <path
         inkscape:connector-curvature="0"
         d="M 0,0 C 0.829,0 1.5,0.671 1.5,1.5 1.5,2.329 0.829,3 0,3 -0.828,3 -1.5,2.329 -1.5,1.5 -1.5,0.671 -0.828,0 0,0"
         style="fill:#231f20;fill-opacity:1;fill-rule:nonzero;stroke:none"
         id="path3277" />
    </g>
    <g
       id="g3279"
       transform="matrix(1.25,0,0,-1.2499999,530.43014,546.58093)">
      <path
         inkscape:connector-curvature="0"
         d="M 0,0 0,0.25 C 0.691,0.251 1.249,0.809 1.25,1.5 1.249,2.191 0.691,2.749 0,2.75 -0.69,2.749 -1.249,2.191 -1.25,1.5 -1.249,0.809 -0.69,0.251 0,0.25 L 0,0 0,-0.25 c -0.966,0 -1.75,0.783 -1.75,1.75 0,0.967 0.784,1.75 1.75,1.75 C 0.967,3.25 1.75,2.467 1.75,1.5 1.75,0.533 0.967,-0.25 0,-0.25 L 0,0 z"
         style="fill:#231f20;fill-opacity:1;fill-rule:nonzero;stroke:none"
         id="path3281" />
    </g>
    <g
       id="g3283"
       transform="matrix(1.25,0,0,-1.2499999,515.61763,546.58093)">
      <path
         inkscape:connector-curvature="0"
         d="M 0,0 C 0.828,0 1.5,0.671 1.5,1.5 1.5,2.329 0.828,3 0,3 -0.828,3 -1.5,2.329 -1.5,1.5 -1.5,0.671 -0.828,0 0,0"
         style="fill:#231f20;fill-opacity:1;fill-rule:nonzero;stroke:none"
         id="path3285" />
    </g>
    <g
       id="g3287"
       transform="matrix(1.25,0,0,-1.2499999,515.61763,546.58093)">
      <path
         inkscape:connector-curvature="0"
         d="M 0,0 0,0.25 C 0.69,0.251 1.249,0.809 1.25,1.5 1.249,2.191 0.69,2.749 0,2.75 -0.69,2.749 -1.249,2.191 -1.25,1.5 -1.249,0.809 -0.69,0.251 0,0.25 L 0,0 0,-0.25 c -0.966,0 -1.75,0.783 -1.75,1.75 0,0.967 0.784,1.75 1.75,1.75 C 0.966,3.25 1.75,2.467 1.75,1.5 1.75,0.533 0.966,-0.25 0,-0.25 L 0,0 z"
         style="fill:#231f20;fill-opacity:1;fill-rule:nonzero;stroke:none"
         id="path3289" />
    </g>
    <g
       id="g3291"
       transform="matrix(1.25,0,0,-1.2499999,500.80264,546.58093)">
      <path
         inkscape:connector-curvature="0"
         d="M 0,0 C 0.829,0 1.5,0.671 1.5,1.5 1.5,2.329 0.829,3 0,3 -0.827,3 -1.5,2.329 -1.5,1.5 -1.5,0.671 -0.827,0 0,0"
         style="fill:#231f20;fill-opacity:1;fill-rule:nonzero;stroke:none"
         id="path3293" />
    </g>
    <g
       id="g3295"
       transform="matrix(1.25,0,0,-1.2499999,500.80264,546.58093)">
      <path
         inkscape:connector-curvature="0"
         d="M 0,0 0,0.25 C 0.691,0.251 1.249,0.809 1.25,1.5 1.249,2.191 0.691,2.749 0,2.75 -0.689,2.749 -1.249,2.19 -1.25,1.5 -1.249,0.809 -0.689,0.251 0,0.25 L 0,0 0,-0.25 c -0.965,0 -1.75,0.783 -1.75,1.75 0,0.967 0.785,1.75 1.75,1.75 C 0.967,3.25 1.75,2.467 1.75,1.5 1.75,0.533 0.967,-0.25 0,-0.25 L 0,0 z"
         style="fill:#231f20;fill-opacity:1;fill-rule:nonzero;stroke:none"
         id="path3297" />
    </g>
    <g
       id="g3299"
       transform="matrix(1.25,0,0,-1.2499999,485.99264,534.08093)">
      <path
         inkscape:connector-curvature="0"
         d="M 0,0 C 0.829,0 1.5,0.671 1.5,1.5 1.5,2.329 0.829,3 0,3 -0.829,3 -1.5,2.329 -1.5,1.5 -1.5,0.671 -0.829,0 0,0"
         style="fill:#231f20;fill-opacity:1;fill-rule:nonzero;stroke:none"
         id="path3301" />
    </g>
    <g
       id="g3303"
       transform="matrix(1.25,0,0,-1.2499999,485.99264,534.08093)">
      <path
         inkscape:connector-curvature="0"
         d="M 0,0 0,0.25 C 0.691,0.251 1.249,0.809 1.25,1.5 1.249,2.191 0.691,2.749 0,2.75 -0.691,2.749 -1.249,2.191 -1.25,1.5 -1.249,0.809 -0.691,0.251 0,0.25 L 0,0 0,-0.25 c -0.967,0 -1.75,0.783 -1.75,1.75 0,0.967 0.783,1.75 1.75,1.75 C 0.967,3.25 1.75,2.467 1.75,1.5 1.75,0.533 0.967,-0.25 0,-0.25 L 0,0 z"
         style="fill:#231f20;fill-opacity:1;fill-rule:nonzero;stroke:none"
         id="path3305" />
    </g>
    <g
       id="g3307"
       transform="matrix(1.25,0,0,-1.2499999,471.17889,518.45593)">
      <path
         inkscape:connector-curvature="0"
         d="M 0,0 C 0.828,0 1.5,0.671 1.5,1.5 1.5,2.329 0.828,3 0,3 -0.828,3 -1.5,2.329 -1.5,1.5 -1.5,0.671 -0.828,0 0,0"
         style="fill:#231f20;fill-opacity:1;fill-rule:nonzero;stroke:none"
         id="path3309" />
    </g>
    <g
       id="g3311"
       transform="matrix(1.25,0,0,-1.2499999,471.17889,518.45593)">
      <path
         inkscape:connector-curvature="0"
         d="M 0,0 0,0.25 C 0.69,0.251 1.249,0.809 1.25,1.5 1.249,2.191 0.69,2.749 0,2.75 -0.69,2.749 -1.249,2.191 -1.25,1.5 -1.249,0.809 -0.69,0.251 0,0.25 L 0,0 0,-0.25 c -0.966,0 -1.75,0.783 -1.75,1.75 0,0.967 0.784,1.75 1.75,1.75 C 0.966,3.25 1.75,2.467 1.75,1.5 1.75,0.533 0.966,-0.25 0,-0.25 L 0,0 z"
         style="fill:#231f20;fill-opacity:1;fill-rule:nonzero;stroke:none"
         id="path3313" />
    </g>
    <g
       id="g3315"
       transform="matrix(1.25,0,0,-1.2499999,456.36764,503.76843)">
      <path
         inkscape:connector-curvature="0"
         d="M 0,0 C 0.829,0 1.5,0.671 1.5,1.5 1.5,2.329 0.829,3 0,3 -0.828,3 -1.5,2.329 -1.5,1.5 -1.5,0.671 -0.828,0 0,0"
         style="fill:#231f20;fill-opacity:1;fill-rule:nonzero;stroke:none"
         id="path3317" />
    </g>
    <g
       id="g3319"
       transform="matrix(1.25,0,0,-1.2499999,456.36764,503.76843)">
      <path
         inkscape:connector-curvature="0"
         d="M 0,0 0,0.25 C 0.691,0.251 1.249,0.809 1.25,1.5 1.249,2.191 0.691,2.749 0,2.75 -0.69,2.749 -1.249,2.191 -1.25,1.5 -1.249,0.809 -0.69,0.251 0,0.25 L 0,0 0,-0.25 c -0.966,0 -1.75,0.783 -1.75,1.75 0,0.967 0.784,1.75 1.75,1.75 C 0.967,3.25 1.75,2.467 1.75,1.5 1.75,0.533 0.967,-0.25 0,-0.25 L 0,0 z"
         style="fill:#231f20;fill-opacity:1;fill-rule:nonzero;stroke:none"
         id="path3321" />
    </g>
    <g
       id="g3323"
       transform="matrix(1.25,0,0,-1.2499999,441.55513,546.58093)">
      <path
         inkscape:connector-curvature="0"
         d="M 0,0 C 0.828,0 1.5,0.671 1.5,1.5 1.5,2.329 0.828,3 0,3 -0.828,3 -1.5,2.329 -1.5,1.5 -1.5,0.671 -0.828,0 0,0"
         style="fill:#231f20;fill-opacity:1;fill-rule:nonzero;stroke:none"
         id="path3325" />
    </g>
    <g
       id="g3327"
       transform="matrix(1.25,0,0,-1.2499999,441.55513,546.58093)">
      <path
         inkscape:connector-curvature="0"
         d="M 0,0 0,0.25 C 0.69,0.251 1.249,0.809 1.25,1.5 1.249,2.191 0.69,2.749 0,2.75 -0.69,2.749 -1.249,2.191 -1.25,1.5 -1.249,0.809 -0.69,0.251 0,0.25 L 0,0 0,-0.25 c -0.966,0 -1.75,0.783 -1.75,1.75 0,0.967 0.784,1.75 1.75,1.75 C 0.966,3.25 1.75,2.467 1.75,1.5 1.75,0.533 0.966,-0.25 0,-0.25 L 0,0 z"
         style="fill:#231f20;fill-opacity:1;fill-rule:nonzero;stroke:none"
         id="path3329" />
    </g>
    <g
       id="g3331"
       transform="matrix(1.25,0,0,-1.2499999,426.74264,546.58093)">
      <path
         inkscape:connector-curvature="0"
         d="M 0,0 C 0.829,0 1.5,0.671 1.5,1.5 1.5,2.329 0.829,3 0,3 -0.828,3 -1.5,2.329 -1.5,1.5 -1.5,0.671 -0.828,0 0,0"
         style="fill:#231f20;fill-opacity:1;fill-rule:nonzero;stroke:none"
         id="path3333" />
    </g>
    <g
       id="g3335"
       transform="matrix(1.25,0,0,-1.2499999,426.74264,546.58093)">
      <path
         inkscape:connector-curvature="0"
         d="M 0,0 0,0.25 C 0.691,0.251 1.249,0.809 1.25,1.5 1.249,2.191 0.691,2.749 0,2.75 -0.69,2.749 -1.249,2.191 -1.25,1.5 -1.249,0.809 -0.69,0.251 0,0.25 L 0,0 0,-0.25 c -0.966,0 -1.75,0.783 -1.75,1.75 0,0.967 0.784,1.75 1.75,1.75 C 0.967,3.25 1.75,2.467 1.75,1.5 1.75,0.533 0.967,-0.25 0,-0.25 L 0,0 z"
         style="fill:#231f20;fill-opacity:1;fill-rule:nonzero;stroke:none"
         id="path3337" />
    </g>
    <g
       id="g3339"
       transform="matrix(1.25,0,0,-1.2499999,411.93014,546.58093)">
      <path
         inkscape:connector-curvature="0"
         d="M 0,0 C 0.829,0 1.5,0.671 1.5,1.5 1.5,2.329 0.829,3 0,3 -0.829,3 -1.5,2.329 -1.5,1.5 -1.5,0.671 -0.829,0 0,0"
         style="fill:#231f20;fill-opacity:1;fill-rule:nonzero;stroke:none"
         id="path3341" />
    </g>
    <g
       id="g3343"
       transform="matrix(1.25,0,0,-1.2499999,411.93014,546.58093)">
      <path
         inkscape:connector-curvature="0"
         d="M 0,0 0,0.25 C 0.691,0.251 1.249,0.809 1.25,1.5 1.249,2.191 0.691,2.749 0,2.75 -0.691,2.749 -1.249,2.191 -1.25,1.5 -1.249,0.809 -0.691,0.251 0,0.25 L 0,0 0,-0.25 c -0.967,0 -1.75,0.783 -1.75,1.75 0,0.967 0.783,1.75 1.75,1.75 C 0.967,3.25 1.75,2.467 1.75,1.5 1.75,0.533 0.967,-0.25 0,-0.25 L 0,0 z"
         style="fill:#231f20;fill-opacity:1;fill-rule:nonzero;stroke:none"
         id="path3345" />
    </g>
    <g
       id="g3347"
       transform="matrix(1.25,0,0,-1.2499999,397.11889,546.58093)">
      <path
         inkscape:connector-curvature="0"
         d="M 0,0 C 0.829,0 1.5,0.671 1.5,1.5 1.5,2.329 0.829,3 0,3 -0.828,3 -1.5,2.329 -1.5,1.5 -1.5,0.671 -0.828,0 0,0"
         style="fill:#231f20;fill-opacity:1;fill-rule:nonzero;stroke:none"
         id="path3349" />
    </g>
    <g
       id="g3351"
       transform="matrix(1.25,0,0,-1.2499999,397.11889,546.58093)">
      <path
         inkscape:connector-curvature="0"
         d="M 0,0 0,0.25 C 0.691,0.251 1.249,0.809 1.25,1.5 1.249,2.191 0.691,2.749 0,2.75 -0.69,2.749 -1.249,2.191 -1.25,1.5 -1.249,0.809 -0.69,0.251 0,0.25 L 0,0 0,-0.25 c -0.966,0 -1.75,0.783 -1.75,1.75 0,0.967 0.784,1.75 1.75,1.75 C 0.967,3.25 1.75,2.467 1.75,1.5 1.75,0.533 0.967,-0.25 0,-0.25 L 0,0 z"
         style="fill:#231f20;fill-opacity:1;fill-rule:nonzero;stroke:none"
         id="path3353" />
    </g>
    <g
       id="g3355"
       transform="matrix(1.25,0,0,-1.2499999,382.30514,546.58093)">
      <path
         inkscape:connector-curvature="0"
         d="M 0,0 C 0.829,0 1.5,0.671 1.5,1.5 1.5,2.329 0.829,3 0,3 -0.828,3 -1.5,2.329 -1.5,1.5 -1.5,0.671 -0.828,0 0,0"
         style="fill:#231f20;fill-opacity:1;fill-rule:nonzero;stroke:none"
         id="path3357" />
    </g>
  </g>
</svg>
