<?xml version="1.0" encoding="UTF-8" standalone="no"?>
<!-- Created with Inkscape (http://www.inkscape.org/) -->

<svg
   xmlns:dc="http://purl.org/dc/elements/1.1/"
   xmlns:cc="http://creativecommons.org/ns#"
   xmlns:rdf="http://www.w3.org/1999/02/22-rdf-syntax-ns#"
   xmlns:svg="http://www.w3.org/2000/svg"
   xmlns="http://www.w3.org/2000/svg"
   xmlns:sodipodi="http://sodipodi.sourceforge.net/DTD/sodipodi-0.dtd"
   xmlns:inkscape="http://www.inkscape.org/namespaces/inkscape"
   width="408.43106"
   height="245.56992"
   id="svg4189"
   version="1.1"
   inkscape:version="0.48.3.1 r9886"
   sodipodi:docname="Documento nuevo 3">
  <defs
     id="defs4191">
    <clipPath
       clipPathUnits="userSpaceOnUse"
       id="clipPath352">
      <path
         inkscape:connector-curvature="0"
         d="m 474.052,683.559 -296.677,0 0,-166.029 296.677,0 0,166.029 z"
         id="path354" />
    </clipPath>
  </defs>
  <sodipodi:namedview
     id="base"
     pagecolor="#ffffff"
     bordercolor="#666666"
     borderopacity="1.0"
     inkscape:pageopacity="0.0"
     inkscape:pageshadow="2"
     inkscape:zoom="0.35"
     inkscape:cx="57.072675"
     inkscape:cy="239.92783"
     inkscape:document-units="px"
     inkscape:current-layer="layer1"
     showgrid="false"
     fit-margin-top="0"
     fit-margin-left="0"
     fit-margin-right="0"
     fit-margin-bottom="0"
     inkscape:window-width="596"
     inkscape:window-height="434"
     inkscape:window-x="0"
     inkscape:window-y="59"
     inkscape:window-maximized="0" />
  <metadata
     id="metadata4194">
    <rdf:RDF>
      <cc:Work
         rdf:about="">
        <dc:format>image/svg+xml</dc:format>
        <dc:type
           rdf:resource="http://purl.org/dc/dcmitype/StillImage" />
        <dc:title></dc:title>
      </cc:Work>
    </rdf:RDF>
  </metadata>
  <g
     inkscape:label="Capa 1"
     inkscape:groupmode="layer"
     id="layer1"
     transform="translate(-292.92732,-526.72009)">
    <path
       inkscape:connector-curvature="0"
       d="m 669.97053,600.8286 -366.25,0 0,-0.625 366.25,0 0,0.625 z m -197.59,23.4925 -0.625,0 0,-97.00375 0.625,0 0,97.00375 z"
       style="fill:#231f20;fill-opacity:1;fill-rule:nonzero;stroke:none"
       id="path146" />
    <g
       id="g148"
       transform="matrix(1.25,0,0,-1.25,619.58178,600.46734)">
      <path
         inkscape:connector-curvature="0"
         d="m 0,0 0,5.875 0.4,0 L 0.4,0"
         style="fill:#231f20;fill-opacity:1;fill-rule:nonzero;stroke:none"
         id="path150" />
    </g>
    <text
       style="font-size:15px"
       y="624.19263"
       x="440.28302"
       id="text152">
      <tspan
         style="font-size:10px;font-variant:normal;font-weight:normal;writing-mode:lr-tb;fill:#231f20;fill-opacity:1;fill-rule:nonzero;stroke:none;font-family:Times New Roman;-inkscape-font-specification:TimesTen-Roman"
         x="440.28302"
         y="624.19263"
         id="tspan154">5</tspan>
    </text>
    <g
       id="g156"
       transform="matrix(1.25,0,0,-1.25,324.09554,600.46734)">
      <path
         inkscape:connector-curvature="0"
         d="m 0,0 0,5.875 0.4,0 L 0.4,0"
         style="fill:#231f20;fill-opacity:1;fill-rule:nonzero;stroke:none"
         id="path158" />
    </g>
    <text
       style="font-size:15px"
       y="611.56982"
       x="315.94077"
       id="text160">
      <tspan
         style="font-size:10px;font-variant:normal;font-weight:normal;writing-mode:lr-tb;fill:#231f20;fill-opacity:1;fill-rule:nonzero;stroke:none;font-family:Times New Roman;-inkscape-font-specification:TimesTen-Roman"
         x="315.94077 320.94077"
         y="611.56982"
         sodipodi:role="line"
         id="tspan162">–2</tspan>
    </text>
    <text
       style="font-size:15px"
       y="611.56982"
       x="434.76077"
       id="text168">
      <tspan
         style="font-size:10px;font-variant:normal;font-weight:normal;writing-mode:lr-tb;fill:#231f20;fill-opacity:1;fill-rule:nonzero;stroke:none;font-family:Times New Roman;-inkscape-font-specification:TimesTen-Roman"
         x="434.76077 439.76077"
         y="611.56982"
         sodipodi:role="line"
         id="tspan170">–2</tspan>
    </text>
    <g
       id="g176"
       transform="matrix(1.25,0,0,-1.25,398.33178,600.46734)">
      <path
         inkscape:connector-curvature="0"
         d="m 0,0 0,5.875 0.4,0 L 0.4,0"
         style="fill:#231f20;fill-opacity:1;fill-rule:nonzero;stroke:none"
         id="path178" />
    </g>
    <text
       style="font-size:15px"
       y="611.56982"
       x="392.17654"
       id="text180">
      <tspan
         style="font-size:10px;font-variant:normal;font-weight:normal;writing-mode:lr-tb;fill:#231f20;fill-opacity:1;fill-rule:nonzero;stroke:none;font-family:Times New Roman;-inkscape-font-specification:TimesTen-Roman"
         x="392.17654"
         y="611.56982"
         id="tspan182">–</tspan>
    </text>
    <text
       style="font-size:15px"
       y="611.56982"
       x="613.50653"
       id="text188">
      <tspan
         style="font-size:10px;font-variant:normal;font-weight:normal;writing-mode:lr-tb;fill:#231f20;fill-opacity:1;fill-rule:nonzero;stroke:none;font-family:Times New Roman;-inkscape-font-specification:TimesTen-Roman"
         x="613.50653"
         y="611.56982"
         id="tspan190">2</tspan>
    </text>
    <text
       style="font-size:15px"
       y="539.94983"
       x="464.79654"
       id="text196">
      <tspan
         style="font-size:10px;font-variant:normal;font-weight:normal;writing-mode:lr-tb;fill:#231f20;fill-opacity:1;fill-rule:nonzero;stroke:none;font-family:Times New Roman;-inkscape-font-specification:TimesTen-Roman"
         x="464.79654"
         y="539.94983"
         id="tspan198">1</tspan>
    </text>
    <g
       id="g200"
       transform="matrix(1.25,0,0,-1.25,545.83178,600.46734)">
      <path
         inkscape:connector-curvature="0"
         d="m 0,0 0,5.875 0.4,0 L 0.4,0"
         style="fill:#231f20;fill-opacity:1;fill-rule:nonzero;stroke:none"
         id="path202" />
    </g>
    <text
       style="font-size:15px"
       y="535.23987"
       x="476.37051"
       id="text208">
      <tspan
         style="font-size:10px;font-style:italic;font-variant:normal;writing-mode:lr-tb;fill:#231f20;fill-opacity:1;fill-rule:nonzero;stroke:none;font-family:Times New Roman;-inkscape-font-specification:TimesTen-Italic"
         x="476.37051 478.59052"
         y="535.23987"
         sodipodi:role="line"
         id="tspan210">|H</tspan>
    </text>
    <text
       style="font-size:15px"
       y="535.23987"
       x="486.92053"
       id="text212">
      <tspan
         style="font-size:10px;font-variant:normal;font-weight:normal;writing-mode:lr-tb;fill:#231f20;fill-opacity:1;fill-rule:nonzero;stroke:none;font-family:Times New Roman;-inkscape-font-specification:TimesTen-Roman"
         x="486.92053"
         y="535.23987"
         id="tspan214">(</tspan>
    </text>
    <text
       style="font-size:15px"
       y="535.23987"
       x="490.81052"
       id="text216">
      <tspan
         style="font-size:10px;font-style:italic;font-variant:normal;writing-mode:lr-tb;fill:#231f20;fill-opacity:1;fill-rule:nonzero;stroke:none;font-family:Times New Roman;-inkscape-font-specification:TimesTen-Italic"
         x="490.81052"
         y="535.23987"
         id="tspan218">e</tspan>
    </text>
    <text
       style="font-size:15px"
       y="531.4845"
       x="496.84677"
       id="text220">
      <tspan
         style="font-size:7.5px;font-style:italic;font-variant:normal;writing-mode:lr-tb;fill:#231f20;fill-opacity:1;fill-rule:nonzero;stroke:none;font-family:Times New Roman;-inkscape-font-specification:TimesTen-Italic"
         x="496.84677"
         y="531.4845"
         id="tspan222">j</tspan>
    </text>
    <text
       style="font-size:15px"
       y="535.2345"
       x="503.93427"
       id="text228">
      <tspan
         style="font-size:10px;font-variant:normal;font-weight:normal;writing-mode:lr-tb;fill:#231f20;fill-opacity:1;fill-rule:nonzero;stroke:none;font-family:Times New Roman;-inkscape-font-specification:TimesTen-Roman"
         x="503.93427 507.82428"
         y="535.2345"
         sodipodi:role="line"
         id="tspan230">)|</tspan>
    </text>
    <g
       id="g232"
       transform="matrix(1.25,0,0,-1.25,435.07428,613.74485)">
      <path
         inkscape:connector-curvature="0"
         d="m 0,0 12.667,0 0,-0.3 L 0,-0.3"
         style="fill:#231f20;fill-opacity:1;fill-rule:nonzero;stroke:none"
         id="path234" />
    </g>
    <text
       style="font-size:15px"
       y="624.19263"
       x="497.47052"
       id="text236">
      <tspan
         style="font-size:10px;font-variant:normal;font-weight:normal;writing-mode:lr-tb;fill:#231f20;fill-opacity:1;fill-rule:nonzero;stroke:none;font-family:Times New Roman;-inkscape-font-specification:TimesTen-Roman"
         x="497.47052"
         y="624.19263"
         id="tspan238">5</tspan>
      <tspan
         style="font-size:10px;font-variant:normal;font-weight:normal;writing-mode:lr-tb;fill:#231f20;fill-opacity:1;fill-rule:nonzero;stroke:none;font-family:Times New Roman;-inkscape-font-specification:TimesTen-Roman"
         x="494.45053"
         y="611.57257"
         id="tspan240">2</tspan>
    </text>
    <g
       id="g246"
       transform="matrix(1.25,0,0,-1.25,494.34553,613.74485)">
      <path
         inkscape:connector-curvature="0"
         d="m 0,0 9,0 0,-0.3 -9,0"
         style="fill:#231f20;fill-opacity:1;fill-rule:nonzero;stroke:none"
         id="path248" />
    </g>
    <path
       inkscape:connector-curvature="0"
       d="m 669.97053,691.4536 -366.25,0 0,-0.625 366.25,0 0,0.625 z m -197.59,39.1175 -0.625,0 0,-87.0675 0.625,0 0,87.0675 z"
       style="fill:#231f20;fill-opacity:1;fill-rule:nonzero;stroke:none"
       id="path250" />
    <path
       inkscape:connector-curvature="0"
       d="m 619.58178,683.7486 0.5,0 0,7.34375 -0.5,0 0,-7.34375 z m -140.17,-22.43125 -7.34375,0 0,-0.5 7.34375,0 0,0.5 z m 0,59.245 -7.34375,0 0,-0.5 7.34375,0 0,0.5 z m -155.31625,-36.81375 0.5,0 0,7.34375 -0.5,0 0,-7.34375 z"
       style="fill:#231f20;fill-opacity:1;fill-rule:nonzero;stroke:none"
       id="path252" />
    <text
       style="font-size:15px"
       y="702.19482"
       x="310.38541"
       id="text254">
      <tspan
         style="font-size:10px;font-variant:normal;font-weight:normal;writing-mode:lr-tb;fill:#231f20;fill-opacity:1;fill-rule:nonzero;stroke:none;font-family:Times New Roman;-inkscape-font-specification:TimesTen-Roman"
         x="310.38541 315.38541"
         y="702.19482"
         sodipodi:role="line"
         id="tspan256">–2</tspan>
    </text>
    <g
       id="g262"
       transform="matrix(1.25,0,0,-1.25,398.33178,691.09234)">
      <path
         inkscape:connector-curvature="0"
         d="m 0,0 0,5.875 0.4,0 L 0.4,0"
         style="fill:#231f20;fill-opacity:1;fill-rule:nonzero;stroke:none"
         id="path264" />
    </g>
    <text
       style="font-size:15px"
       y="702.19482"
       x="389.41653"
       id="text266">
      <tspan
         style="font-size:10px;font-variant:normal;font-weight:normal;writing-mode:lr-tb;fill:#231f20;fill-opacity:1;fill-rule:nonzero;stroke:none;font-family:Times New Roman;-inkscape-font-specification:TimesTen-Roman"
         x="389.41653"
         y="702.19482"
         id="tspan268">–</tspan>
    </text>
    <text
       style="font-size:15px"
       y="723.25488"
       x="431.64651"
       id="text274">
      <tspan
         style="font-size:10px;font-variant:normal;font-weight:normal;writing-mode:lr-tb;fill:#231f20;fill-opacity:1;fill-rule:nonzero;stroke:none;font-family:Times New Roman;-inkscape-font-specification:TimesTen-Roman"
         x="431.64651 437.44653"
         y="723.25488"
         sodipodi:role="line"
         id="tspan276">–4</tspan>
    </text>
    <text
       style="font-size:15px"
       y="723.25488"
       x="449.11652"
       id="text282">
      <tspan
         style="font-size:10px;font-variant:normal;font-weight:normal;writing-mode:lr-tb;fill:#231f20;fill-opacity:1;fill-rule:nonzero;stroke:none;font-family:Times New Roman;-inkscape-font-specification:TimesTen-Roman"
         x="449.11652 451.89651"
         y="723.25488"
         sodipodi:role="line"
         id="tspan284">/5</tspan>
    </text>
    <g
       id="g286"
       transform="matrix(1.25,0,0,-1.25,545.83178,691.09234)">
      <path
         inkscape:connector-curvature="0"
         d="m 0,0 0,5.875 0.4,0 L 0.4,0"
         style="fill:#231f20;fill-opacity:1;fill-rule:nonzero;stroke:none"
         id="path288" />
    </g>
    <text
       style="font-size:15px"
       y="663.25488"
       x="449.79053"
       id="text294">
      <tspan
         style="font-size:10px;font-variant:normal;font-weight:normal;writing-mode:lr-tb;fill:#231f20;fill-opacity:1;fill-rule:nonzero;stroke:none;font-family:Times New Roman;-inkscape-font-specification:TimesTen-Roman"
         x="449.79053"
         y="663.25488"
         id="tspan296">4</tspan>
    </text>
    <text
       style="font-size:15px"
       y="663.25488"
       x="461.46051"
       id="text302">
      <tspan
         style="font-size:10px;font-variant:normal;font-weight:normal;writing-mode:lr-tb;fill:#231f20;fill-opacity:1;fill-rule:nonzero;stroke:none;font-family:Times New Roman;-inkscape-font-specification:TimesTen-Roman"
         x="461.46051 464.24054"
         y="663.25488"
         sodipodi:role="line"
         id="tspan304">/5</tspan>
    </text>
    <text
       style="font-size:15px"
       y="651.19482"
       x="476.37051"
       id="text310">
      <tspan
         style="font-size:10px;font-variant:normal;writing-mode:lr-tb;fill:#231f20;fill-opacity:1;fill-rule:nonzero;stroke:none;font-family:MathematicalPi;-inkscape-font-specification:MathematicalPi-Six"
         x="476.37051"
         y="651.19482"
         id="tspan312">Є</tspan>
    </text>
    <text
       style="font-size:15px"
       y="651.19482"
       x="484.70053"
       id="text314">
      <tspan
         style="font-size:10px;font-style:italic;font-variant:normal;writing-mode:lr-tb;fill:#231f20;fill-opacity:1;fill-rule:nonzero;stroke:none;font-family:Times New Roman;-inkscape-font-specification:TimesTen-Italic"
         x="484.70053"
         y="651.19482"
         id="tspan316">H</tspan>
    </text>
    <text
       style="font-size:15px"
       y="651.19482"
       x="493.03052"
       id="text318">
      <tspan
         style="font-size:10px;font-variant:normal;font-weight:normal;writing-mode:lr-tb;fill:#231f20;fill-opacity:1;fill-rule:nonzero;stroke:none;font-family:Times New Roman;-inkscape-font-specification:TimesTen-Roman"
         x="493.03052"
         y="651.19482"
         id="tspan320">(</tspan>
    </text>
    <text
       style="font-size:15px"
       y="651.19482"
       x="496.92053"
       id="text322">
      <tspan
         style="font-size:10px;font-style:italic;font-variant:normal;writing-mode:lr-tb;fill:#231f20;fill-opacity:1;fill-rule:nonzero;stroke:none;font-family:Times New Roman;-inkscape-font-specification:TimesTen-Italic"
         x="496.92053"
         y="651.19482"
         id="tspan324">e</tspan>
    </text>
    <text
       style="font-size:15px"
       y="647.44647"
       x="502.95679"
       id="text326">
      <tspan
         style="font-size:7.5px;font-style:italic;font-variant:normal;writing-mode:lr-tb;fill:#231f20;fill-opacity:1;fill-rule:nonzero;stroke:none;font-family:Times New Roman;-inkscape-font-specification:TimesTen-Italic"
         x="502.95679"
         y="647.44647"
         id="tspan328">j</tspan>
    </text>
    <text
       style="font-size:15px"
       y="651.19611"
       x="510.04428"
       id="text334">
      <tspan
         style="font-size:10px;font-variant:normal;font-weight:normal;writing-mode:lr-tb;fill:#231f20;fill-opacity:1;fill-rule:nonzero;stroke:none;font-family:Times New Roman;-inkscape-font-specification:TimesTen-Roman"
         x="510.04428"
         y="651.19611"
         id="tspan336">)</tspan>
      <tspan
         style="font-size:10px;font-variant:normal;font-weight:normal;writing-mode:lr-tb;fill:#231f20;fill-opacity:1;fill-rule:nonzero;stroke:none;font-family:Times New Roman;-inkscape-font-specification:TimesTen-Roman"
         x="610.69427"
         y="702.19611"
         id="tspan338">2</tspan>
    </text>
    <g
       id="g344"
       transform="matrix(1.25,0,0,-1.25,302.89728,668.45585)">
      <path
         inkscape:connector-curvature="0"
         d="M 0,0 40.084,-40.292 39.233,-41.138 -0.851,-0.846 0,0 z m 42.784,-11.916 22.25,-22.376 -0.851,-0.846 -22.25,22.376 0.851,0.846 z m 22.987,5.562 22.25,-22.375 -0.851,-0.846 -22.25,22.375 0.851,0.846 z m 24.825,5.625 22.25,-22.375 -0.851,-0.846 -22.25,22.375 0.851,0.846 z m 22.738,5.5 46.063,-46.313 -0.851,-0.846 -46.063,46.313 0.851,0.846 z m 47.083,-16.687 22.25,-22.376 -0.851,-0.846 -22.25,22.376 0.851,0.846 z m 23.312,5.562 22.25,-22.375 -0.851,-0.846 -22.25,22.375 0.851,0.846 z m 24.501,5.625 22.25,-22.375 -0.851,-0.846 -22.25,22.375 0.851,0.846 z m 23.292,5.5 39.226,-39.44 -0.851,-0.846 -39.226,39.44 0.851,0.846 z"
         style="fill:#231f20;fill-opacity:1;fill-rule:nonzero;stroke:none"
         id="path346" />
    </g>
    <g
       transform="matrix(1.25,0,0,-1.25,80.115528,1377.4836)"
       id="g348">
      <g
         id="g350"
         clip-path="url(#clipPath352)">
        <g
           id="g356"
           transform="translate(178.4837,641.6642)">
          <path
             inkscape:connector-curvature="0"
             d="m 0,0 c 1.16,3.309 3.125,9.945 6.008,15.776 1.445,2.918 3.117,5.642 5.073,7.669 1.949,2.022 4.224,3.373 6.819,3.374 1.426,-10e-4 2.798,-0.605 4.093,-1.611 2.268,-1.766 4.386,-4.784 6.385,-8.493 C 34.356,5.592 39.169,-11.82 40.986,-19.9 l -0.586,-0.131 -0.55,0.239 c 1.069,2.448 2.489,5.558 4.571,8.095 2.072,2.532 4.878,4.519 8.604,4.516 1.866,0 3.561,-0.536 5.057,-1.396 2.246,-1.292 4.059,-3.296 5.487,-5.371 1.427,-2.076 2.467,-4.231 3.136,-5.855 l -0.555,-0.228 -0.552,0.234 c 0.93,2.187 2.623,4.131 4.575,5.548 1.955,1.414 4.172,2.313 6.227,2.318 2.032,-0.005 4.452,-0.792 6.618,-2.155 2.159,-1.367 4.069,-3.322 4.947,-5.742 l -0.565,-0.203 -0.565,0.201 c 1.031,2.894 2.809,5.891 5.03,8.199 2.22,2.3 4.906,3.943 7.785,3.95 2.745,-0.011 5.587,-1.603 8.092,-3.875 2.502,-2.281 4.668,-5.272 5.959,-8.236 l -0.551,-0.239 -0.585,0.13 c 1.007,4.531 4.009,16.04 7.994,26.459 1.994,5.21 4.229,10.144 6.607,13.815 1.191,1.836 2.417,3.358 3.694,4.445 1.273,1.083 2.624,1.749 4.04,1.751 l 0,-1.2 c -1.021,0.002 -2.115,-0.489 -3.263,-1.465 -2.006,-1.699 -4.074,-4.832 -6.009,-8.681 -5.826,-11.555 -10.591,-29.52 -11.892,-35.384 l -1.136,-0.11 c -1.209,2.786 -3.294,5.67 -5.666,7.827 -2.37,2.166 -5.028,3.573 -7.284,3.563 -2.394,0.006 -4.834,-1.413 -6.92,-3.582 -2.085,-2.161 -3.795,-5.039 -4.764,-7.769 l -1.13,-0.003 c -0.747,2.08 -2.462,3.875 -4.459,5.134 -1.991,1.262 -4.258,1.974 -5.977,1.97 -1.695,0.005 -3.727,-0.784 -5.523,-2.089 -1.797,-1.301 -3.355,-3.108 -4.174,-5.046 l -1.107,0.006 c -0.858,2.086 -2.37,5.101 -4.493,7.555 -1.061,1.228 -2.272,2.314 -3.619,3.087 -1.348,0.773 -2.824,1.236 -4.459,1.237 -3.274,-0.004 -5.717,-1.704 -7.677,-4.078 -1.949,-2.37 -3.341,-5.385 -4.398,-7.812 l -1.135,0.108 c -1.368,6.095 -4.49,17.644 -8.503,27.627 -2.004,4.99 -4.236,9.592 -6.556,12.907 -1.158,1.657 -2.339,2.99 -3.498,3.889 -1.163,0.901 -2.283,1.359 -3.358,1.359 C 15.745,25.62 13.771,24.501 11.944,22.612 9.209,19.786 6.921,15.28 5.127,10.864 3.33,6.445 2.015,2.125 1.133,-0.397 L 0,0 z m 268.666,-0.396 c -1.173,3.358 -3.124,9.93 -5.95,15.64 -1.409,2.853 -3.039,5.484 -4.859,7.368 -1.827,1.889 -3.802,3.008 -5.957,3.007 -1.074,0 -2.194,-0.458 -3.357,-1.359 -2.033,-1.572 -4.112,-4.479 -6.064,-8.114 -5.875,-10.911 -10.701,-28.311 -12.493,-36.309 l -1.136,-0.108 c -1.056,2.427 -2.448,5.442 -4.398,7.812 -1.959,2.374 -4.403,4.074 -7.677,4.078 -1.634,-10e-4 -3.111,-0.464 -4.459,-1.237 -2.02,-1.158 -3.734,-3.027 -5.095,-5.01 -1.362,-1.98 -2.372,-4.068 -3.016,-5.632 l -1.108,-0.004 c -0.82,1.958 -2.376,3.763 -4.173,5.059 -1.794,1.3 -3.827,2.078 -5.524,2.074 -1.718,0.004 -3.986,-0.708 -5.976,-1.97 -1.997,-1.259 -3.712,-3.054 -4.459,-5.134 l -1.13,0.003 c -0.969,2.73 -2.679,5.608 -4.764,7.769 -2.087,2.169 -4.526,3.588 -6.921,3.582 -2.255,0.01 -4.913,-1.397 -7.283,-3.563 -2.373,-2.157 -4.457,-5.041 -5.666,-7.827 l -1.136,0.11 c -0.993,4.469 -3.991,15.96 -7.944,26.29 -1.975,5.165 -4.192,10.044 -6.494,13.591 -1.149,1.774 -2.32,3.213 -3.464,4.184 -1.147,0.976 -2.241,1.467 -3.263,1.465 l 0,1.2 c 1.416,-0.002 2.767,-0.668 4.041,-1.751 2.23,-1.903 4.324,-5.136 6.303,-9.055 5.917,-11.752 10.668,-29.717 11.992,-35.664 l -0.586,-0.13 -0.55,0.239 c 1.291,2.964 3.456,5.955 5.959,8.236 2.505,2.272 5.347,3.864 8.091,3.875 2.88,-0.007 5.565,-1.65 7.785,-3.95 2.222,-2.308 4,-5.305 5.031,-8.199 l -0.566,-0.201 -0.564,0.203 c 0.878,2.42 2.788,4.375 4.947,5.742 2.166,1.363 4.586,2.15 6.617,2.155 2.053,-0.005 4.271,-0.893 6.227,-2.302 1.953,-1.412 3.646,-3.357 4.576,-5.566 l -0.553,-0.232 -0.554,0.228 c 0.892,2.165 2.442,5.275 4.694,7.883 1.127,1.303 2.431,2.482 3.929,3.343 1.496,0.86 3.191,1.396 5.056,1.396 3.726,0.003 6.533,-1.984 8.605,-4.516 2.081,-2.537 3.502,-5.647 4.57,-8.095 l -0.55,-0.239 -0.585,0.131 c 1.382,6.155 4.51,17.732 8.56,27.811 2.026,5.041 4.279,9.705 6.686,13.148 1.205,1.721 2.448,3.14 3.746,4.149 1.296,1.006 2.668,1.61 4.093,1.611 2.595,-10e-4 4.871,-1.352 6.82,-3.374 2.929,-3.041 5.238,-7.648 7.064,-12.129 1.821,-4.477 3.147,-8.837 4.015,-11.316 l -1.133,-0.396 z"
             style="fill:#231f20;fill-opacity:1;fill-rule:nonzero;stroke:none"
             id="path358" />
        </g>
      </g>
    </g>
    <text
       style="font-size:15px"
       y="756.07111"
       x="292.83429"
       id="text360">
      <tspan
         style="font-size:11.20800018px;font-variant:normal;font-weight:bold;writing-mode:lr-tb;fill:#231f20;fill-opacity:1;fill-rule:nonzero;stroke:none;font-family:Times New Roman;-inkscape-font-specification:Times-Bold"
         x="292.83429 299.7384 302.88785 308.44702 314.74591 319.67743 327.6239 333.18307 336.02991 341.58908"
         y="756.07111"
         sodipodi:role="line"
         id="tspan362">Figura2.19</tspan>
    </text>
    <text
       style="font-size:15px"
       y="756.07111"
       x="358.37866"
       id="text364">
      <tspan
         style="font-size:11.20800018px;font-variant:normal;font-weight:normal;writing-mode:lr-tb;fill:#231f20;fill-opacity:1;fill-rule:nonzero;stroke:none;font-family:Times New Roman;-inkscape-font-specification:Times-Roman"
         x="358.37866 362.13336 367.08728 373.08356 382.98022 388.5506 394.12097 399.69135 402.84082 410.94418 418.89066 422.64532 428.1933 434.3465 437.94424 442.88699 447.21329 454.56573 460.11368 467.46613 470.61557 477.81113 481.5658 486.50851 490.83481 496.40518 501.97556 506.9183 511.24457 514.39404 521.74646 526.70038 534.64685 538.40155 542.15625 547.09894 552.04169 557.61206 562.55481 568.12518 573.06793 576.21735 583.71552 589.26349 594.20618 599.75415 604.08044 607.22992 611.55615 614.70563 619.64838 628.33453 635.53009 641.07806 648.43048 653.97845 657.73315 663.28113 671.96729 676.91003 682.48041 685.62982 690.57257 696.14294"
         y="756.07111"
         sodipodi:role="line"
         id="tspan366">(a)Móduloy(b)fasedelarespuestaenfrecuenciadelsistemadepromediado</tspan>
      <tspan
         style="font-size:11.20800018px;font-variant:normal;font-weight:normal;writing-mode:lr-tb;fill:#231f20;fill-opacity:1;fill-rule:nonzero;stroke:none;font-family:Times New Roman;-inkscape-font-specification:Times-Roman"
         x="292.83429 301.52048 307.09085 312.66122 315.8107 321.80698 327.35492 332.29764 335.99628 343.94275 348.8967 354.74728 359.69 364.63272 368.95901 377.51071 383.05869"
         y="769.86816"
         sodipodi:role="line"
         id="tspan368">móvilparaelcasode</tspan>
    </text>
    <text
       style="font-size:15px"
       y="769.86816"
       x="390.9379"
       id="text370">
      <tspan
         style="font-size:11.20800018px;font-style:italic;font-variant:normal;writing-mode:lr-tb;fill:#231f20;fill-opacity:1;fill-rule:nonzero;stroke:none;font-family:Times New Roman;-inkscape-font-specification:Times-Italic"
         x="390.9379"
         y="769.86816"
         id="tspan372">M</tspan>
    </text>
    <text
       style="font-size:15px"
       y="771.82111"
       x="400.83429"
       id="text374">
      <tspan
         style="font-size:8.71724987px;font-variant:normal;font-weight:normal;writing-mode:lr-tb;fill:#231f20;fill-opacity:1;fill-rule:nonzero;stroke:none;font-family:Times New Roman;-inkscape-font-specification:Times-Roman"
         x="400.83429"
         y="771.82111"
         id="tspan376">1</tspan>
    </text>
    <text
       style="font-size:15px"
       y="769.87109"
       x="408.48428"
       id="text378">
      <tspan
         style="font-size:11.20800018px;font-variant:normal;font-weight:normal;writing-mode:lr-tb;fill:#231f20;fill-opacity:1;fill-rule:nonzero;stroke:none;font-family:CMR10;-inkscape-font-specification:CMR10"
         x="408.48428"
         y="769.87109"
         id="tspan380">=</tspan>
    </text>
    <text
       style="font-size:15px"
       y="769.87109"
       x="419.5802"
       id="text382">
      <tspan
         style="font-size:11.20800018px;font-variant:normal;font-weight:normal;writing-mode:lr-tb;fill:#231f20;fill-opacity:1;fill-rule:nonzero;stroke:none;font-family:Times New Roman;-inkscape-font-specification:Times-Roman"
         x="419.5802 427.97498"
         y="769.87109"
         sodipodi:role="line"
         id="tspan384">0y</tspan>
    </text>
    <text
       style="font-size:15px"
       y="769.87109"
       x="436.38098"
       id="text386">
      <tspan
         style="font-size:11.20800018px;font-style:italic;font-variant:normal;writing-mode:lr-tb;fill:#231f20;fill-opacity:1;fill-rule:nonzero;stroke:none;font-family:Times New Roman;-inkscape-font-specification:Times-Italic"
         x="436.38098"
         y="769.87109"
         id="tspan388">M</tspan>
    </text>
    <text
       style="font-size:15px"
       y="771.82111"
       x="446.28427"
       id="text390">
      <tspan
         style="font-size:8.71724987px;font-variant:normal;font-weight:normal;writing-mode:lr-tb;fill:#231f20;fill-opacity:1;fill-rule:nonzero;stroke:none;font-family:Times New Roman;-inkscape-font-specification:Times-Roman"
         x="446.28427"
         y="771.82111"
         id="tspan392">2</tspan>
    </text>
    <text
       style="font-size:15px"
       y="769.87109"
       x="453.93427"
       id="text394">
      <tspan
         style="font-size:11.20800018px;font-variant:normal;font-weight:normal;writing-mode:lr-tb;fill:#231f20;fill-opacity:1;fill-rule:nonzero;stroke:none;font-family:CMR10;-inkscape-font-specification:CMR10"
         x="453.93427"
         y="769.87109"
         id="tspan396">=</tspan>
    </text>
  </g>
</svg>
